<?xml version="1.0" encoding="UTF-8"?>
<svg version="1.1" xmlns="http://www.w3.org/2000/svg" width="1024" height="1024">
<path d="M0 0 C1.77814971 1.87378129 3.20503887 3.60259125 4.6875 5.6875 C5.11538818 6.2654834 5.54327637 6.8434668 5.98413086 7.43896484 C7.34008645 9.28076529 8.6732745 11.13705224 10 13 C10.42506836 13.5966748 10.85013672 14.19334961 11.28808594 14.80810547 C12.9668826 17.16968181 14.64353674 19.5327598 16.31689453 21.89819336 C20.29038399 27.48148343 24.54707659 32.79031858 29 38 C29.64839844 38.76054687 30.29679688 39.52109375 30.96484375 40.3046875 C42.49455757 53.44988905 54.88077863 65.66985828 69 76 C70.12783846 76.84604192 71.25544181 77.69239736 72.3828125 78.5390625 C100.2345067 99.20065133 135.51669468 116.34166415 170.20825195 120.54101562 C171.45952881 120.69248047 172.71080566 120.84394531 174 121 C174.04567108 120.34141495 174.09134216 119.6828299 174.13839722 119.00428772 C174.62373016 112.00950285 175.11093513 105.01484999 175.59912109 98.02026367 C175.77991817 95.42654559 175.96027283 92.83279663 176.14013672 90.23901367 C177.07662237 76.73844812 178.03072749 63.23916102 179.0703125 49.74609375 C179.14909637 48.68656998 179.22788025 47.6270462 179.30905151 46.53541565 C179.42314865 45.08593788 179.42314865 45.08593788 179.53955078 43.60717773 C179.60457794 42.76162827 179.6696051 41.9160788 179.73660278 41.04490662 C180 39 180 39 181 37 C191.23446522 38.66280785 201.34754612 51.9305119 208.59375 58.83984375 C209.31908936 59.4946875 210.04442871 60.14953125 210.79174805 60.82421875 C213 63 213 63 214.93676758 65.69140625 C219.53159682 71.31883205 223.15243555 73.16621267 230.27685547 73.92260742 C237.39983042 74.36528515 244.50861834 74.29580373 251.63916016 74.1529541 C254.37189606 74.11565991 257.10225105 74.14527149 259.83494854 74.17517281 C263.12338158 74.20151663 266.41091457 74.16485695 269.69921875 74.1328125 C270.91397385 74.14273224 272.12872894 74.15265198 273.3802948 74.16287231 C279.49323521 73.99379493 283.16496328 73.56176848 287.59301758 69.14013672 C288.73794201 67.76776676 289.87404122 66.38797265 291 65 C292.24775003 63.84945133 293.51599919 62.72032096 294.8125 61.625 C298.03860409 58.8525668 301.18271462 56.00582518 304.3125 53.125 C318.24279819 40.43467272 318.24279819 40.43467272 326 36 C327.49249967 38.98499933 327.42661636 42.13265262 327.66430664 45.41552734 C327.72297409 46.1799263 327.78164154 46.94432526 327.84208679 47.73188782 C328.03553243 50.26627953 328.22291846 52.80108019 328.41015625 55.3359375 C328.54292404 57.09472057 328.67602062 58.85347884 328.80943298 60.61221313 C329.08849944 64.30248542 329.36478915 67.9929513 329.63891602 71.68359375 C329.99032667 76.41407494 330.34669345 81.1441653 330.7049036 85.87413597 C330.97987495 89.50798808 331.25316369 93.14196503 331.52584648 96.77598953 C331.65672566 98.5199265 331.78790523 100.26384096 331.91938972 102.00773239 C332.10285387 104.4469358 332.2842854 106.88628163 332.46508789 109.32568359 C332.51962128 110.04686874 332.57415466 110.76805389 332.63034058 111.51109314 C332.86394481 114.68994804 333 117.80939614 333 121 C373.62494083 114.93021854 412.21574594 98.07113498 444 72 C444.80002441 71.35224609 444.80002441 71.35224609 445.61621094 70.69140625 C461.06376567 58.12945838 475.24538365 44.08718248 487 28 C488.16497577 26.42028611 489.33036642 24.84087812 490.49609375 23.26171875 C492.33077383 20.77301145 494.16340208 18.28291837 495.98974609 15.78808594 C500.18235193 10.06759666 504.47652045 4.46470045 509 -1 C513.83439509 -0.46181398 517.42379695 1.8102452 521.4375 4.375 C522.13979736 4.81980713 522.84209473 5.26461426 523.56567383 5.72290039 C530.75346103 10.35697191 537.42266578 15.54520763 544 21 C544.56348145 21.46583496 545.12696289 21.93166992 545.70751953 22.41162109 C552.18901919 27.78901671 558.53024311 33.30609197 564.7578125 38.9765625 C566.70460493 40.73342396 568.68535882 42.43220252 570.6875 44.125 C580.10461202 52.33134047 588.97062975 61.43871043 597 71 C597.88381475 72.01051789 598.76940641 73.01948296 599.65625 74.02734375 C637.13675353 116.8226147 685.98957582 187.62545057 685 247 C679.92502313 246.38208864 675.82001992 244.0658029 671.3125 241.8125 C639.37715197 226.3404488 602.18564727 222.00627636 568 233 C533.56994238 245.15901825 507.53271955 266.45489021 491.25 299.3125 C490.71906738 300.44123535 490.18813477 301.5699707 489.64111328 302.73291016 C489.12532715 303.78655762 488.60954102 304.84020508 488.078125 305.92578125 C487.62856445 306.87880127 487.17900391 307.83182129 486.71582031 308.8137207 C485 311 485 311 482.18798828 311.79248047 C481.13595215 311.86096191 480.08391602 311.92944336 479 312 C477.53361084 312.11565308 477.53361084 312.11565308 476.03759766 312.23364258 C474.49144775 312.31328247 474.49144775 312.31328247 472.9140625 312.39453125 C420.26777097 315.37753008 376.5605755 331.02467279 337.37109375 366.8515625 C335.26236633 368.76227104 333.11219895 370.60300148 330.9375 372.4375 C326.19750785 376.58025314 322.11337623 381.24557812 318 386 C317.1440625 386.9796875 316.288125 387.959375 315.40625 388.96875 C303.92533951 402.23164769 293.78817323 416.46082064 284 431 C283.59072266 431.60634277 283.18144531 432.21268555 282.75976562 432.83740234 C278.66558242 438.91110005 274.62630512 445.01760577 270.66015625 451.17578125 C270.08442871 452.06813477 269.50870117 452.96048828 268.91552734 453.87988281 C267.79104697 455.62554406 266.67008693 457.37347967 265.55322266 459.12402344 C262.61547871 463.68614551 259.57843739 467.91886161 256 472 C253.81640625 471.91796875 253.81640625 471.91796875 251 471 C249.08215484 468.80240433 247.5337567 466.73058059 245.9375 464.3125 C245.18907837 463.21796509 245.18907837 463.21796509 244.42553711 462.10131836 C242.59768446 459.41342687 240.79755119 456.70825157 239 454 C238.23355578 452.84820257 237.46694616 451.6965152 236.70019531 450.54492188 C235.02370361 448.02616145 233.34777411 445.50702835 231.67236328 442.98754883 C231.24328674 442.34234283 230.81421021 441.69713684 230.37213135 441.03237915 C229.49663176 439.71549835 228.62142989 438.39841956 227.746521 437.08114624 C215.00583565 417.90439881 201.71810432 399.2706435 186.10546875 382.29296875 C184.65109281 380.7090751 183.21731921 379.10610346 181.80078125 377.48828125 C150.47876539 341.79320907 101.93327242 317.0148668 54.50756836 313.65600586 C49.7155986 313.35090916 44.92081216 313.11032425 40.125 312.875 C38.45439704 312.78833767 36.78382375 312.70110144 35.11328125 312.61328125 C31.07583114 312.40225864 27.0380633 312.19892883 23 312 C22.45657959 310.91170898 21.91315918 309.82341797 21.35327148 308.70214844 C20.63005908 307.25455054 19.90683242 305.80695977 19.18359375 304.359375 C18.64816956 303.28695557 18.64816956 303.28695557 18.10192871 302.19287109 C1.05246824 268.07440923 -24.98050042 245.44791698 -61.18017578 233.24316406 C-73.80744632 229.23797152 -85.9773759 227.49596679 -99.15136719 227.60888672 C-101.36716702 227.62494324 -103.58113038 227.608945 -105.796875 227.58984375 C-119.03618799 227.56963832 -132.24958439 229.19230709 -144.8125 233.5625 C-145.53260254 233.80427979 -146.25270508 234.04605957 -146.99462891 234.29516602 C-154.128123 236.81515864 -160.81118439 240.23217655 -167.45239258 243.83618164 C-168.2492749 244.26020264 -169.04615723 244.68422363 -169.8671875 245.12109375 C-170.56956543 245.5070874 -171.27194336 245.89308105 -171.99560547 246.29077148 C-174.40391666 247.14292057 -175.62786369 246.84092132 -178 246 C-176.70860685 237.81434936 -174.70813271 229.99003266 -172.3125 222.0625 C-171.78076172 220.29132813 -171.78076172 220.29132813 -171.23828125 218.484375 C-166.10953923 201.57784326 -160.197248 185.13790861 -153 169 C-152.45351807 167.76926758 -152.45351807 167.76926758 -151.89599609 166.51367188 C-143.34484987 147.4456833 -133.02461958 129.10219407 -121 112 C-120.10229418 110.69179748 -119.20520799 109.38316965 -118.30859375 108.07421875 C-113.27388864 100.7759837 -108.07245731 93.64818673 -102.5 86.75 C-102.02731689 86.16186523 -101.55463379 85.57373047 -101.06762695 84.96777344 C-91.42053049 73.21292142 -80.61969369 62.45678512 -69.86230469 51.73193359 C-67.73515216 49.61018991 -65.61346439 47.48308509 -63.4921875 45.35546875 C-62.11490417 43.9788456 -60.73731101 42.60253234 -59.359375 41.2265625 C-58.738349 40.60351227 -58.117323 39.98046204 -57.47747803 39.33853149 C-44.93051077 26.85733548 -30.98045023 16.13707873 -16.375 6.1875 C-15.33150391 5.46312744 -14.28800781 4.73875488 -13.21289062 3.99243164 C-12.22224609 3.32848389 -11.23160156 2.66453613 -10.2109375 1.98046875 C-8.88521729 1.08171021 -8.88521729 1.08171021 -7.53271484 0.16479492 C-4.47095827 -1.24330616 -3.13826161 -1.13560082 0 0 Z M199 172 C197.02795035 173.6792223 195.02764576 175.32584866 193 176.9375 C188.17759918 180.23261547 188.17759918 180.23261547 185.75708008 185.05957031 C185.76118896 185.89069336 185.76529785 186.72181641 185.76953125 187.578125 C185.77146484 188.49207031 185.77339844 189.40601563 185.77539062 190.34765625 C185.78763672 191.30542969 185.79988281 192.26320313 185.8125 193.25 C185.81314453 194.19230469 185.81378906 195.13460937 185.81445312 196.10546875 C185.84435119 200.84265135 186.02331357 205.3431591 187 210 C192.60915802 207.19542099 196.82461609 203.61981209 201.375 199.31640625 C203.4296517 197.50329843 205.43474903 195.92915516 207.6640625 194.35522461 C208.29006348 193.91206406 208.91606445 193.4689035 209.56103516 193.01231384 C210.03589355 192.67825027 210.51075195 192.34418671 211 192 C210.99666908 192.9557618 210.99666908 192.9557618 210.99327087 193.93083191 C210.73449948 235.47887665 210.73449948 235.47887665 212 277 C219.66958001 277.84581652 219.66958001 277.84581652 227.375 278.125 C228.16648437 278.12757813 228.95796875 278.13015625 229.7734375 278.1328125 C231.97309824 278.00160467 233.87612064 277.5612035 236 277 C236.02324837 264.1861424 236.04097849 251.37228987 236.05181217 238.55841541 C236.05701378 232.60737674 236.06406159 226.65635259 236.07543945 220.70532227 C236.08636556 214.95408169 236.09229731 209.202855 236.09487724 203.45160484 C236.09671406 201.26576201 236.10030064 199.07991988 236.10573006 196.89408302 C236.14728991 180.42296021 236.14728991 180.42296021 235 164 C214.92467972 161.00058945 214.92467972 161.00058945 199 172 Z M93.125 171.5625 C84.73295678 182.44840512 85.16801159 194.86805972 85 208 C84.97953613 209.25296875 84.95907227 210.5059375 84.93798828 211.796875 C82.97704752 242.61358905 82.97704752 242.61358905 93.4375 270.375 C98.16720004 275.22005858 102.56866928 277.07445906 109.24267578 277.19287109 C110.48514572 277.21696548 110.48514572 277.21696548 111.75271606 277.24154663 C115.54313984 277.28644007 119.33339519 277.32708268 123.12402344 277.35009766 C125.11405164 277.36661107 127.10402166 277.39383973 129.09375 277.43212891 C145.69602305 278.04175535 145.69602305 278.04175535 159.87280273 270.32202148 C170.26768966 259.87847695 168.08049799 242.3264507 168.125 228.75 C168.11129187 224.49945028 168.06324168 220.25008625 168 216 C167.98211426 214.7944043 167.96422852 213.58880859 167.94580078 212.34667969 C167.87925213 208.60538235 167.78780757 204.86553364 167.6875 201.125 C167.65390381 199.38814941 167.65390381 199.38814941 167.61962891 197.61621094 C167.2816201 187.09664287 165.65838119 177.70977972 158 170 C151.29186057 164.8041001 145.8267642 163.83915178 137.4296875 163.76171875 C136.17528366 163.74961113 136.17528366 163.74961113 134.89553833 163.73725891 C133.12536677 163.72344506 131.35516887 163.71271086 129.58496094 163.70483398 C127.78898215 163.69334619 125.99303664 163.67294535 124.19726562 163.64331055 C107.25481515 163.14685886 107.25481515 163.14685886 93.125 171.5625 Z M275.1953125 168.7421875 C273.24979995 170.74308831 271.72165042 171.84943514 269.3671875 173.2578125 C264.14807796 176.6023481 259.74709041 179.62891444 258.34423828 185.95898438 C257.66833209 193.19000608 257.62140267 200.84478017 259 208 C259.66 208.66 260.32 209.32 261 210 C263.0428701 208.43905326 265.08430858 206.87629071 267.125 205.3125 C267.97964844 204.65991211 267.97964844 204.65991211 268.8515625 203.99414062 C271.72387695 201.79094488 274.51969325 199.55457085 277.2421875 197.16796875 C280 195 280 195 283 195 C283.66 222.06 284.32 249.12 285 277 C294.13269174 277.84986275 294.13269174 277.84986275 303.1875 278.0625 C304.29480469 278.05347656 305.40210938 278.04445313 306.54296875 278.03515625 C307.35378906 278.02355469 308.16460938 278.01195312 309 278 C310.0271287 273.77469649 310.14488196 269.68614486 310.1328125 265.36328125 C310.13417709 264.59516617 310.13554169 263.82705109 310.13694763 263.03565979 C310.13900107 260.46123187 310.13256195 257.88691666 310.125 255.3125 C310.12378143 254.42137512 310.12256287 253.53025024 310.12130737 252.61212158 C310.09364685 235.03124968 309.84717715 217.45333238 309.5625 199.875 C309.5429425 198.59589752 309.52338501 197.31679504 309.50323486 195.99893188 C309.44587192 192.32991411 309.38221474 188.66106247 309.31640625 184.9921875 C309.29968369 183.89797989 309.28296112 182.80377228 309.26573181 181.67640686 C309.15627483 176.04046443 308.82405483 170.57776612 308 165 C297.92305379 162.81033098 282.83217972 160.59406557 275.1953125 168.7421875 Z M341 176 C338.58260577 180.94961469 337.35626288 185.43917497 336.8125 190.9375 C336.73281982 191.71053467 336.65313965 192.48356934 336.57104492 193.2800293 C335.60229423 203.84055641 335.79284788 214.40934796 336 225 C336.01933594 226.23508301 336.03867187 227.47016602 336.05859375 228.74267578 C336.12486079 232.62075912 336.21470883 236.49759256 336.3125 240.375 C336.33481689 241.58067627 336.35713379 242.78635254 336.38012695 244.02856445 C336.71478695 254.84269068 338.33043096 263.95902326 346 272 C357.9084257 281.28857205 380.32938549 278.86370753 394.8125 277.69140625 C403.82033405 276.53471847 409.01455121 273.76004813 414.74609375 266.7265625 C418.82766699 261.10645231 419.121442 254.41987372 419.14526367 247.6784668 C419.15164352 246.44666183 419.15802338 245.21485687 419.16459656 243.94572449 C419.16570938 242.62687759 419.1668222 241.3080307 419.16796875 239.94921875 C419.17118706 238.56687893 419.17455155 237.18453944 419.17805481 235.80220032 C419.18402673 232.90987357 419.18589674 230.01757661 419.18530273 227.12524414 C419.18520129 223.44036617 419.19884385 219.75568164 419.21607494 216.07084942 C419.22725836 213.21646772 419.22922 210.36213184 419.22869301 207.50773048 C419.23042882 205.4955108 419.24122925 203.48330541 419.25224304 201.47111511 C419.22464319 190.33599941 418.30726876 179.61838964 410.2578125 171.171875 C405.93354328 167.34870136 402.27709868 164.77213054 396.35839844 164.69360352 C395.44354675 164.67761612 394.52869507 164.66162872 393.58612061 164.64515686 C392.11263153 164.63711281 392.11263153 164.63711281 390.609375 164.62890625 C389.59079407 164.61987778 388.57221313 164.6108493 387.52276611 164.60154724 C385.36758359 164.58704592 383.21235705 164.5781583 381.05712891 164.57446289 C377.77560225 164.56259261 374.49597221 164.51342641 371.21484375 164.46289062 C369.11719664 164.4534229 367.01953802 164.44618954 364.921875 164.44140625 C363.46053131 164.41210777 363.46053131 164.41210777 361.96966553 164.38221741 C352.46837976 164.44448016 346.38790722 168.30298969 341 176 Z " fill="#5F26B9" transform="translate(258,277)"/>
<path d="M0 0 C0.95068359 -0.01224609 1.90136719 -0.02449219 2.88085938 -0.03710938 C11.64346611 -0.05547962 11.64346611 -0.05547962 15.6875 2.1875 C19.30232031 5.80232031 17.85002409 16.1406685 17.85546875 20.87109375 C17.86046135 22.39259789 17.86046135 22.39259789 17.86555481 23.94483948 C17.87059927 26.08211822 17.87296391 28.21940477 17.87280273 30.35668945 C17.87499057 33.61097263 17.89317661 36.86491725 17.91210938 40.11914062 C17.91504362 42.20312385 17.91702821 44.28710867 17.91796875 46.37109375 C17.92515427 47.33591171 17.93233978 48.30072968 17.93974304 49.29478455 C17.92084285 54.9328261 17.42419401 59.80592087 15.6875 65.1875 C12.18078705 68.59980144 8.40467052 68.57561032 3.73828125 68.59765625 C2.47564453 68.58025391 2.47564453 68.58025391 1.1875 68.5625 C-0.07513672 68.57990234 -0.07513672 68.57990234 -1.36328125 68.59765625 C-4.87269635 68.58107634 -7.89549181 68.30492073 -11.28125 67.3515625 C-16.60080577 61.68418962 -15.62053887 50.68232745 -15.61328125 43.296875 C-15.61970894 41.81359711 -15.61970894 41.81359711 -15.62626648 40.300354 C-15.6319625 38.22986614 -15.63254537 36.15935828 -15.62817383 34.08886719 C-15.62499375 30.93129569 -15.64860177 27.77464501 -15.67382812 24.6171875 C-15.67609969 22.59375117 -15.67680528 20.57031235 -15.67578125 18.546875 C-15.684991 17.61131775 -15.69420074 16.6757605 -15.70368958 15.71185303 C-15.66431582 10.11804267 -15.02404304 6.12058302 -12.3125 1.1875 C-8.58533309 -0.67608345 -4.1013931 0.00274708 0 0 Z " fill="#5923B6" transform="translate(383.3125,463.8125)"/>
<path d="M0 0 C1.59424805 -0.00386719 1.59424805 -0.00386719 3.22070312 -0.0078125 C4.33509766 -0.00007813 5.44949219 0.00765625 6.59765625 0.015625 C7.70818359 0.00789063 8.81871094 0.00015625 9.96289062 -0.0078125 C11.02701172 -0.00523437 12.09113281 -0.00265625 13.1875 0 C14.65304321 0.00338379 14.65304321 0.00338379 16.14819336 0.00683594 C18.66015625 0.265625 18.66015625 0.265625 21.66015625 2.265625 C23.08820602 8.37436152 22.82159292 14.68566717 22.828125 20.9296875 C22.8331176 22.59504044 22.8331176 22.59504044 22.83821106 24.29403687 C22.84325711 26.6322183 22.84562011 28.97040688 22.84545898 31.30859375 C22.84765313 34.88553634 22.86585458 38.46217408 22.88476562 42.0390625 C22.88769849 44.31510312 22.889684 46.59114519 22.890625 48.8671875 C22.89781052 49.93498444 22.90499603 51.00278137 22.91239929 52.10293579 C22.90932266 53.10102264 22.90624603 54.0991095 22.90307617 55.12744141 C22.90450119 56.00123444 22.90592621 56.87502747 22.90739441 57.77529907 C22.62651059 60.60452361 21.9148279 62.71970165 20.66015625 65.265625 C16.38479676 67.95391923 11.54749587 67.56322896 6.66015625 67.515625 C5.86609375 67.52335938 5.07203125 67.53109375 4.25390625 67.5390625 C-3.76677568 67.51232689 -3.76677568 67.51232689 -7.33984375 65.265625 C-9.09436373 61.72347907 -9.59180499 58.83992472 -9.59863281 54.91210938 C-9.60493713 53.86752563 -9.61124146 52.82294189 -9.61773682 51.7467041 C-9.61368835 50.6288855 -9.60963989 49.51106689 -9.60546875 48.359375 C-9.6073822 47.20191772 -9.60929565 46.04446045 -9.61126709 44.85192871 C-9.61262654 42.40763125 -9.60894686 39.96332651 -9.60058594 37.51904297 C-9.58988334 33.77945729 -9.60048966 30.04035201 -9.61328125 26.30078125 C-9.61195961 23.92447811 -9.60939713 21.54817526 -9.60546875 19.171875 C-9.60951721 18.0540564 -9.61356567 16.93623779 -9.61773682 15.7845459 C-9.6114325 14.73996216 -9.60512817 13.69537842 -9.59863281 12.61914062 C-9.59704163 11.7037854 -9.59545044 10.78843018 -9.59381104 9.84533691 C-8.93197531 3.12263831 -6.79508892 0.0157073 0 0 Z " fill="#5A24B6" transform="translate(629.33984375,464.734375)"/>
<path d="M0 0 C0.33 0 0.66 0 1 0 C0.99476318 1.02955811 0.98952637 2.05911621 0.98413086 3.11987305 C0.90393803 20.51764304 0.8344533 37.9196636 1.3125 55.3125 C1.33497803 56.45871826 1.35745605 57.60493652 1.38061523 58.78588867 C1.67170015 67.61282435 2.88551017 75.82003624 8.1875 83.125 C8.71730469 83.87007812 9.24710938 84.61515625 9.79296875 85.3828125 C10.19128906 85.91648437 10.58960938 86.45015625 11 87 C8.17578125 86.39453125 8.17578125 86.39453125 5 85 C3.35546875 82.13671875 3.35546875 82.13671875 2.1875 78.6875 C1.78917969 77.55699219 1.39085937 76.42648437 0.98046875 75.26171875 C-0.54670346 70.18128531 -1.12574497 65.70332177 -1.12939453 60.38964844 C-1.13254669 59.07188416 -1.13569885 57.75411987 -1.13894653 56.39642334 C-1.13715728 54.96740688 -1.13510646 53.53839073 -1.1328125 52.109375 C-1.13348637 50.63918034 -1.1344571 49.16898578 -1.13571167 47.6987915 C-1.13718286 44.62568088 -1.13505145 41.55259941 -1.13037109 38.47949219 C-1.12465401 34.53265967 -1.12796892 30.58589486 -1.13394356 26.63906479 C-1.13754767 23.60743697 -1.13641163 20.57582537 -1.13381577 17.54419708 C-1.13314712 16.08807619 -1.13397276 14.63195385 -1.13629532 13.17583466 C-1.1388215 11.14814785 -1.13429171 9.1204559 -1.12939453 7.09277344 C-1.12859894 5.93759216 -1.12780334 4.78241089 -1.12698364 3.59222412 C-1 1 -1 1 0 0 Z " fill="#4938AC" transform="translate(594,463)"/>
<path d="M0 0 C0.33 0 0.66 0 1 0 C1.92417268 5.47902374 2.15602219 10.76118943 2.125 16.3125 C2.12306641 17.1475708 2.12113281 17.9826416 2.11914062 18.84301758 C2.078663 24.61951154 1.75181306 30.26742543 1 36 C0.67 36 0.34 36 0 36 C-1.19473456 30.36767995 -1.14800107 24.85226623 -1.125 19.125 C-1.12886719 18.16980469 -1.13273437 17.21460938 -1.13671875 16.23046875 C-1.12916893 10.72665206 -0.81086382 5.44437139 0 0 Z " fill="#4A1FAE" transform="translate(437,333)"/>
<path d="M0 0 C7.92 0 15.84 0 24 0 C21.04254046 2.95745954 18.05167428 3.09522812 13.99609375 3.31640625 C13.25552734 3.35830078 12.51496094 3.40019531 11.75195312 3.44335938 C10.98818359 3.48267578 10.22441406 3.52199219 9.4375 3.5625 C8.66986328 3.60568359 7.90222656 3.64886719 7.11132812 3.69335938 C4.07051892 3.86037854 1.04590822 4 -2 4 C-1.34 2.68 -0.68 1.36 0 0 Z " fill="#5426B4" transform="translate(539,438)"/>
<path d="M0 0 C3.56140459 6.07870261 2.76991823 13.03486036 1.0546875 19.640625 C-1.24339375 26.20244189 -1.24339375 26.20244189 -3 29 C-5.67578125 29.86328125 -5.67578125 29.86328125 -8 30 C-7.36771484 29.00419922 -7.36771484 29.00419922 -6.72265625 27.98828125 C-6.17480469 27.10527344 -5.62695312 26.22226562 -5.0625 25.3125 C-4.24458984 24.00732422 -4.24458984 24.00732422 -3.41015625 22.67578125 C-0.81678578 17.75484283 -0.75681249 12.6576894 -0.4375 7.1875 C-0.37272461 6.14819336 -0.37272461 6.14819336 -0.30664062 5.08789062 C-0.20138547 3.39211314 -0.10027137 1.69607948 0 0 Z " fill="#5B3EB5" transform="translate(425,518)"/>
<path d="M0 0 C4.37859255 0.50522222 6.81651224 3.17827222 10 6 C9.01 6 8.02 6 7 6 C4.78882074 6.46903802 3.02678158 6.98660921 1 8 C0.53348793 10.12576782 0.53348793 10.12576782 0.375 12.5625 C0.30023438 13.38878906 0.22546875 14.21507812 0.1484375 15.06640625 C0.09945313 15.70449219 0.05046875 16.34257812 0 17 C-2.10275161 13.60014874 -2.12715391 11.3054 -1.6875 7.375 C-1.58824219 6.41335938 -1.48898437 5.45171875 -1.38671875 4.4609375 C-1 2 -1 2 0 0 Z " fill="#3812A7" transform="translate(439,314)"/>
<path d="M0 0 C0 5.08887285 -2.68218983 9.54267275 -5 14 C-5.66 14 -6.32 14 -7 14 C-8.46582355 16.14281033 -9.81123514 18.26706396 -11.125 20.5 C-11.49753906 21.12003906 -11.87007813 21.74007813 -12.25390625 22.37890625 C-13.17578953 23.91537838 -14.08873475 25.45720675 -15 27 C-15.33 26.34 -15.66 25.68 -16 25 C-14.74255398 22.58183458 -13.43647727 20.30903767 -12 18 C-11.59080322 17.33025146 -11.18160645 16.66050293 -10.76000977 15.97045898 C-7.38462362 10.49701941 -3.79786928 5.19001429 0 0 Z " fill="#240B99" transform="translate(138,388)"/>
<path d="M0 0 C8.56525309 3.58362313 15.12626019 13.03708989 21 20 C20.34 20.66 19.68 21.32 19 22 C18.62230469 21.56171875 18.24460937 21.1234375 17.85546875 20.671875 C13.54514196 15.70540948 9.12964084 10.84726786 4.64526367 6.03808594 C1.10840479 2.21680958 1.10840479 2.21680958 0 0 Z " fill="#331EA9" transform="translate(431,644)"/>
<path d="M0 0 C0.33 0.66 0.66 1.32 1 2 C1.639375 2.12375 2.27875 2.2475 2.9375 2.375 C5 3 5 3 6.12890625 5.0390625 C6.41636719 5.68617188 6.70382812 6.33328125 7 7 C5.24859857 6.54705135 3.49892656 6.08741252 1.75 5.625 C0.77546875 5.36976563 -0.1990625 5.11453125 -1.203125 4.8515625 C-3.65837303 4.10401491 -5.75617405 3.22876183 -8 2 C-5.36 1.34 -2.72 0.68 0 0 Z " fill="#6E41BF" transform="translate(352,593)"/>
<path d="M0 0 C0 3 0 3 -2.046875 5.12109375 C-2.93890625 5.88550781 -3.8309375 6.64992188 -4.75 7.4375 C-8.56889176 10.73183012 -8.56889176 10.73183012 -12.140625 14.28515625 C-14 16 -14 16 -17 16 C-15.71736307 12.15208922 -13.91033525 11.06795295 -10.75 8.5625 C-9.79609375 7.80066406 -8.8421875 7.03882813 -7.859375 6.25390625 C-6.91578125 5.51011719 -5.9721875 4.76632812 -5 4 C-3.33266688 2.66750017 -1.66577662 1.33444514 0 0 Z " fill="#3623A8" transform="translate(466,470)"/>
<path d="M0 0 C-0.99 1.485 -0.99 1.485 -2 3 C-4.7885289 3.22107787 -7.34653181 3.28107535 -10.125 3.1875 C-10.87910156 3.17396484 -11.63320313 3.16042969 -12.41015625 3.14648438 C-14.27374127 3.11109985 -16.13695978 3.05729167 -18 3 C-17.67 2.34 -17.34 1.68 -17 1 C-11.48971479 -0.27809679 -5.6232203 -0.10224037 0 0 Z " fill="#6547BB" transform="translate(666,553)"/>
<path d="M0 0 C5.51890034 0.75257732 5.51890034 0.75257732 8.1875 2.125 C10.15640365 3.33520912 10.15640365 3.33520912 13 2 C12.67 2.99 12.34 3.98 12 5 C6.76824163 5.38281159 3.62197306 4.21854707 -1 2 C-0.67 1.34 -0.34 0.68 0 0 Z " fill="#542BB2" transform="translate(206,511)"/>
<path d="M0 0 C0 0.66 0 1.32 0 2 C-2.06049855 2.81756238 -4.12348853 3.62884734 -6.1875 4.4375 C-7.33605469 4.88996094 -8.48460937 5.34242188 -9.66796875 5.80859375 C-12.47123233 6.81093301 -15.07112576 7.52012795 -18 8 C-18 7.34 -18 6.68 -18 6 C-15.37646482 4.99600476 -12.75132205 3.99665555 -10.125 3 C-9.37863281 2.71382813 -8.63226562 2.42765625 -7.86328125 2.1328125 C-2.2265625 0 -2.2265625 0 0 0 Z " fill="#472EAF" transform="translate(650,382)"/>
<path d="M0 0 C1.77275429 0.01172069 3.54527864 0.10955857 5.3125 0.25 C6.27800781 0.31703125 7.24351562 0.3840625 8.23828125 0.453125 C11.24414208 1.04834497 12.72757978 1.99206574 15 4 C8.23405981 4.11381955 1.71162938 3.88021369 -5 3 C-4.360625 2.690625 -3.72125 2.38125 -3.0625 2.0625 C-1.06389179 1.1654837 -1.06389179 1.1654837 0 0 Z " fill="#8455C9" transform="translate(705,586)"/>
<path d="M0 0 C4.87305969 4.29975855 7.8200442 9.37224317 11 15 C10.01 15.495 10.01 15.495 9 16 C7.49130977 13.90160347 5.99301643 11.79700219 4.5 9.6875 C4.07074219 9.09259766 3.64148438 8.49769531 3.19921875 7.88476562 C0 3.33984375 0 3.33984375 0 0 Z " fill="#4D38B0" transform="translate(474,694)"/>
<path d="M0 0 C0.66 0.33 1.32 0.66 2 1 C-1.3 3.97 -4.6 6.94 -8 10 C-8.33 8.68 -8.66 7.36 -9 6 C-3.30379747 1.25316456 -3.30379747 1.25316456 0 0 Z " fill="#3916AB" transform="translate(526,450)"/>
<path d="M0 0 C0.33 0 0.66 0 1 0 C1.33 4.95 1.66 9.9 2 15 C3.65 15 5.3 15 7 15 C7 15.33 7 15.66 7 16 C5.02 16.33 3.04 16.66 1 17 C-1.20927172 11.02197063 -0.93213141 6.26039609 0 0 Z " fill="#7D60C8" transform="translate(589,383)"/>
<path d="M0 0 C5.875 1.875 5.875 1.875 7 3 C7.04063832 4.66617115 7.042721 6.33388095 7 8 C5.8274869 7.04882866 4.66212985 6.08882991 3.5 5.125 C2.8503125 4.59132813 2.200625 4.05765625 1.53125 3.5078125 C1.0259375 3.01023437 0.520625 2.51265625 0 2 C0 1.34 0 0.68 0 0 Z M8 1 C8.33 1.66 8.66 2.32 9 3 C8.34 2.67 7.68 2.34 7 2 C7.33 1.67 7.66 1.34 8 1 Z " fill="#684ABC" transform="translate(246,536)"/>
<path d="M0 0 C1.60875 0.556875 1.60875 0.556875 3.25 1.125 C2.92 4.095 2.59 7.065 2.25 10.125 C1.92 10.125 1.59 10.125 1.25 10.125 C1.25 7.485 1.25 4.845 1.25 2.125 C-1.72 1.795 -4.69 1.465 -7.75 1.125 C-3.75 -0.875 -3.75 -0.875 0 0 Z " fill="#8E79CE" transform="translate(564.75,439.875)"/>
<path d="M0 0 C2.70931419 0.15481795 4.46584039 0.48172081 6.4453125 2.40234375 C7.67679642 3.89771708 8.8429837 5.4462924 10 7 C9.67 7.66 9.34 8.32 9 9 C6.95880212 7.38405168 4.95927063 5.7143618 3 4 C3 3.34 3 2.68 3 2 C2.01 1.67 1.02 1.34 0 1 C0 0.67 0 0.34 0 0 Z " fill="#3715A7" transform="translate(253,276)"/>
<path d="M0 0 C4.2742558 1.5830577 6.26531794 4.50568404 9 8 C5.47967572 8 4.5614657 7.29648649 2 5 C2 4.34 2 3.68 2 3 C1.34 3 0.68 3 0 3 C0 2.01 0 1.02 0 0 Z " fill="#6754BD" transform="translate(297,328)"/>
<path d="M0 0 C2.31 1.98 4.62 3.96 7 6 C3 7 3 7 0.8125 6.3125 C-1 5 -1 5 -1.75 2.875 C-1.8325 2.25625 -1.915 1.6375 -2 1 C-1.34 0.67 -0.68 0.34 0 0 Z " fill="#5E3FB8" transform="translate(349,544)"/>
<path d="M0 0 C-0.99 1.485 -0.99 1.485 -2 3 C-5.5 3.3125 -5.5 3.3125 -9 3 C-9.66 2.34 -10.32 1.68 -11 1 C-7.26562152 0.12132271 -3.83225427 -0.08912219 0 0 Z " fill="#3513A7" transform="translate(602,398)"/>
<path d="M0 0 C2.64752004 2.57784846 4.94432065 4.91648098 7 8 C6.01 8 5.02 8 4 8 C0 3.77142857 0 3.77142857 0 0 Z " fill="#5943B4" transform="translate(459,674)"/>
<path d="M0 0 C-2.63904371 1.41377341 -5.07120629 2.37240135 -8 3 C-8.33 2.01 -8.66 1.02 -9 0 C-5.93109813 -1.53445094 -3.29905734 -0.54984289 0 0 Z " fill="#6240B9" transform="translate(365,441)"/>
<path d="M0 0 C-0.33 0.66 -0.66 1.32 -1 2 C-3.875 2.125 -3.875 2.125 -7 2 C-7.66 1.34 -8.32 0.68 -9 0 C-5.93109813 -1.53445094 -3.29905734 -0.54984289 0 0 Z " fill="#4A25B0" transform="translate(192,505)"/>
<path d="M0 0 C0.99 0.33 1.98 0.66 3 1 C1.3813036 4.23739279 -1.84489543 5.42244771 -5 7 C-4.6189482 4.23737447 -4.16402868 3.15856106 -2.125 1.1875 C-1.42375 0.795625 -0.7225 0.40375 0 0 Z " fill="#4732AE" transform="translate(714,339)"/>
<path d="M0 0 C3.08089673 2.77280706 4.68775452 5.06326356 6 9 C5.01 9 4.02 9 3 9 C2.01 6.03 1.02 3.06 0 0 Z " fill="#2A0E98" transform="translate(886,390)"/>
<path d="M0 0 C2.31 0.33 4.62 0.66 7 1 C7.33 1.99 7.66 2.98 8 4 C5.36 3.34 2.72 2.68 0 2 C0 1.34 0 0.68 0 0 Z " fill="#5840B8" transform="translate(351,596)"/>
<path d="M0 0 C1.65 0 3.3 0 5 0 C3.515 1.485 3.515 1.485 2 3 C2.33 3.66 2.66 4.32 3 5 C1.68 5.33 0.36 5.66 -1 6 C-0.67 4.02 -0.34 2.04 0 0 Z " fill="#6D3CBD" transform="translate(792,520)"/>
<path d="M0 0 C0.99 0.33 1.98 0.66 3 1 C1.3813036 4.23739279 -1.84489543 5.42244771 -5 7 C-3.70700306 4.11562221 -2.34058637 2.12780579 0 0 Z " fill="#33139F" transform="translate(171,346)"/>
</svg>
