<?xml version="1.0" encoding="UTF-8"?>
<svg version="1.1" xmlns="http://www.w3.org/2000/svg" width="1024" height="1024">
<path d="M0 0 C4.43525471 0.44068108 7.81253186 1.66916414 11.75390625 3.703125 C12.84550049 4.26483398 13.93709473 4.82654297 15.06176758 5.40527344 C16.79463013 6.31841309 16.79463013 6.31841309 18.5625 7.25 C19.15759369 7.56134888 19.75268738 7.87269775 20.36581421 8.19348145 C55.38495737 26.54278374 86.39145649 50.77517492 115.34375 77.55859375 C117.49354393 79.53450729 119.66407944 81.46854944 121.875 83.375 C126.42284215 87.3074893 130.78990283 91.43614035 135.16552734 95.55810547 C135.74641113 96.10225098 136.32729492 96.64639648 136.92578125 97.20703125 C137.44567627 97.6966333 137.96557129 98.18623535 138.5012207 98.69067383 C142.58113835 102.25486968 146.14135846 102.4715885 151.3125 102.875 C205.05140461 107.73824929 262.41563882 117.39623853 311 142 C311.71381836 142.35239746 312.42763672 142.70479492 313.16308594 143.06787109 C322.99528663 147.97500455 330.86520738 153.81424483 338.59960938 161.60693359 C339.85090393 162.85168372 341.14931124 164.048655 342.453125 165.23828125 C357.62579295 179.32339782 366.64202441 200.07835734 374.3125 218.9375 C380.48429994 233.73905508 392.77720664 242.11926006 405.80126953 250.56787109 C409.78304703 253.16137618 413.73415781 255.80093413 417.6875 258.4375 C418.55503906 259.01564453 419.42257812 259.59378906 420.31640625 260.18945312 C435.94352717 270.61866417 451.53538699 281.11561267 466.9375 291.875 C467.5984668 292.33213379 468.25943359 292.78926758 468.94042969 293.26025391 C478.59203465 300.06153109 478.59203465 300.06153109 479.62890625 304.98828125 C479.40496146 316.19869415 477.82591132 328.19610564 472 338 C470.0625 339.58984375 470.0625 339.58984375 468 340.9375 C463.44882708 344.68454947 462.88775216 348.50189386 462.00292969 354.17089844 C459.54577427 369.83045007 450.33887573 385.99249632 437.5625 395.5 C432.50683108 398.89896511 427.12380925 401.56984006 421.62133789 404.16015625 C415.67971678 406.99026536 411.23992697 409.56378527 408.625 415.875 C405.2145877 423.03265544 401.02071538 426.40610575 393.6875 429.3125 C368.75743449 437.36423737 339.76946251 425.16147839 315.62182617 418.37646484 C293.25267358 412.11432281 269.39640341 407.33705297 247.84375 419.15625 C233.95761196 428.15935049 225.45343286 441.37168779 221.41796875 457.296875 C216.42715722 489.57389913 232.29683952 522.39668329 244.75 551.0625 C250.55567893 564.47879171 255.63559502 577.81343211 259.25 592 C259.48420654 592.91177002 259.71841309 593.82354004 259.9597168 594.76293945 C263.61193151 609.77905496 265.51133637 624.6051202 265.39111328 640.05224609 C265.37499842 642.50024056 265.39110419 644.94658521 265.41015625 647.39453125 C265.43166178 662.7188007 263.35502963 677.67532201 259.1875 692.4375 C258.93105713 693.35635986 258.67461426 694.27521973 258.41040039 695.22192383 C253.48623316 712.20362217 253.48623316 712.20362217 247.7890625 716.7734375 C244.27744033 718.31776434 241.20669971 718.48981512 237.4375 718.4375 C236.64230957 718.43065186 235.84711914 718.42380371 235.02783203 718.41674805 C183.89297008 717.17307815 136.6352828 702.39989418 91 680 C90.73802715 671.10747704 91.3960652 662.75003718 93 654 C102.01388889 650.48611111 102.01388889 650.48611111 106 650 C106.64453125 649.85433594 107.2890625 649.70867188 107.953125 649.55859375 C110.66330021 649.18428633 112.36202952 649.20528019 115 650 C119.72416579 654.03839979 123.37844601 658.90512754 127.16796875 663.80078125 C129.38234325 666.45897494 130.25441853 666.90270271 133.6640625 667.34765625 C138.15188418 666.87995586 140.75541329 665.00982085 144.375 662.4375 C145.35919922 661.75022827 145.35919922 661.75022827 146.36328125 661.04907227 C147.66185152 660.13219809 148.95470298 659.20716137 150.24121094 658.2734375 C151.73944983 657.18864932 153.26194603 656.13749347 154.7890625 655.09375 C158.61726168 652.23819982 158.61726168 652.23819982 160.4609375 647.9921875 C160.22529405 642.01541282 157.17593159 636.98922564 154.27734375 631.89453125 C152.77570181 628.49172796 152.43282913 626.68196168 153 623 C154.3140103 620.37678181 155.96615277 618.05769073 157.6875 615.6875 C158.61080713 614.36779414 159.5313987 613.0461841 160.44921875 611.72265625 C161.1131665 610.76963623 161.1131665 610.76963623 161.79052734 609.79736328 C163.78422649 606.83458308 165.44355304 603.71743632 167.0625 600.5390625 C168 599 168 599 170 598 C171.43769559 597.86045631 172.88084712 597.77460137 174.32421875 597.71875 C175.18853516 597.68136719 176.05285156 597.64398437 176.94335938 597.60546875 C177.84892578 597.57066406 178.75449219 597.53585937 179.6875 597.5 C185.52657809 597.27068348 191.22957498 596.94726539 197 596 C199.76652737 584.74249555 201.1948068 574.58018214 201 563 C194.67129183 560.36770545 188.35307434 558.11470091 181.76171875 556.22265625 C178.2490493 554.66754233 176.41052456 552.99351592 174 550 C172.7421875 546.51171875 172.7421875 546.51171875 171.875 542.6875 C170.88412757 538.50162121 169.90233713 534.42163999 168.25 530.4375 C166.92514165 526.79413953 166.50854752 524.82765871 167 521 C168.69604324 518.7278869 170.2566947 516.90290917 172.25 514.9375 C173.235775 513.9271453 174.22017026 512.91544244 175.203125 511.90234375 C175.67814453 511.41620605 176.15316406 510.93006836 176.64257812 510.42919922 C179.47034628 507.45190519 181.69599834 504.91200497 183 501 C178.77940301 491.34048936 168.78176101 481.08782113 161 474 C158.65748161 473.29943484 158.65748161 473.29943484 156 474 C153.61713472 475.72512523 151.53174981 477.40536547 149.375 479.375 C140.94391502 486.85663847 140.94391502 486.85663847 137.40234375 487.39453125 C132.59683395 486.83729073 128.84915249 484.84925986 124.5625 482.6875 C122.918523 481.87777998 121.27400019 481.06916709 119.62890625 480.26171875 C118.84620361 479.87081055 118.06350098 479.47990234 117.25708008 479.07714844 C115.19215922 478.09170433 113.11892433 477.2531644 110.984375 476.43359375 C108 475 108 475 106.6875 471.375 C106.3055769 468.9168779 106.04794582 466.45636908 105.78808594 463.98291016 C105.6300879 462.48457312 105.46927987 460.98653018 105.3059082 459.48876953 C105.14572897 457.97437693 105.00061096 456.45830283 104.87182617 454.94091797 C104.45690379 450.7304369 103.99893804 448.03659027 101 445 C98.66055989 444.41796863 98.66055989 444.41796863 96.02734375 444.5390625 C95.04443359 444.54292969 94.06152344 444.54679687 93.04882812 444.55078125 C92.02208984 444.57527344 90.99535156 444.59976562 89.9375 444.625 C88.93783203 444.62628906 87.93816406 444.62757813 86.90820312 444.62890625 C80.55999723 444.70315427 74.07276886 444.98289656 68 447 C66.702641 449.594718 66.68425346 451.76785439 66.46484375 454.6640625 C66.33432617 456.34628906 66.33432617 456.34628906 66.20117188 458.0625 C66.0706543 459.8259375 66.0706543 459.8259375 65.9375 461.625 C65.84662109 462.80835938 65.75574219 463.99171875 65.66210938 465.2109375 C65.43767767 468.14036185 65.21714035 471.07002763 65 474 C58.764125 476.78273581 52.52184516 479.54920543 46.25 482.25 C45.42628906 482.61351562 44.60257813 482.97703125 43.75390625 483.3515625 C35.50732594 486.88391413 35.50732594 486.88391413 32 486 C28.43001126 483.7140319 25.22919386 480.96734281 21.97070312 478.265625 C17.78223649 474.93047227 17.78223649 474.93047227 12.703125 473.44921875 C9.71942722 474.05716873 8.70714353 474.58410779 6.6875 476.8125 C5.81544922 477.76576172 5.81544922 477.76576172 4.92578125 478.73828125 C1.20883893 483.10361513 -2.4368876 487.50795699 -6 492 C-6.57878906 492.67675781 -7.15757812 493.35351562 -7.75390625 494.05078125 C-9.98417664 496.79152224 -11.04136994 498.35187096 -10.8125 501.9375 C-7.85293018 506.93815246 -3.54842144 510.61829772 0.671875 514.5625 C2.0625 516 2.0625 516 4 519 C3.68775333 524.78574717 2.28318102 529.59774455 0.125 534.9375 C-1.66761351 539.38530319 -3.11795601 543.44528429 -3.9375 548.1875 C-4.58984375 550.2421875 -4.58984375 550.2421875 -6 552 C-10.22992854 554.03839253 -14.52819915 555.29867293 -19.05957031 556.48681641 C-21.86541117 557.22887447 -24.62088383 558.0855756 -27.375 559 C-28.24898438 559.268125 -29.12296875 559.53625 -30.0234375 559.8125 C-32.2197856 560.82810958 -32.2197856 560.82810958 -32.64477539 563.2019043 C-33.02960496 566.2331976 -32.92545942 568.91384782 -32.66015625 571.95703125 C-32.5199707 573.62475586 -32.5199707 573.62475586 -32.37695312 575.32617188 C-32.27318359 576.47666016 -32.16941406 577.62714844 -32.0625 578.8125 C-31.96259766 579.98232422 -31.86269531 581.15214844 -31.75976562 582.35742188 C-31.51278309 585.2388848 -31.25931311 588.11962492 -31 591 C-35.76759439 589.28922205 -38.41495919 586.82988516 -41.625 583 C-42.40496338 582.07392944 -42.40496338 582.07392944 -43.20068359 581.12915039 C-64.31506453 555.33583287 -75.88624152 522.37566869 -82 490 C-82.24556641 488.76999268 -82.24556641 488.76999268 -82.49609375 487.51513672 C-94.37855599 425.75824875 -78.53370037 363.06914267 -44.3125 311.375 C-43.54559166 310.24732069 -42.77677027 309.120909 -42 308 C-58.02559266 313.46653969 -72.88925729 321.26953854 -86 332 C-87.45986328 333.15822266 -87.45986328 333.15822266 -88.94921875 334.33984375 C-91.31036927 336.21361592 -93.65994751 338.10000162 -96 340 C-97.07062209 336.72280605 -96.90628953 334.57070989 -96.1015625 331.23828125 C-95.8744458 330.29726563 -95.6473291 329.35625 -95.41333008 328.38671875 C-95.15318115 327.37222656 -94.89303223 326.35773438 -94.625 325.3125 C-94.21834106 323.71921875 -94.21834106 323.71921875 -93.8034668 322.09375 C-81.8840987 276.94935055 -58.95818729 233.03106288 -28 198 C-27.53948242 197.47631836 -27.07896484 196.95263672 -26.60449219 196.41308594 C-18.72076728 187.49072033 -10.15704009 179.59783269 -1 172 C-1.24645264 171.30777344 -1.49290527 170.61554688 -1.74682617 169.90234375 C-13.2924714 137.18114991 -18.85911541 104.73814488 -18 70 C-17.98211426 69.26491211 -17.96422852 68.52982422 -17.94580078 67.77246094 C-17.35936436 46.68643322 -16.01101023 16.01101023 0 0 Z M28 64 C18.33651786 92.99044642 31.64718286 134.06701738 44.4921875 160.09375 C49.07642357 169.16884441 53.74826217 177.74826217 61 185 C66.15695818 184.85568214 70.28340541 181.60806913 74.5 178.9375 C75.28938965 178.44596436 76.0787793 177.95442871 76.89208984 177.44799805 C78.495954 176.44903185 80.09802037 175.44717326 81.69824219 174.44238281 C84.99380867 172.37723572 88.3093911 170.34523923 91.625 168.3125 C93.41685046 167.20863163 95.20859639 166.10459339 97 165 C92.2788464 130.03275664 79.03415503 98.04423905 50.42773438 75.88696289 C40.01329446 67.68947146 40.01329446 67.68947146 28 64 Z M246 215 C248.29009804 219.73066727 251.44106674 223.15661669 255 227 C255.73476563 227.80050781 256.46953125 228.60101563 257.2265625 229.42578125 C276.59007538 249.70385745 300.77559313 254.9189327 327.25 260.4375 C328.07709473 260.61361816 328.90418945 260.78973633 329.75634766 260.97119141 C333.52482106 261.72171597 336.32350163 262.12166958 340 261 C330.19544701 245.69207394 317.87383046 227.5758606 302 218 C301.12021484 217.46632813 301.12021484 217.46632813 300.22265625 216.921875 C294.04865244 214.36112825 287.03272912 214.86663533 280.47265625 214.90234375 C279.48373886 214.9037587 278.49482147 214.90517365 277.47593689 214.90663147 C274.33809296 214.91219912 271.20032213 214.9247456 268.0625 214.9375 C265.92643333 214.94251918 263.79036553 214.94708136 261.65429688 214.95117188 C256.43617325 214.96215794 251.21809185 214.97886364 246 215 Z " fill="#F07F0F" transform="translate(313,140)"/>
<path d="M0 0 C14.01955218 0.3115456 28.85969634 15.82561443 38.7265625 24.91015625 C40.84630212 26.85871415 43.00483469 28.74757333 45.1875 30.625 C51.66673816 36.2845755 57.41986718 42.46359442 63 49 C63.763125 49.86238281 64.52625 50.72476563 65.3125 51.61328125 C74.24081965 61.92270035 81.51248927 73.08484741 87.0625 85.5625 C87.34955811 86.20477539 87.63661621 86.84705078 87.93237305 87.50878906 C89.71048032 91.7164819 90.53104416 95.50149764 91 100 C85.42752956 99.01858593 79.87095468 97.99233342 74.3359375 96.81640625 C52.38117463 92.16718396 30.54429753 89.83293987 8.16601562 88.64575195 C1.73947984 88.30355532 -4.62850605 87.93481378 -11 87 C-11.90207487 81.59699897 -12.16045467 76.38288734 -12.16796875 70.91015625 C-12.17129715 70.04796982 -12.17462555 69.18578339 -12.17805481 68.29747009 C-12.18309786 66.47623219 -12.18546395 64.65498512 -12.18530273 62.83374023 C-12.18746877 60.1018873 -12.20559581 57.37045245 -12.22460938 54.63867188 C-12.28771962 35.57851051 -11.48735382 16.08229534 0 0 Z " fill="#EF7E10" transform="translate(452,139)"/>
<path d="M0 0 C9.09418152 6.65912745 15.28933019 15.07808639 18 26.0625 C18.40563166 29.20219443 18.47860082 32.27435497 18.4375 35.4375 C18.42920166 36.26749512 18.42090332 37.09749023 18.41235352 37.95263672 C18.08278905 49.9647337 13.64816581 58.3240876 5.2734375 66.8125 C-4.24140664 75.50185538 -15.24361214 77.67017721 -27.765625 77.375 C-39.00720783 76.77544892 -48.56302617 70.88310099 -56.25 62.9375 C-64.84020274 52.83843929 -66.92819445 40.90924923 -66 28.0625 C-63.83917849 16.79044382 -57.77589859 7.69380268 -48.8125 0.625 C-33.76165121 -9.49898254 -15.32365431 -9.83458411 0 0 Z " fill="#F07E0F" transform="translate(422,666.9375)"/>
<path d="M0 0 C0.97735384 3.0723577 0.96581595 4.93921863 0.1015625 8.02734375 C-1.23908583 13.52400189 -1.44591169 18.92494919 -1.625 24.5625 C-1.66367187 25.57119141 -1.70234375 26.57988281 -1.7421875 27.61914062 C-1.83546203 30.0792564 -1.92125516 32.53938366 -2 35 C-4.78850501 30.81724249 -4.34148822 27.35657763 -4.3125 22.4375 C-4.31048584 21.53596191 -4.30847168 20.63442383 -4.30639648 19.70556641 C-4.19869178 12.56867883 -3.21165843 6.42331686 0 0 Z " fill="#F07B26" transform="translate(535,587)"/>
<path d="M0 0 C0.66 0 1.32 0 2 0 C2.66 0.66 3.32 1.32 4 2 C6.10820797 1.6814823 6.10820797 1.6814823 8 1 C8 2.65 8 4.3 8 6 C8.66 6 9.32 6 10 6 C10 7.32 10 8.64 10 10 C6.4628562 9.43867066 5.00738321 8.30442253 2.75 5.5625 C1.96882813 4.63630859 1.96882813 4.63630859 1.171875 3.69140625 C0 2 0 2 0 0 Z " fill="#EF6909" transform="translate(270,719)"/>
<path d="M0 0 C3.97690895 0.52609334 5.560878 2.33402369 8.125 5.3125 C9.14980469 6.48232422 9.14980469 6.48232422 10.1953125 7.67578125 C11.79467111 9.73556128 12.94628269 11.62642028 14 14 C13.01 14 12.02 14 11 14 C9.0625 11.953125 9.0625 11.953125 7 9.25 C6.319375 8.36828125 5.63875 7.4865625 4.9375 6.578125 C4.298125 5.72734375 3.65875 4.8765625 3 4 C2.4225 3.23171875 1.845 2.4634375 1.25 1.671875 C0.8375 1.12015625 0.425 0.5684375 0 0 Z " fill="#F18339" transform="translate(632,374)"/>
<path d="M0 0 C0 4.56915632 -0.31683055 6.22924472 -3.4375 9.75 C-6 12 -6 12 -8 12 C-7.84595887 6.91664275 -4.97931568 4.64245282 -1.49609375 1.35546875 C-1.00238281 0.90816406 -0.50867188 0.46085938 0 0 Z " fill="#F28F3B" transform="translate(492,648)"/>
<path d="M0 0 C0.66 0 1.32 0 2 0 C2 0.66 2 1.32 2 2 C2.87205078 2.37318359 2.87205078 2.37318359 3.76171875 2.75390625 C6.31739197 4.17669815 7.87821677 5.75074191 9.8125 7.9375 C10.43769531 8.62714844 11.06289063 9.31679687 11.70703125 10.02734375 C12.34705078 11.00380859 12.34705078 11.00380859 13 12 C12.67 12.99 12.34 13.98 12 15 C10.18159615 13.06775868 8.37025532 11.12966092 6.5625 9.1875 C6.04623047 8.64029297 5.52996094 8.09308594 4.99804688 7.52929688 C2.68923395 5.03940058 1.08641486 3.25924458 0 0 Z " fill="#ED7A2D" transform="translate(370,220)"/>
<path d="M0 0 C0.43570313 0.37511719 0.87140625 0.75023437 1.3203125 1.13671875 C5.18607599 4.45859777 9.07657648 7.74642927 13 11 C12.01 11.33 11.02 11.66 10 12 C8.32448647 10.57282151 6.65980691 9.13291518 5 7.6875 C3.6078125 6.48673828 3.6078125 6.48673828 2.1875 5.26171875 C0 3 0 3 0 0 Z " fill="#F2863F" transform="translate(569,368)"/>
<path d="M0 0 C0.33 0.99 0.66 1.98 1 3 C1.99 3.33 2.98 3.66 4 4 C4 5.32 4 6.64 4 8 C1.36 7.67 -1.28 7.34 -4 7 C-4 6.34 -4 5.68 -4 5 C-3.01 5 -2.02 5 -1 5 C-0.67 3.35 -0.34 1.7 0 0 Z " fill="#EE7518" transform="translate(539,231)"/>
<path d="M0 0 C3.28788824 3.11016455 5.83735988 6.01618925 8 10 C7.01 10.495 7.01 10.495 6 11 C3.5625 9.4375 3.5625 9.4375 1 7 C0.1875 3.25 0.1875 3.25 0 0 Z " fill="#F1802D" transform="translate(433,796)"/>
<path d="M0 0 C1.29917911 4.17395843 0.47182532 6.894382 -1 11 C-1.99 11.495 -1.99 11.495 -3 12 C-3.66 12.99 -4.32 13.98 -5 15 C-5.33 14.34 -5.66 13.68 -6 13 C-5.10333658 10.75689987 -4.10853317 8.55245679 -3.0625 6.375 C-2.49660156 5.18648438 -1.93070313 3.99796875 -1.34765625 2.7734375 C-0.90292969 1.85820312 -0.45820313 0.94296875 0 0 Z " fill="#F07A1F" transform="translate(252,479)"/>
<path d="M0 0 C5.40489519 1.52012677 8.98492628 5.27385218 13 9 C11.68 9.33 10.36 9.66 9 10 C8.7525 9.38125 8.505 8.7625 8.25 8.125 C6.75710375 5.58707638 5.59572059 5.2585312 3 4 C1.25 1.875 1.25 1.875 0 0 Z " fill="#F18135" transform="translate(442,232)"/>
<path d="M0 0 C1.79206547 0.14084796 3.58364917 0.28783701 5.375 0.4375 C6.87160156 0.55931641 6.87160156 0.55931641 8.3984375 0.68359375 C11 1 11 1 13 2 C12.67 2.99 12.34 3.98 12 5 C10.56068883 4.54738642 9.12361001 4.08767021 7.6875 3.625 C6.88699219 3.36976563 6.08648437 3.11453125 5.26171875 2.8515625 C3 2 3 2 0 0 Z " fill="#F0802E" transform="translate(425,616)"/>
<path d="M0 0 C7.48291572 6.15034169 7.48291572 6.15034169 10 10 C7 10 7 10 5.17578125 8.3203125 C4.56089844 7.59585938 3.94601562 6.87140625 3.3125 6.125 C2.68988281 5.40570313 2.06726563 4.68640625 1.42578125 3.9453125 C0 2 0 2 0 0 Z " fill="#F37C3B" transform="translate(495,168)"/>
<path d="M0 0 C0.6875 1.8125 0.6875 1.8125 1 4 C-0.1875 5.3125 -0.1875 5.3125 -2 7 C-3.4344458 9.28486723 -4.70401273 11.63147154 -6 14 C-6.66 13.67 -7.32 13.34 -8 13 C-6.85605098 11.01974361 -5.70978896 9.04082322 -4.5625 7.0625 C-3.92441406 5.96035156 -3.28632813 4.85820312 -2.62890625 3.72265625 C-1 1 -1 1 0 0 Z " fill="#EE660D" transform="translate(257,377)"/>
<path d="M0 0 C1.98 0.495 1.98 0.495 4 1 C3.75 3.375 3.75 3.375 3 6 C0.9375 7.3125 0.9375 7.3125 -1 8 C-0.67 5.36 -0.34 2.72 0 0 Z " fill="#F07A25" transform="translate(217,472)"/>
<path d="M0 0 C0.33 0 0.66 0 1 0 C1.33 4.62 1.66 9.24 2 14 C1.01 13.67 0.02 13.34 -1 13 C-1.07654536 8.48382401 -1.10228696 4.40914783 0 0 Z " fill="#F08035" transform="translate(280,717)"/>
<path d="M0 0 C-2.6860286 1.79068573 -4.6626589 2.66055791 -7.6875 3.625 C-8.49574219 3.88539063 -9.30398438 4.14578125 -10.13671875 4.4140625 C-10.75160156 4.60742188 -11.36648438 4.80078125 -12 5 C-11 2 -11 2 -8.8125 0.8125 C-5.74609689 -0.07334979 -3.17561845 -0.14770318 0 0 Z " fill="#F1832A" transform="translate(372,616)"/>
<path d="M0 0 C2.5625 2.0625 2.5625 2.0625 5 5 C4.8125 8.8125 4.8125 8.8125 4 12 C3.67 12 3.34 12 3 12 C2.54427083 10.01432292 2.08854167 8.02864583 1.6328125 6.04296875 C1.01992277 3.72257026 1.01992277 3.72257026 -1 1 C-0.67 0.67 -0.34 0.34 0 0 Z " fill="#F4954D" transform="translate(415,583)"/>
<path d="M0 0 C-2.6860286 1.79068573 -4.6626589 2.66055791 -7.6875 3.625 C-8.49574219 3.88539063 -9.30398438 4.14578125 -10.13671875 4.4140625 C-10.75160156 4.60742188 -11.36648438 4.80078125 -12 5 C-12 4.34 -12 3.68 -12 3 C-4.71428571 -0.42857143 -4.71428571 -0.42857143 0 0 Z " fill="#F28124" transform="translate(270,447)"/>
<path d="M0 0 C4.8 3.32307692 4.8 3.32307692 5.8125 6.75 C5.874375 7.4925 5.93625 8.235 6 9 C5.34 9 4.68 9 4 9 C0 3.70588235 0 3.70588235 0 0 Z " fill="#F28741" transform="translate(492,632)"/>
<path d="M0 0 C0.66 0 1.32 0 2 0 C4.5393228 3.41831915 5.3636198 5.75776898 5 10 C0 3.40909091 0 3.40909091 0 0 Z " fill="#F28B45" transform="translate(390,244)"/>
<path d="M0 0 C0.66 0 1.32 0 2 0 C4.6875 2.8125 4.6875 2.8125 7 6 C6.67 6.99 6.34 7.98 6 9 C4.99406757 7.8803014 3.9954151 6.7540588 3 5.625 C2.443125 4.99851562 1.88625 4.37203125 1.3125 3.7265625 C0 2 0 2 0 0 Z " fill="#F0701D" transform="translate(485,624)"/>
<path d="M0 0 C2.5 1.125 2.5 1.125 5 3 C5.3125 6.1875 5.3125 6.1875 5 9 C0.57142857 3.85714286 0.57142857 3.85714286 0 0 Z " fill="#F28431" transform="translate(646,389)"/>
<path d="M0 0 C0.66 0.33 1.32 0.66 2 1 C-1.465 3.97 -1.465 3.97 -5 7 C-5.66 6.67 -6.32 6.34 -7 6 C-4.87944386 2.8191658 -3.36949443 1.68474722 0 0 Z " fill="#EF6D16" transform="translate(474,791)"/>
<path d="M0 0 C4 4.625 4 4.625 4 8 C2.35 6.35 0.7 4.7 -1 3 C-0.67 2.01 -0.34 1.02 0 0 Z " fill="#F4914E" transform="translate(301,641)"/>
<path d="M0 0 C1 3 1 3 0.22265625 4.82421875 C-0.8515625 6.54947917 -1.92578125 8.27473958 -3 10 C-3.75 8.375 -3.75 8.375 -4 6 C-2.0625 2.75 -2.0625 2.75 0 0 Z " fill="#F38842" transform="translate(542,574)"/>
<path d="M0 0 C3.63 0.66 7.26 1.32 11 2 C6.82091936 4.08954032 6.19589427 4.16552619 2 3 C2 2.34 2 1.68 2 1 C1.34 0.67 0.68 0.34 0 0 Z " fill="#F4A464" transform="translate(613,394)"/>
<path d="M0 0 C0.66 0 1.32 0 2 0 C3.06775224 1.96466413 4.06553465 3.96855359 5 6 C4.67 6.66 4.34 7.32 4 8 C1.10067643 5.60490662 0.49831724 3.68754757 0 0 Z " fill="#F39757" transform="translate(352,291)"/>
<path d="M0 0 C1.89213369 2.38573379 3.02391783 4.07175348 4 7 C3.34 7.66 2.68 8.32 2 9 C0.4375 6.1875 0.4375 6.1875 -1 3 C-0.67 2.01 -0.34 1.02 0 0 Z " fill="#F49349" transform="translate(396,253)"/>
<path d="M0 0 C2.31 1.98 4.62 3.96 7 6 C6.34 6.66 5.68 7.32 5 8 C0 2.25 0 2.25 0 0 Z " fill="#F28543" transform="translate(433,222)"/>
<path d="M0 0 C0.66 0 1.32 0 2 0 C1.71125 0.556875 1.4225 1.11375 1.125 1.6875 C-0.0413253 4.08494645 -1.0339881 6.51596939 -2 9 C-2.33 9 -2.66 9 -3 9 C-3.25532751 5.93606987 -3.21861333 4.36766788 -1.625 1.6875 C-0.820625 0.8521875 -0.820625 0.8521875 0 0 Z " fill="#F17D37" transform="translate(724,547)"/>
</svg>
