<?xml version="1.0" encoding="UTF-8"?>
<svg version="1.1" xmlns="http://www.w3.org/2000/svg" width="1024" height="1024">
<path d="M0 0 C1.11341766 -0.00137466 2.22683533 -0.00274933 3.37399292 -0.00416565 C4.60109985 -0.00057037 5.82820679 0.0030249 7.09249878 0.00672913 C9.02414383 0.00651009 9.02414383 0.00651009 10.99481201 0.00628662 C14.53178473 0.00599902 18.06872371 0.01188969 21.60568857 0.01886058 C25.29992916 0.02510036 28.99417048 0.02569841 32.68841553 0.02688599 C39.68655154 0.02999745 46.68467198 0.03820837 53.68280113 0.04823548 C61.64883648 0.05940233 69.61487256 0.06490851 77.58091378 0.06993091 C93.97003848 0.08039112 110.3591475 0.09798701 126.7482605 0.12025452 C126.7482605 1.11025452 126.7482605 2.10025452 126.7482605 3.12025452 C127.4082605 3.12025452 128.0682605 3.12025452 128.7482605 3.12025452 C128.4182605 3.78025452 128.0882605 4.44025452 127.7482605 5.12025452 C127.63058578 6.56973381 127.57136782 8.02419448 127.54293823 9.47816467 C127.51266541 10.84823669 127.51266541 10.84823669 127.48178101 12.24598694 C127.46530518 13.20738586 127.44882935 14.16878479 127.43185425 15.15931702 C127.40387756 16.48322449 127.40387756 16.48322449 127.37533569 17.83387756 C127.30692784 21.13756599 127.24684953 24.44142265 127.1857605 27.74525452 C127.0413855 35.12900452 126.8970105 42.51275452 126.7482605 50.12025452 C143.9082605 50.12025452 161.0682605 50.12025452 178.7482605 50.12025452 C180.06683598 52.75740548 179.86817754 54.71858091 179.86178589 57.67152405 C179.86171036 58.8325766 179.86163483 59.99362915 179.86155701 61.18986511 C179.85639572 62.44822174 179.85123444 63.70657837 179.84591675 65.00306702 C179.84379433 66.92987808 179.84379433 66.92987808 179.84162903 68.89561462 C179.83780961 72.31182293 179.82798423 75.72798878 179.81692505 79.1441803 C179.80669857 82.62968878 179.80212875 86.11520411 179.79708862 89.60072327 C179.78636145 96.44058447 179.76929192 103.28041745 179.7482605 110.12025452 C180.47824753 109.95570267 181.20823456 109.79115082 181.96034241 109.62161255 C184.53274785 109.15901068 186.75171875 109.03100704 189.35494995 109.098526 C190.24766602 109.11894958 191.14038208 109.13937317 192.06015015 109.16041565 C192.98460937 109.18712341 193.9090686 109.21383118 194.86154175 109.24134827 C196.15143005 109.27234619 196.15143005 109.27234619 197.46737671 109.30397034 C200.66532705 109.38245716 203.86303246 109.47068002 207.0607605 109.55775452 C214.2176355 109.74337952 221.3745105 109.92900452 228.7482605 110.12025452 C228.7482605 127.28025452 228.7482605 144.44025452 228.7482605 162.12025452 C243.46781602 162.04107954 243.46781602 162.04107954 258.18722534 161.94007874 C260.02788055 161.93423939 261.86853832 161.92914252 263.709198 161.92494202 C264.67059692 161.91471008 265.63199585 161.90447815 266.62252808 161.89393616 C267.53590942 161.89369446 268.44929077 161.89345276 269.39035034 161.89320374 C270.18532928 161.88876251 270.98030823 161.88432129 271.79937744 161.87974548 C273.7482605 162.12025452 273.7482605 162.12025452 275.7482605 164.12025452 C275.99435616 166.09987831 275.99435616 166.09987831 275.98876953 168.57475281 C275.99289352 169.97983345 275.99289352 169.97983345 275.99710083 171.41329956 C275.98991028 172.44404099 275.98271973 173.47478241 275.97531128 174.53675842 C275.97560333 175.61969681 275.97589539 176.70263519 275.97619629 177.81838989 C275.97479878 181.41127939 275.95921767 185.00396358 275.943573 188.59681702 C275.93984437 191.08260484 275.93699669 193.56839414 275.93499756 196.05418396 C275.92813176 201.93674537 275.91235597 207.81923053 275.89229858 213.70176065 C275.86777036 221.0547871 275.85701304 228.40782265 275.84591675 235.76087952 C275.82444581 248.88070888 275.79067818 262.00047702 275.7482605 275.12025452 C273.99643806 275.28554524 272.24445279 275.44911081 270.49240112 275.61195374 C269.51678223 275.7032254 268.54116333 275.79449707 267.53598022 275.88853455 C254.98805185 276.93153954 242.26028484 275.77878211 229.7482605 275.12025452 C229.7482605 291.95025452 229.7482605 308.78025452 229.7482605 326.12025452 C216.2482605 327.24525452 216.2482605 327.24525452 211.13357162 327.24330235 C209.9636419 327.24529339 208.79371217 327.24728444 207.58833003 327.24933583 C206.34316214 327.24642298 205.09799425 327.24351014 203.81509399 327.24050903 C202.44767781 327.24094612 201.0802617 327.24182355 199.71284604 327.2430982 C195.98882953 327.24531618 192.26484222 327.24135917 188.54082942 327.23632014 C184.51237288 327.23197675 180.48391782 327.23346481 176.45545959 327.23422241 C169.48698287 327.23474519 162.51851556 327.23162413 155.5500412 327.22598457 C145.47496207 327.21783619 135.39988747 327.21525094 125.32480541 327.21399658 C108.97620844 327.2118113 92.62761647 327.20516543 76.27902222 327.19569397 C60.40369695 327.18650629 44.52837305 327.17943209 28.65304565 327.17518616 C27.67347679 327.17492343 26.69390793 327.17466071 25.68465516 327.17439003 C20.77014334 327.17308493 15.85563151 327.17182124 10.94111967 327.17057812 C-29.78983706 327.16022182 -70.52078756 327.14234136 -111.2517395 327.12025452 C-111.2517395 309.96025452 -111.2517395 292.80025452 -111.2517395 275.12025452 C-126.1017395 275.12025452 -140.9517395 275.12025452 -156.2517395 275.12025452 C-157.19175247 272.30021563 -157.37733262 270.59042186 -157.37872314 267.67285156 C-157.38154297 266.76288925 -157.38436279 265.85292694 -157.38726807 264.91539001 C-157.38524384 263.91943817 -157.3832196 262.92348633 -157.38113403 261.89735413 C-157.38376251 260.32143745 -157.38376251 260.32143745 -157.38644409 258.71368408 C-157.39085333 255.23330545 -157.38792806 251.75297743 -157.384552 248.27259827 C-157.38522526 245.86029043 -157.38619546 243.44798265 -157.38745117 241.03567505 C-157.38892684 235.97751724 -157.38677756 230.91937707 -157.3821106 225.86122131 C-157.37641035 219.36527828 -157.37969503 212.86937654 -157.38568306 206.37343502 C-157.38928958 201.39190355 -157.38814972 196.41038193 -157.38555527 191.42885017 C-157.38488641 189.03295957 -157.385713 186.63706808 -157.38803482 184.24117851 C-157.39056314 180.89868154 -157.38671831 177.55625228 -157.38113403 174.21376038 C-157.38315826 173.2157843 -157.3851825 172.21780823 -157.38726807 171.18959045 C-157.38303833 169.82887672 -157.38303833 169.82887672 -157.37872314 168.44067383 C-157.37834612 167.64998473 -157.37796909 166.85929564 -157.37758064 166.04464626 C-157.2517395 164.12025452 -157.2517395 164.12025452 -156.2517395 162.12025452 C-141.7317395 162.12025452 -127.2117395 162.12025452 -112.2517395 162.12025452 C-111.9217395 144.30025452 -111.5917395 126.48025452 -111.2517395 108.12025452 C-110.5917395 108.12025452 -109.9317395 108.12025452 -109.2517395 108.12025452 C-109.2517395 108.78025452 -109.2517395 109.44025452 -109.2517395 110.12025452 C-107.797677 110.01197327 -107.797677 110.01197327 -106.3142395 109.90150452 C-90.51549999 108.78241054 -75.12925414 109.23817037 -59.2517395 110.12025452 C-59.2517395 89.99025452 -59.2517395 69.86025452 -59.2517395 49.12025452 C-42.0917395 49.45025452 -24.9317395 49.78025452 -7.2517395 50.12025452 C-7.5817395 42.86025452 -7.9117395 35.60025452 -8.2517395 28.12025452 C-8.17681578 23.13661863 -8.06677954 18.21477795 -7.8142395 13.24525452 C-7.76203247 12.05673889 -7.70982544 10.86822327 -7.65603638 9.64369202 C-7.52999447 6.80201996 -7.39537681 3.96108128 -7.2517395 1.12025452 C-4.68549994 -0.16286527 -2.8741922 -0.00272694 0 0 Z " fill="#D54036" transform="translate(453.2517395019531,515.8797454833984)"/>
<path d="M0 0 C0.495 0.99 0.495 0.99 1 2 C2.65 2 4.3 2 6 2 C6.15367978 11.61377474 6.30186146 21.22761371 6.4429636 30.84158134 C6.50865228 35.30540492 6.57625692 39.76918255 6.64819336 44.23291016 C6.71750578 48.5381406 6.78184661 52.84341891 6.84269524 57.14877701 C6.86682871 58.7938928 6.89277396 60.43898301 6.92053413 62.0840416 C6.9590177 64.38264718 6.99114215 66.68125818 7.02172852 68.97998047 C7.04171402 70.2901413 7.06169952 71.60030212 7.08229065 72.95016479 C7 76 7 76 6 78 C6.76143311 77.96447021 7.52286621 77.92894043 8.30737305 77.89233398 C11.76716159 77.73443583 15.22729044 77.5858732 18.6875 77.4375 C20.48477539 77.35338867 20.48477539 77.35338867 22.31835938 77.26757812 C24.05375977 77.19506836 24.05375977 77.19506836 25.82421875 77.12109375 C27.41882935 77.05039673 27.41882935 77.05039673 29.0456543 76.97827148 C31.85681232 76.99894689 34.26305176 77.41056201 37 78 C37.02332798 96.49722732 37.04097868 114.99445167 37.05181217 133.49169064 C37.05697534 142.07967049 37.06401844 150.66764123 37.07543945 159.25561523 C37.08538565 166.73815417 37.09185327 174.22068651 37.09408849 181.70323187 C37.09539571 185.66764586 37.09848226 189.63204095 37.10573006 193.5964489 C37.11248926 197.32360213 37.11461717 201.05072857 37.11310768 204.77788734 C37.11338406 206.14975505 37.11538978 207.5216236 37.11920547 208.89348602 C37.12414108 210.75860963 37.12239794 212.62374744 37.12025452 214.48887634 C37.12163721 216.0582289 37.12163721 216.0582289 37.12304783 217.65928555 C37 220 37 220 36 221 C33.78144736 221.08783542 31.56011504 221.10694609 29.33984375 221.09765625 C28.12417725 221.09515869 26.90851074 221.09266113 25.65600586 221.09008789 C24.09889893 221.08098389 22.54179199 221.07187988 20.9375 221.0625 C16.008125 221.041875 11.07875 221.02125 6 221 C6 236.51 6 252.02 6 268 C0.79270265 268.74389962 -4.00460113 269.14382748 -9.21435547 269.12939453 C-10.00381058 269.13114685 -10.79326569 269.13289917 -11.60664368 269.13470459 C-14.19351453 269.13907555 -16.78031606 269.13620368 -19.3671875 269.1328125 C-21.17082736 269.1334865 -22.97446714 269.13445733 -24.77810669 269.13571167 C-28.54543936 269.13718184 -32.31274823 269.13505447 -36.08007812 269.13037109 C-40.91916718 269.12464956 -45.75820106 269.12797236 -50.59728813 269.13394356 C-54.31517965 269.1375466 -58.03305795 269.1364122 -61.75094986 269.13381577 C-63.53641898 269.13314706 -65.32188929 269.13397298 -67.10735703 269.13629532 C-69.59227466 269.13882028 -72.07710094 269.13498463 -74.56201172 269.12939453 C-75.67623756 269.13243088 -75.67623756 269.13243088 -76.81297302 269.13552856 C-81.88573211 269.11426789 -81.88573211 269.11426789 -83 268 C-83.09304018 266.52645652 -83.11746265 265.04849409 -83.11352539 263.57202148 C-83.11344986 262.63112167 -83.11337433 261.69022186 -83.11329651 260.72080994 C-83.10813522 259.69790359 -83.10297394 258.67499725 -83.09765625 257.62109375 C-83.0962413 256.57929459 -83.09482635 255.53749542 -83.09336853 254.46412659 C-83.0877508 251.12188906 -83.0751953 247.77971743 -83.0625 244.4375 C-83.05748728 242.17773534 -83.05292398 239.91796963 -83.04882812 237.65820312 C-83.03777561 232.10544609 -83.02102024 226.55272775 -83 221 C-84.29877075 221.24339111 -84.29877075 221.24339111 -85.6237793 221.49169922 C-88.81765076 221.97254674 -91.79386098 222.12920869 -95.01953125 222.1328125 C-96.12361328 222.13410156 -97.22769531 222.13539063 -98.36523438 222.13671875 C-99.50283203 222.13285156 -100.64042969 222.12898437 -101.8125 222.125 C-103.54790039 222.13080078 -103.54790039 222.13080078 -105.31835938 222.13671875 C-106.41599609 222.13542969 -107.51363281 222.13414062 -108.64453125 222.1328125 C-109.64846924 222.13168457 -110.65240723 222.13055664 -111.68676758 222.12939453 C-114 222 -114 222 -115 221 C-115.09648248 219.15238732 -115.12187318 217.3010419 -115.12025452 215.45091248 C-115.12162918 214.24631378 -115.12300385 213.04171509 -115.12442017 211.8006134 C-115.12088056 210.45358252 -115.11724575 209.10655188 -115.11352539 207.75952148 C-115.11324352 206.35052492 -115.11340125 204.94152821 -115.1139679 203.53253174 C-115.11425589 199.6959237 -115.10835894 195.85934666 -115.10139394 192.02274585 C-115.09516063 188.01753059 -115.09455662 184.0123147 -115.09336853 180.00709534 C-115.09025515 172.41747996 -115.08204167 164.82787892 -115.07201904 157.23826987 C-115.06085812 148.59996076 -115.05534751 139.96165099 -115.05032361 131.32333648 C-115.03985906 113.54888285 -115.02225948 95.77444258 -115 78 C-105.4594433 73.22972165 -93.66074567 77.64464181 -83 78 C-83 53.25 -83 28.5 -83 3 C-78.18149864 1.07259945 -75.75539642 0.75150494 -70.70288086 0.75708008 C-69.98681168 0.75518173 -69.27074249 0.75328339 -68.53297424 0.75132751 C-66.17681773 0.74763661 -63.82097265 0.75829945 -61.46484375 0.76953125 C-59.82247453 0.77072409 -58.18010462 0.77117599 -56.53773499 0.7709198 C-53.10055248 0.77248174 -49.66347456 0.78074967 -46.22631836 0.79418945 C-41.82240713 0.81119219 -37.41861058 0.8150032 -33.01467037 0.81424427 C-29.62519742 0.81451627 -26.23574949 0.82000217 -22.84628487 0.82724571 C-21.22238924 0.8304255 -19.59849078 0.83239818 -17.97459221 0.83313942 C-15.70558727 0.83530954 -13.43670347 0.84406793 -11.16772461 0.85473633 C-9.23176674 0.86045403 -9.23176674 0.86045403 -7.25669861 0.86628723 C-4.62377997 0.97438899 -2.49376186 1.21119424 0 2 C0 1.34 0 0.68 0 0 Z " fill="#D44036" transform="translate(457,205)"/>
<path d="M0 0 C1.16033752 0.00842926 1.16033752 0.00842926 2.34411621 0.01702881 C3.15888931 0.01513046 3.97366241 0.01323212 4.81312561 0.01127625 C7.51504034 0.00756199 10.21668812 0.01828279 12.9185791 0.02947998 C14.79183419 0.03067165 16.66508989 0.03112497 18.53834534 0.03086853 C22.4684319 0.03243458 26.39842753 0.04073276 30.32849121 0.05413818 C35.3704343 0.07111648 40.41227725 0.0749529 45.45424557 0.074193 C49.32407083 0.07446476 53.19387413 0.07994708 57.06369209 0.08719444 C58.92286576 0.09038066 60.78204193 0.09234841 62.64121819 0.09308815 C65.238842 0.09525286 67.83635903 0.10400035 70.43395996 0.11468506 C71.20549408 0.11423187 71.9770282 0.11377869 72.77194214 0.11331177 C75.93320815 0.13235459 78.43189584 0.25266889 81.45373535 1.25994873 C81.47687409 10.87380511 81.49465828 20.48765195 81.50554752 30.10153008 C81.51077299 34.56531633 81.51786456 39.02908357 81.5291748 43.49285889 C81.5400156 47.79814975 81.54601473 52.10342229 81.54861259 56.40872574 C81.55046469 58.05381687 81.55408119 59.69890696 81.55946541 61.34399033 C81.56669163 63.64265891 81.56772562 65.94125114 81.56726074 68.2399292 C81.56948135 69.55009003 81.57170197 70.86025085 81.57398987 72.21011353 C81.45373535 75.25994873 81.45373535 75.25994873 80.45373535 77.25994873 C81.41263672 77.22441895 82.37153809 77.18888916 83.35949707 77.15228271 C86.91140203 77.0220791 90.46352069 76.898861 94.01574707 76.777771 C95.55422613 76.72434482 97.09264029 76.66901494 98.63098145 76.61175537 C100.83998621 76.52986125 103.04913259 76.45477774 105.25842285 76.38104248 C105.94806122 76.35400742 106.63769958 76.32697235 107.34823608 76.29911804 C112.22599194 76.14607702 112.22599194 76.14607702 114.45373535 77.25994873 C114.45373535 124.44994873 114.45373535 171.63994873 114.45373535 220.25994873 C103.23373535 220.25994873 92.01373535 220.25994873 80.45373535 220.25994873 C80.45373535 236.09994873 80.45373535 251.93994873 80.45373535 268.25994873 C51.74373535 268.25994873 23.03373535 268.25994873 -6.54626465 268.25994873 C-7.28579556 263.08323232 -7.69383088 258.31052059 -7.67907715 253.13104248 C-7.68051224 252.00195213 -7.68051224 252.00195213 -7.68197632 250.85005188 C-7.68265265 249.26931677 -7.6808368 247.68857879 -7.67663574 246.10784912 C-7.67127212 243.70080284 -7.67660323 241.29394248 -7.6829834 238.88690186 C-7.68232267 237.34328166 -7.68104161 235.79966157 -7.67907715 234.25604248 C-7.68110138 233.5433873 -7.68312561 232.83073212 -7.68521118 232.09648132 C-7.6659711 227.96007787 -7.23584906 224.39745518 -6.54626465 220.25994873 C-16.77626465 220.25994873 -27.00626465 220.25994873 -37.54626465 220.25994873 C-37.54626465 174.05994873 -37.54626465 127.85994873 -37.54626465 80.25994873 C-38.20626465 79.92994873 -38.86626465 79.59994873 -39.54626465 79.25994873 C-38.88626465 79.25994873 -38.22626465 79.25994873 -37.54626465 79.25994873 C-37.54626465 78.59994873 -37.54626465 77.93994873 -37.54626465 77.25994873 C-27.97626465 77.25994873 -18.40626465 77.25994873 -8.54626465 77.25994873 C-7.77747553 72.64721399 -7.43296314 68.8833061 -7.46447754 64.27655029 C-7.4675441 63.60589035 -7.47061066 62.93523041 -7.47377014 62.24424744 C-7.48088412 60.7988793 -7.49025213 59.35352082 -7.50166512 57.90818024 C-7.51913924 55.62200782 -7.52937961 53.33590602 -7.5375824 51.04968262 C-7.56197363 44.55346008 -7.59778498 38.05733383 -7.64221191 31.56121826 C-7.66893969 27.57969535 -7.68601489 23.59822629 -7.69708061 19.61663055 C-7.70329796 18.09991196 -7.71331268 16.58320408 -7.7271595 15.06653595 C-7.74630118 12.95287638 -7.75326042 10.83950338 -7.75744629 8.72576904 C-7.76863243 6.92091034 -7.76863243 6.92091034 -7.78004456 5.07958984 C-7.34255402 -0.197024 -4.6568497 0.02769856 0 0 Z " fill="#D43F36" transform="translate(568.5462646484375,205.74005126953125)"/>
<path d="M0 0 C0.33 0 0.66 0 1 0 C1.13193646 7.93782352 1.26241929 15.87566916 1.39115143 23.81354523 C1.45099919 27.5011968 1.51130897 31.18883951 1.57275391 34.87646484 C1.6322649 38.44912425 1.69045887 42.0218031 1.74781799 45.59449768 C1.78018086 47.59031591 1.81383545 49.58611306 1.84753418 51.58190918 C1.90800466 55.38789903 1.95795673 59.19376248 2 63 C2.00832855 63.72250946 2.0166571 64.44501892 2.02523804 65.18942261 C2.04817171 67.40427601 2.06331761 69.61905169 2.07617188 71.83398438 C2.08372749 72.52110756 2.09128311 73.20823074 2.09906769 73.91617584 C2.11487662 78.77024677 2.11487662 78.77024677 1 81 C9.58 81 18.16 81 27 81 C27.77057515 84.85287577 28.12549366 87.78946742 28.12698364 91.63700867 C28.12980347 92.76007416 28.13262329 93.88313965 28.13552856 95.04023743 C28.13249222 96.87403206 28.13249222 96.87403206 28.12939453 98.74487305 C28.13202301 100.68698669 28.13202301 100.68698669 28.13470459 102.66833496 C28.13925584 106.21145815 28.13749921 109.75455216 28.1343255 113.29767585 C28.1317916 117.00564639 28.13414217 120.71361445 28.13571167 124.42158508 C28.13752967 130.64474943 28.13513603 136.86790191 28.13037109 143.09106445 C28.12492201 150.29101056 28.1266973 157.49092838 28.1321975 164.6908738 C28.1367306 170.87184889 28.13737842 177.05281544 28.13475883 183.23379165 C28.13319807 186.92596864 28.13299696 190.61813232 28.13629532 194.31030846 C28.13971159 198.42132631 28.13498111 202.53229508 28.12939453 206.64331055 C28.13141876 207.87191299 28.13344299 209.10051544 28.13552856 210.36634827 C28.13270874 211.48095428 28.12988892 212.5955603 28.12698364 213.74394226 C28.1264181 215.20261734 28.1264181 215.20261734 28.12584114 216.69076061 C28 219 28 219 27 221 C18.42 221 9.84 221 1 221 C1.08378906 223.97386719 1.16757812 226.94773437 1.25390625 230.01171875 C1.33135101 232.89767148 1.4068577 235.78366887 1.48217773 238.66967773 C1.53548911 240.6726624 1.59080963 242.67559466 1.64819336 244.6784668 C1.73040801 247.56026918 1.80535382 250.44218386 1.87890625 253.32421875 C1.90594131 254.21711105 1.93297638 255.11000336 1.96083069 256.029953 C1.98092697 256.87044693 2.00102325 257.71094086 2.02172852 258.5769043 C2.04171402 259.31192673 2.06169952 260.04694916 2.08229065 260.804245 C2 263 2 263 1 268 C-27.38 268 -55.76 268 -85 268 C-85.90205779 263.48971103 -86.14522869 259.40399686 -86.1328125 254.84765625 C-86.13424759 253.68102699 -86.13424759 253.68102699 -86.13571167 252.49082947 C-86.13639008 250.85106322 -86.1345595 249.21129424 -86.13037109 247.5715332 C-86.1250253 245.0743195 -86.13032385 242.57728622 -86.13671875 240.08007812 C-86.13605777 238.48177044 -86.13477619 236.88346287 -86.1328125 235.28515625 C-86.13483673 234.54435318 -86.13686096 233.80355011 -86.13894653 233.04029846 C-86.1201287 228.83661746 -85.69991653 225.19949918 -85 221 C-94.57 221 -104.14 221 -114 221 C-114 174.14 -114 127.28 -114 79 C-113.67 79.66 -113.34 80.32 -113 81 C-103.76 81 -94.52 81 -85 81 C-85.33 55.26 -85.66 29.52 -86 3 C-81.71778805 0.85889403 -78.75293158 0.73414582 -74.1262207 0.78881836 C-72.94269516 0.79078972 -72.94269516 0.79078972 -71.73526001 0.7928009 C-69.13197764 0.79928298 -66.52899064 0.81970684 -63.92578125 0.83984375 C-62.11785704 0.84611406 -60.30992899 0.85135418 -58.5019989 0.85560608 C-53.74630422 0.86890386 -48.99073816 0.8933406 -44.23510742 0.92095947 C-36.61206688 0.96410215 -28.98899014 0.99373094 -21.36586571 1.0170002 C-18.69733891 1.02726086 -16.02891444 1.04430399 -13.36042786 1.06199646 C-11.73548474 1.06882049 -10.11054071 1.07542931 -8.4855957 1.08178711 C-7.73806534 1.08852448 -6.99053497 1.09526184 -6.22035217 1.10220337 C-4.47990569 1.10609904 -2.739463 1.05863133 -1 1 C-0.67 0.67 -0.34 0.34 0 0 Z " fill="#D44036" transform="translate(297,346)"/>
<path d="M0 0 C1.57324945 0.02437127 3.14650721 0.04821098 4.71977234 0.07154846 C8.81486656 0.13369384 12.9098092 0.20294846 17.00476074 0.27380371 C21.20167269 0.34512485 25.39869016 0.40955698 29.59570312 0.47460938 C37.79699204 0.60272197 45.99813348 0.73836283 54.19921875 0.87890625 C55.37498204 4.40619613 55.28872067 7.5321689 55.22094727 11.19604492 C55.21133972 11.93775436 55.20173218 12.67946381 55.1918335 13.44364929 C55.15885716 15.89482151 55.11851968 18.34581474 55.078125 20.796875 C55.05382255 22.49651967 55.02997905 24.19617095 55.00657654 25.89582825 C54.94374808 30.36916647 54.8746779 34.84238748 54.80432129 39.31561279 C54.73362669 43.88027611 54.66881646 48.44502252 54.60351562 53.00976562 C54.4745192 61.96623963 54.33838713 70.92258451 54.19921875 79.87890625 C63.76921875 79.54890625 73.33921875 79.21890625 83.19921875 78.87890625 C83.35218619 97.11533118 83.50101065 115.35177431 83.64218235 133.58829403 C83.70786047 142.05522523 83.77543177 150.52213351 83.84741211 158.98901367 C83.9101225 166.36605036 83.96932955 173.74310527 84.02427429 181.12020403 C84.05350899 185.02874542 84.08453547 188.93725456 84.11975288 192.84574699 C84.15280751 196.52033984 84.18119769 200.19493845 84.20592499 203.86959648 C84.22062325 205.86972659 84.24034385 207.86981779 84.26017761 209.86990356 C84.27073685 211.63893791 84.27073685 211.63893791 84.2815094 213.44371033 C84.2939536 214.99093985 84.2939536 214.99093985 84.30664921 216.56942654 C84.19921875 218.87890625 84.19921875 218.87890625 83.19921875 219.87890625 C78.73150401 220.26488408 74.24275968 220.3493092 69.76171875 220.50390625 C68.49521484 220.55546875 67.22871094 220.60703125 65.92382812 220.66015625 C64.11301758 220.72589844 64.11301758 220.72589844 62.265625 220.79296875 C60.59415405 220.85411865 60.59415405 220.85411865 58.88891602 220.91650391 C56.19921875 220.87890625 56.19921875 220.87890625 54.19921875 219.87890625 C54.19921875 235.38890625 54.19921875 250.89890625 54.19921875 266.87890625 C52.87921875 267.53890625 51.55921875 268.19890625 50.19921875 268.87890625 C50.19921875 268.21890625 50.19921875 267.55890625 50.19921875 266.87890625 C23.79921875 266.87890625 -2.60078125 266.87890625 -29.80078125 266.87890625 C-30.92578125 259.00390625 -30.92578125 259.00390625 -30.91430664 255.50415039 C-30.91423111 254.72386978 -30.91415558 253.94358917 -30.91407776 253.1396637 C-30.90891647 252.3227153 -30.90375519 251.50576691 -30.8984375 250.6640625 C-30.89702255 249.80832138 -30.8956076 248.95258026 -30.89414978 248.07090759 C-30.88859115 245.36103694 -30.8760465 242.65125157 -30.86328125 239.94140625 C-30.8582609 238.09440224 -30.85369893 236.24739693 -30.84960938 234.40039062 C-30.83948989 229.89317057 -30.81990668 225.3861329 -30.80078125 220.87890625 C-39.71078125 220.54890625 -48.62078125 220.21890625 -57.80078125 219.87890625 C-57.80078125 219.21890625 -57.80078125 218.55890625 -57.80078125 217.87890625 C-58.46078125 217.54890625 -59.12078125 217.21890625 -59.80078125 216.87890625 C-59.47078125 216.54890625 -59.14078125 216.21890625 -58.80078125 215.87890625 C-58.70669834 214.14973218 -58.68335039 212.41667904 -58.68725586 210.68495178 C-58.68732635 209.55897079 -58.68739685 208.43298981 -58.68746948 207.27288818 C-58.6926358 206.02662659 -58.69780212 204.78036499 -58.703125 203.49633789 C-58.70536649 201.49484663 -58.70760772 199.49335536 -58.70983887 197.49186409 C-58.71321706 195.33391826 -58.7190735 193.17599149 -58.72561646 191.01805305 C-58.73909554 186.52696576 -58.74502386 182.03588841 -58.74975586 177.54478455 C-58.76182198 167.19889666 -58.78386997 156.85303441 -58.8059845 146.507164 C-58.82614184 137.0303884 -58.84421848 127.55362139 -58.85419941 118.0768289 C-58.85919394 113.60907168 -58.86907191 109.14135942 -58.88262939 104.67362034 C-58.88828134 102.56488762 -58.89166474 100.45616616 -58.89401245 98.34742737 C-58.8968931 95.77176212 -58.90339843 93.19609754 -58.91409302 90.62045288 C-58.91416351 89.49165207 -58.91423401 88.36285126 -58.91430664 87.19984436 C-58.91652725 86.21482469 -58.91874786 85.22980501 -58.92103577 84.21493626 C-58.80078125 81.87890625 -58.80078125 81.87890625 -57.80078125 79.87890625 C-54.57061129 78.68396473 -51.56562421 78.83697228 -48.16015625 79 C-46.55527344 79.07250977 -46.55527344 79.07250977 -44.91796875 79.14648438 C-43.80679688 79.20255859 -42.695625 79.25863281 -41.55078125 79.31640625 C-40.42414062 79.36861328 -39.2975 79.42082031 -38.13671875 79.47460938 C-35.35778153 79.60413611 -32.57921701 79.73909678 -29.80078125 79.87890625 C-30.04417236 78.34858765 -30.04417236 78.34858765 -30.29248047 76.78735352 C-31.09378198 70.33038288 -30.94462545 63.83937045 -30.93359375 57.34375 C-30.9342687 55.93705733 -30.93524032 54.53036476 -30.93649292 53.12367249 C-30.9379604 50.1878243 -30.93584571 47.25200671 -30.93115234 44.31616211 C-30.92545035 40.56842334 -30.92874308 36.82075614 -30.93472481 33.07301998 C-30.93835164 30.17240365 -30.93718219 27.27180407 -30.93459702 24.37118721 C-30.93393389 22.98980259 -30.9347345 21.60841641 -30.93707657 20.22703362 C-30.93963867 18.29189969 -30.9350363 16.35676037 -30.93017578 14.42163086 C-30.92938019 13.32435165 -30.92858459 12.22707245 -30.92776489 11.09654236 C-30.79118862 7.63583876 -30.34478559 4.29731828 -29.80078125 0.87890625 C-19.83663675 -0.10732535 -9.99290116 -0.18265873 0 0 Z " fill="#D33F35" transform="translate(757.80078125,347.12109375)"/>
<path d="M0 0 C14.52 0 29.04 0 44 0 C44 17.16 44 34.32 44 52 C58.71955552 51.92082503 58.71955552 51.92082503 73.43896484 51.81982422 C75.27962005 51.81398488 77.12027783 51.808888 78.9609375 51.8046875 C79.92233643 51.79445557 80.88373535 51.78422363 81.87426758 51.77368164 C82.78764893 51.77343994 83.70103027 51.77319824 84.64208984 51.77294922 C85.43706879 51.768508 86.23204773 51.76406677 87.05111694 51.75949097 C89 52 89 52 91 54 C91.24609566 55.97962379 91.24609566 55.97962379 91.24050903 58.45449829 C91.24463303 59.85957893 91.24463303 59.85957893 91.24884033 61.29304504 C91.24164978 62.32378647 91.23445923 63.35452789 91.22705078 64.41650391 C91.22734283 65.49944229 91.22763489 66.58238068 91.22793579 67.69813538 C91.22653828 71.29102488 91.21095718 74.88370906 91.1953125 78.4765625 C91.19158387 80.96235033 91.18873619 83.44813962 91.18673706 85.93392944 C91.17987126 91.81649086 91.16409547 97.69897602 91.14403808 103.58150613 C91.11950986 110.93453258 91.10875255 118.28756813 91.09765625 125.640625 C91.07618531 138.76045437 91.04241768 151.8802225 91 165 C89.24817756 165.16529072 87.4961923 165.32885629 85.74414062 165.49169922 C84.28071228 165.62860672 84.28071228 165.62860672 82.78771973 165.76828003 C70.23979135 166.81128502 57.51202435 165.6585276 45 165 C45 181.83 45 198.66 45 216 C31.5 217.125 31.5 217.125 26.38531113 217.12304783 C25.2153814 217.12503888 24.04545167 217.12702993 22.84006953 217.12908131 C21.59490164 217.12616847 20.34973375 217.12325563 19.0668335 217.12025452 C17.69941731 217.1206916 16.33200121 217.12156903 14.96458554 217.12284368 C11.24056903 217.12506166 7.51658172 217.12110466 3.79256892 217.11606562 C-0.23588761 217.11172224 -4.26434268 217.11321029 -8.2928009 217.1139679 C-15.26127763 217.11449068 -22.22974494 217.11136961 -29.1982193 217.10573006 C-39.27329842 217.09758168 -49.34837303 217.09499642 -59.42345509 217.09374207 C-75.77205206 217.09155678 -92.12064403 217.08491091 -108.46923828 217.07543945 C-124.34456355 217.06625178 -140.21988745 217.05917758 -156.09521484 217.05493164 C-157.07478371 217.05466892 -158.05435257 217.05440619 -159.06360534 217.05413551 C-163.97811716 217.05283041 -168.89262899 217.05156672 -173.80714083 217.05032361 C-214.53809756 217.03996731 -255.26904806 217.02208685 -296 217 C-296 199.84 -296 182.68 -296 165 C-310.85 165 -325.7 165 -341 165 C-342.26187857 161.2143643 -342.01657797 157.76317551 -341.87890625 153.83203125 C-341.85529526 153.03721848 -341.83168427 152.2424057 -341.80735779 151.42350769 C-341.73081899 148.88631901 -341.64675272 146.3494431 -341.5625 143.8125 C-341.50926951 142.09181215 -341.45652917 140.37110906 -341.40429688 138.65039062 C-341.27521711 134.43339589 -341.13938609 130.21666615 -341 126 C-340.67 126 -340.34 126 -340 126 C-340 138.21 -340 150.42 -340 163 C-324.82 163 -309.64 163 -294 163 C-294 180.16 -294 197.32 -294 215 C-182.79 215 -71.58 215 43 215 C43 197.84 43 180.68 43 163 C58.18 163 73.36 163 89 163 C89 127.03 89 91.06 89 54 C73.49 54 57.98 54 42 54 C40.82441396 51.64882791 40.87321894 50.24991241 40.87060547 47.62963867 C40.86745331 46.7249736 40.86430115 45.82030853 40.86105347 44.88822937 C40.86408981 43.41795036 40.86408981 43.41795036 40.8671875 41.91796875 C40.86575241 40.40847404 40.86575241 40.40847404 40.86428833 38.8684845 C40.86360686 36.73580869 40.86545883 34.60313082 40.86962891 32.47045898 C40.87496093 29.21137802 40.86969142 25.95243593 40.86328125 22.69335938 C40.86394237 20.62239553 40.86522422 18.55143177 40.8671875 16.48046875 C40.86516327 15.50635544 40.86313904 14.53224213 40.86105347 13.52861023 C40.86420563 12.61448868 40.86735779 11.70036713 40.87060547 10.75854492 C40.87179886 9.55847054 40.87179886 9.55847054 40.87301636 8.33415222 C41 6 41 6 42 1 C28.14 1 14.28 1 0 1 C0 0.67 0 0.34 0 0 Z " fill="#AD1F17" transform="translate(638,626)"/>
<path d="M0 0 C0.33 0 0.66 0 1 0 C1.13193646 7.93782352 1.26241929 15.87566916 1.39115143 23.81354523 C1.45099919 27.5011968 1.51130897 31.18883951 1.57275391 34.87646484 C1.6322649 38.44912425 1.69045887 42.0218031 1.74781799 45.59449768 C1.78018086 47.59031591 1.81383545 49.58611306 1.84753418 51.58190918 C1.90800466 55.38789903 1.95795673 59.19376248 2 63 C2.00832855 63.72250946 2.0166571 64.44501892 2.02523804 65.18942261 C2.04817171 67.40427601 2.06331761 69.61905169 2.07617188 71.83398438 C2.08372749 72.52110756 2.09128311 73.20823074 2.09906769 73.91617584 C2.11487662 78.77024677 2.11487662 78.77024677 1 81 C9.58 81 18.16 81 27 81 C27.77057515 84.85287577 28.12549366 87.78946742 28.12698364 91.63700867 C28.12980347 92.76007416 28.13262329 93.88313965 28.13552856 95.04023743 C28.13249222 96.87403206 28.13249222 96.87403206 28.12939453 98.74487305 C28.13202301 100.68698669 28.13202301 100.68698669 28.13470459 102.66833496 C28.13925584 106.21145815 28.13749921 109.75455216 28.1343255 113.29767585 C28.1317916 117.00564639 28.13414217 120.71361445 28.13571167 124.42158508 C28.13752967 130.64474943 28.13513603 136.86790191 28.13037109 143.09106445 C28.12492201 150.29101056 28.1266973 157.49092838 28.1321975 164.6908738 C28.1367306 170.87184889 28.13737842 177.05281544 28.13475883 183.23379165 C28.13319807 186.92596864 28.13299696 190.61813232 28.13629532 194.31030846 C28.13971159 198.42132631 28.13498111 202.53229508 28.12939453 206.64331055 C28.13141876 207.87191299 28.13344299 209.10051544 28.13552856 210.36634827 C28.13270874 211.48095428 28.12988892 212.5955603 28.12698364 213.74394226 C28.1264181 215.20261734 28.1264181 215.20261734 28.12584114 216.69076061 C28 219 28 219 27 221 C18.42 221 9.84 221 1 221 C1.08378906 223.97386719 1.16757812 226.94773437 1.25390625 230.01171875 C1.33135101 232.89767148 1.4068577 235.78366887 1.48217773 238.66967773 C1.53548911 240.6726624 1.59080963 242.67559466 1.64819336 244.6784668 C1.73040801 247.56026918 1.80535382 250.44218386 1.87890625 253.32421875 C1.90594131 254.21711105 1.93297638 255.11000336 1.96083069 256.029953 C1.98092697 256.87044693 2.00102325 257.71094086 2.02172852 258.5769043 C2.04171402 259.31192673 2.06169952 260.04694916 2.08229065 260.804245 C2 263 2 263 1 268 C-27.38 268 -55.76 268 -85 268 C-85.90205779 263.48971103 -86.14522869 259.40399686 -86.1328125 254.84765625 C-86.13424759 253.68102699 -86.13424759 253.68102699 -86.13571167 252.49082947 C-86.13639008 250.85106322 -86.1345595 249.21129424 -86.13037109 247.5715332 C-86.1250253 245.0743195 -86.13032385 242.57728622 -86.13671875 240.08007812 C-86.13605777 238.48177044 -86.13477619 236.88346287 -86.1328125 235.28515625 C-86.13483673 234.54435318 -86.13686096 233.80355011 -86.13894653 233.04029846 C-86.1201287 228.83661746 -85.69991653 225.19949918 -85 221 C-94.57 221 -104.14 221 -114 221 C-114 174.14 -114 127.28 -114 79 C-113.67 79.66 -113.34 80.32 -113 81 C-103.76 81 -94.52 81 -85 81 C-85 55.59 -85 30.18 -85 4 C-84.67 4 -84.34 4 -84 4 C-84 29.74 -84 55.48 -84 82 C-93.24 82 -102.48 82 -112 82 C-112 127.21 -112 172.42 -112 219 C-102.76 219 -93.52 219 -84 219 C-83 220 -83 220 -82.87974548 221.86659241 C-82.8830764 223.08903908 -82.8830764 223.08903908 -82.88647461 224.33618164 C-82.88659546 225.26998657 -82.88671631 226.2037915 -82.88684082 227.16589355 C-82.89451477 228.64805359 -82.89451477 228.64805359 -82.90234375 230.16015625 C-82.90335083 231.06342651 -82.90435791 231.96669678 -82.90539551 232.89733887 C-82.91064488 236.28573874 -82.92460602 239.67412059 -82.9375 243.0625 C-82.958125 250.631875 -82.97875 258.20125 -83 266 C-55.94 266 -28.88 266 -1 266 C-1 250.49 -1 234.98 -1 219 C7.91 219 16.82 219 26 219 C26 173.79 26 128.58 26 82 C17.09 82 8.18 82 -1 82 C-1 55.93 -1 29.86 -1 3 C-27.73 3 -54.46 3 -82 3 C-82 2.67 -82 2.34 -82 2 C-80.98744644 1.98969254 -79.97489288 1.97938507 -78.93165588 1.96876526 C-69.41055996 1.87120265 -59.8895319 1.76848529 -50.36854649 1.66066074 C-45.47317875 1.60538835 -40.5778051 1.55196159 -35.68237305 1.50268555 C-30.96206724 1.45510549 -26.24183646 1.40276525 -21.5216198 1.34705925 C-19.71663203 1.32660678 -17.91162365 1.30789859 -16.10659981 1.29092598 C-13.58734784 1.26694571 -11.06823902 1.23688289 -8.54907227 1.20532227 C-7.79525772 1.1995668 -7.04144318 1.19381134 -6.26478577 1.18788147 C-2.84298079 1.4414287 -2.84298079 1.4414287 0 0 Z " fill="#B92921" transform="translate(297,346)"/>
<path d="M0 0 C0.495 0.99 0.495 0.99 1 2 C2.65 2 4.3 2 6 2 C6.15367978 11.61377474 6.30186146 21.22761371 6.4429636 30.84158134 C6.50865228 35.30540492 6.57625692 39.76918255 6.64819336 44.23291016 C6.71750578 48.5381406 6.78184661 52.84341891 6.84269524 57.14877701 C6.86682871 58.7938928 6.89277396 60.43898301 6.92053413 62.0840416 C6.9590177 64.38264718 6.99114215 66.68125818 7.02172852 68.97998047 C7.04171402 70.2901413 7.06169952 71.60030212 7.08229065 72.95016479 C7 76 7 76 6 78 C14.25 78 22.5 78 31 78 C31 78.33 31 78.66 31 79 C22.09 79 13.18 79 4 79 C4 54.25 4 29.5 4 4 C-24.05 4 -52.1 4 -81 4 C-81 28.75 -81 53.5 -81 79 C-91.56 79 -102.12 79 -113 79 C-113 125.53 -113 172.06 -113 220 C-102.44 220 -91.88 220 -81 220 C-80.67 235.84 -80.34 251.68 -80 268 C-80.99 268 -81.98 268 -83 268 C-83 252.49 -83 236.98 -83 221 C-84.98 221.33 -86.96 221.66 -89 222 C-91.00508412 222.08764491 -93.01253376 222.13057022 -95.01953125 222.1328125 C-96.12361328 222.13410156 -97.22769531 222.13539063 -98.36523438 222.13671875 C-99.50283203 222.13285156 -100.64042969 222.12898437 -101.8125 222.125 C-103.54790039 222.13080078 -103.54790039 222.13080078 -105.31835938 222.13671875 C-106.41599609 222.13542969 -107.51363281 222.13414062 -108.64453125 222.1328125 C-109.64846924 222.13168457 -110.65240723 222.13055664 -111.68676758 222.12939453 C-114 222 -114 222 -115 221 C-115.09648248 219.15238732 -115.12187318 217.3010419 -115.12025452 215.45091248 C-115.12162918 214.24631378 -115.12300385 213.04171509 -115.12442017 211.8006134 C-115.12088056 210.45358252 -115.11724575 209.10655188 -115.11352539 207.75952148 C-115.11324352 206.35052492 -115.11340125 204.94152821 -115.1139679 203.53253174 C-115.11425589 199.6959237 -115.10835894 195.85934666 -115.10139394 192.02274585 C-115.09516063 188.01753059 -115.09455662 184.0123147 -115.09336853 180.00709534 C-115.09025515 172.41747996 -115.08204167 164.82787892 -115.07201904 157.23826987 C-115.06085812 148.59996076 -115.05534751 139.96165099 -115.05032361 131.32333648 C-115.03985906 113.54888285 -115.02225948 95.77444258 -115 78 C-105.4594433 73.22972165 -93.66074567 77.64464181 -83 78 C-83 53.25 -83 28.5 -83 3 C-78.18149864 1.07259945 -75.75539642 0.75150494 -70.70288086 0.75708008 C-69.98681168 0.75518173 -69.27074249 0.75328339 -68.53297424 0.75132751 C-66.17681773 0.74763661 -63.82097265 0.75829945 -61.46484375 0.76953125 C-59.82247453 0.77072409 -58.18010462 0.77117599 -56.53773499 0.7709198 C-53.10055248 0.77248174 -49.66347456 0.78074967 -46.22631836 0.79418945 C-41.82240713 0.81119219 -37.41861058 0.8150032 -33.01467037 0.81424427 C-29.62519742 0.81451627 -26.23574949 0.82000217 -22.84628487 0.82724571 C-21.22238924 0.8304255 -19.59849078 0.83239818 -17.97459221 0.83313942 C-15.70558727 0.83530954 -13.43670347 0.84406793 -11.16772461 0.85473633 C-9.23176674 0.86045403 -9.23176674 0.86045403 -7.25669861 0.86628723 C-4.62377997 0.97438899 -2.49376186 1.21119424 0 2 C0 1.34 0 0.68 0 0 Z " fill="#B92A22" transform="translate(457,205)"/>
<path d="M0 0 C14.52 0 29.04 0 44 0 C44 17.16 44 34.32 44 52 C58.71955552 51.92082503 58.71955552 51.92082503 73.43896484 51.81982422 C75.27962005 51.81398488 77.12027783 51.808888 78.9609375 51.8046875 C79.92233643 51.79445557 80.88373535 51.78422363 81.87426758 51.77368164 C82.78764893 51.77343994 83.70103027 51.77319824 84.64208984 51.77294922 C85.43706879 51.768508 86.23204773 51.76406677 87.05111694 51.75949097 C89 52 89 52 91 54 C91.24609566 55.97962379 91.24609566 55.97962379 91.24050903 58.45449829 C91.24325836 59.39121872 91.24600769 60.32793915 91.24884033 61.29304504 C91.2380545 62.83915718 91.2380545 62.83915718 91.22705078 64.41650391 C91.22734283 65.49944229 91.22763489 66.58238068 91.22793579 67.69813538 C91.22653828 71.29102488 91.21095718 74.88370906 91.1953125 78.4765625 C91.19158387 80.96235033 91.18873619 83.44813962 91.18673706 85.93392944 C91.17987126 91.81649086 91.16409547 97.69897602 91.14403808 103.58150613 C91.11950986 110.93453258 91.10875255 118.28756813 91.09765625 125.640625 C91.07618531 138.76045437 91.04241768 151.8802225 91 165 C89.24817756 165.16529072 87.4961923 165.32885629 85.74414062 165.49169922 C84.28071228 165.62860672 84.28071228 165.62860672 82.78771973 165.76828003 C70.23979135 166.81128502 57.51202435 165.6585276 45 165 C45 181.83 45 198.66 45 216 C44.67 216 44.34 216 44 216 C43.67 198.51 43.34 181.02 43 163 C58.18 163 73.36 163 89 163 C89 127.03 89 91.06 89 54 C73.49 54 57.98 54 42 54 C40.82441396 51.64882791 40.87321894 50.24991241 40.87060547 47.62963867 C40.86745331 46.7249736 40.86430115 45.82030853 40.86105347 44.88822937 C40.8630777 43.90804337 40.86510193 42.92785736 40.8671875 41.91796875 C40.86623077 40.91163895 40.86527405 39.90530914 40.86428833 38.8684845 C40.86360686 36.73580869 40.86545883 34.60313082 40.86962891 32.47045898 C40.87496093 29.21137802 40.86969142 25.95243593 40.86328125 22.69335938 C40.86394237 20.62239553 40.86522422 18.55143177 40.8671875 16.48046875 C40.86516327 15.50635544 40.86313904 14.53224213 40.86105347 13.52861023 C40.86578171 12.1574279 40.86578171 12.1574279 40.87060547 10.75854492 C40.87140106 9.95849533 40.87219666 9.15844574 40.87301636 8.33415222 C41 6 41 6 42 1 C28.14 1 14.28 1 0 1 C0 0.67 0 0.34 0 0 Z " fill="#BE2F26" transform="translate(638,626)"/>
<path d="M0 0 C0.33 0 0.66 0 1 0 C1.13193646 7.93782352 1.26241929 15.87566916 1.39115143 23.81354523 C1.45099919 27.5011968 1.51130897 31.18883951 1.57275391 34.87646484 C1.6322649 38.44912425 1.69045887 42.0218031 1.74781799 45.59449768 C1.78018086 47.59031591 1.81383545 49.58611306 1.84753418 51.58190918 C1.90800466 55.38789903 1.95795673 59.19376248 2 63 C2.00832855 63.72250946 2.0166571 64.44501892 2.02523804 65.18942261 C2.04817171 67.40427601 2.06331761 69.61905169 2.07617188 71.83398438 C2.08372749 72.52110756 2.09128311 73.20823074 2.09906769 73.91617584 C2.11487662 78.77024677 2.11487662 78.77024677 1 81 C9.58 81 18.16 81 27 81 C27.77098209 84.85491045 28.12549475 87.79389222 28.12698364 91.64373779 C28.13121338 93.33050377 28.13121338 93.33050377 28.13552856 95.05134583 C28.13249222 96.88749702 28.13249222 96.88749702 28.12939453 98.76074219 C28.13202301 100.70526527 28.13202301 100.70526527 28.13470459 102.68907166 C28.13925559 106.23625979 28.13749944 109.78341878 28.1343255 113.33060741 C28.131792 117.04171514 28.13414201 120.75282039 28.13571167 124.46392822 C28.13752956 130.69128874 28.13513608 136.91863738 28.13037109 143.14599609 C28.12491965 150.3539146 28.12669905 157.56180487 28.1321975 164.7697227 C28.13672808 170.95577765 28.13737974 177.14182407 28.13475883 183.32788014 C28.13319698 187.02393765 28.13299998 190.71998185 28.13629532 194.41603851 C28.1397071 198.52965484 28.13498527 202.64322201 28.12939453 206.75683594 C28.13141876 207.98903366 28.13344299 209.22123138 28.13552856 210.49076843 C28.13270874 211.60399979 28.12988892 212.71723114 28.12698364 213.86419678 C28.1264181 215.32425455 28.1264181 215.32425455 28.12584114 216.81380844 C28 219 28 219 27 220 C25.07332493 220.08748207 23.14348139 220.10697334 21.21484375 220.09765625 C20.04501953 220.09443359 18.87519531 220.09121094 17.66992188 220.08789062 C16.43822266 220.07951172 15.20652344 220.07113281 13.9375 220.0625 C12.08415039 220.05573242 12.08415039 220.05573242 10.19335938 220.04882812 C7.12885883 220.03699608 4.06445279 220.02051173 1 220 C1 219.67 1 219.34 1 219 C9.25 219 17.5 219 26 219 C26 173.79 26 128.58 26 82 C17.09 82 8.18 82 -1 82 C-1 55.93 -1 29.86 -1 3 C-27.73 3 -54.46 3 -82 3 C-82 2.67 -82 2.34 -82 2 C-80.98744644 1.98969254 -79.97489288 1.97938507 -78.93165588 1.96876526 C-69.41055996 1.87120265 -59.8895319 1.76848529 -50.36854649 1.66066074 C-45.47317875 1.60538835 -40.5778051 1.55196159 -35.68237305 1.50268555 C-30.96206724 1.45510549 -26.24183646 1.40276525 -21.5216198 1.34705925 C-19.71663203 1.32660678 -17.91162365 1.30789859 -16.10659981 1.29092598 C-13.58734784 1.26694571 -11.06823902 1.23688289 -8.54907227 1.20532227 C-7.79525772 1.1995668 -7.04144318 1.19381134 -6.26478577 1.18788147 C-2.84298079 1.4414287 -2.84298079 1.4414287 0 0 Z " fill="#AF1F18" transform="translate(297,346)"/>
<path d="M0 0 C0.33 0 0.66 0 1 0 C1 6.27 1 12.54 1 19 C-8.9 19.33 -18.8 19.66 -29 20 C-29 66.2 -29 112.4 -29 160 C-19.1 160 -9.2 160 1 160 C1 162.31 1 164.62 1 167 C0.67 167 0.34 167 0 167 C0 165.02 0 163.04 0 161 C-10.23 161 -20.46 161 -31 161 C-31 114.8 -31 68.6 -31 21 C-31.66 20.67 -32.32 20.34 -33 20 C-32.34 20 -31.68 20 -31 20 C-31 19.34 -31 18.68 -31 18 C-21.43 18 -11.86 18 -2 18 C-1.33888593 14.03331556 -0.89250092 11.16231068 -1 7.3125 C-1.080342 4.40512397 -0.94233665 2.82700996 0 0 Z " fill="#BA241E" transform="translate(562,265)"/>
<path d="M0 0 C0.77355835 0.00561951 1.5471167 0.01123901 2.34411621 0.01702881 C3.15888931 0.01513046 3.97366241 0.01323212 4.81312561 0.01127625 C7.51504034 0.00756199 10.21668812 0.01828279 12.9185791 0.02947998 C14.79183419 0.03067165 16.66508989 0.03112497 18.53834534 0.03086853 C22.4684319 0.03243458 26.39842753 0.04073276 30.32849121 0.05413818 C35.3704343 0.07111648 40.41227725 0.0749529 45.45424557 0.074193 C49.32407083 0.07446476 53.19387413 0.07994708 57.06369209 0.08719444 C58.92286576 0.09038066 60.78204193 0.09234841 62.64121819 0.09308815 C65.238842 0.09525286 67.83635903 0.10400035 70.43395996 0.11468506 C71.20549408 0.11423187 71.9770282 0.11377869 72.77194214 0.11331177 C75.93320815 0.13235459 78.43189584 0.25266889 81.45373535 1.25994873 C81.47687409 10.87380511 81.49465828 20.48765195 81.50554752 30.10153008 C81.51077299 34.56531633 81.51786456 39.02908357 81.5291748 43.49285889 C81.5400156 47.79814975 81.54601473 52.10342229 81.54861259 56.40872574 C81.55046469 58.05381687 81.55408119 59.69890696 81.55946541 61.34399033 C81.56669163 63.64265891 81.56772562 65.94125114 81.56726074 68.2399292 C81.56948135 69.55009003 81.57170197 70.86025085 81.57398987 72.21011353 C81.45373535 75.25994873 81.45373535 75.25994873 80.45373535 77.25994873 C90.68373535 77.25994873 100.91373535 77.25994873 111.45373535 77.25994873 C111.45373535 77.58994873 111.45373535 77.91994873 111.45373535 78.25994873 C100.89373535 78.25994873 90.33373535 78.25994873 79.45373535 78.25994873 C79.45373535 53.50994873 79.45373535 28.75994873 79.45373535 3.25994873 C51.40373535 3.25994873 23.35373535 3.25994873 -5.54626465 3.25994873 C-5.87626465 4.24994873 -6.20626465 5.23994873 -6.54626465 6.25994873 C-7.17126465 4.38494873 -7.17126465 4.38494873 -7.54626465 2.25994873 C-5.01854273 -0.26777318 -3.44767382 0.02050648 0 0 Z " fill="#B3261D" transform="translate(568.5462646484375,205.74005126953125)"/>
<path d="M0 0 C0.33 0.99 0.66 1.98 1 3 C1.66 3 2.32 3 3 3 C2.67 3.66 2.34 4.32 2 5 C1.88232528 6.4494793 1.82310732 7.90393996 1.79467773 9.35791016 C1.77449585 10.2712915 1.75431396 11.18467285 1.73352051 12.12573242 C1.71704468 13.08713135 1.70056885 14.04853027 1.68359375 15.0390625 C1.66494263 15.92166748 1.6462915 16.80427246 1.6270752 17.71362305 C1.55866735 21.01731148 1.49858903 24.32116813 1.4375 27.625 C1.293125 35.00875 1.14875 42.3925 1 50 C18.16 50 35.32 50 53 50 C53 69.8 53 89.6 53 110 C52.67 110 52.34 110 52 110 C52 90.86 52 71.72 52 52 C34.93174701 52.0396097 34.93174701 52.0396097 17.86352539 52.09008789 C15.73323618 52.09300685 13.60294642 52.09555545 11.47265625 52.09765625 C10.35499878 52.10277222 9.23734131 52.10788818 8.08581543 52.11315918 C7.03019409 52.11328003 5.97457275 52.11340088 4.88696289 52.11352539 C3.50463219 52.11685631 3.50463219 52.11685631 2.09437561 52.12025452 C0 52 0 52 -1 51 C-1.09319449 49.4651703 -1.117458 47.92607918 -1.11352539 46.38842773 C-1.11344986 45.40748642 -1.11337433 44.4265451 -1.11329651 43.4158783 C-1.10813522 42.3492244 -1.10297394 41.2825705 -1.09765625 40.18359375 C-1.0962413 39.0974025 -1.09482635 38.01121124 -1.09336853 36.8921051 C-1.08775048 33.40720925 -1.07519492 29.92237658 -1.0625 26.4375 C-1.05748733 24.08138113 -1.05292402 21.72526126 -1.04882812 19.36914062 C-1.03777518 13.57940257 -1.02049846 7.78971201 -1 2 C-4.3 2 -7.6 2 -11 2 C-11 1.67 -11 1.34 -11 1 C-5.555 0.505 -5.555 0.505 0 0 Z " fill="#BA2620" transform="translate(579,516)"/>
<path d="M0 0 C1.28855141 -0.00422974 1.28855141 -0.00422974 2.60313416 -0.00854492 C3.54799683 -0.00652069 4.4928595 -0.00449646 5.46635437 -0.00241089 C6.46013596 -0.00416321 7.45391754 -0.00591553 8.47781372 -0.00772095 C11.78089622 -0.01214028 15.08392557 -0.00919873 18.38700867 -0.00582886 C20.68471283 -0.00650246 22.98241693 -0.00747296 25.28012085 -0.00872803 C30.10978368 -0.01020558 34.93942806 -0.00805075 39.76908875 -0.00338745 C45.93103942 0.00227471 52.0929462 -0.00094635 58.25489521 -0.00695992 C63.00869062 -0.01059411 67.76247585 -0.00941326 72.51627159 -0.00683212 C74.78584486 -0.0061689 77.05541907 -0.00696993 79.32499123 -0.00931168 C102.10234695 -0.02763464 102.10234695 -0.02763464 112.89872742 1.12698364 C112.89872742 1.45698364 112.89872742 1.78698364 112.89872742 2.12698364 C100.58329553 3.40592677 88.24707463 3.35028262 75.87919617 3.44338989 C73.5660671 3.46399682 71.25294149 3.48499417 68.93981934 3.50636292 C62.89178789 3.56119792 56.84372467 3.61077508 50.79563904 3.65921021 C44.60796832 3.70970934 38.42034297 3.76524614 32.23271179 3.82034302 C20.12142121 3.92745182 8.01009147 4.02853271 -4.10127258 4.12698364 C-4.43127258 12.04698364 -4.76127258 19.96698364 -5.10127258 28.12698364 C-5.43127258 28.12698364 -5.76127258 28.12698364 -6.10127258 28.12698364 C-6.10127258 19.21698364 -6.10127258 10.30698364 -6.10127258 1.12698364 C-3.8119146 -0.01769535 -2.54413109 0.00128201 0 0 Z " fill="#BA251E" transform="translate(452.1012725830078,515.8730163574219)"/>
<path d="M0 0 C0.66 0 1.32 0 2 0 C2 0.66 2 1.32 2 2 C6.95 2 11.9 2 17 2 C17 2.33 17 2.66 17 3 C12.05 3 7.1 3 2 3 C2.00523682 4.56999756 2.01047363 6.13999512 2.01586914 7.75756836 C2.03391143 13.5589949 2.04542917 19.36041894 2.05493164 25.16186523 C2.05997363 27.67716895 2.06680703 30.19246972 2.07543945 32.70776367 C2.08751094 36.31429775 2.09322949 39.92079323 2.09765625 43.52734375 C2.10281754 44.65961899 2.10797882 45.79189423 2.11329651 46.95848083 C2.11337204 47.99948441 2.11344757 49.04048798 2.11352539 50.11303711 C2.115746 51.03459091 2.11796661 51.95614471 2.12025452 52.90562439 C2 55 2 55 1 56 C-0.41225046 56.0928726 -1.82908934 56.11746772 -3.24438477 56.11352539 C-4.14524307 56.11344986 -5.04610138 56.11337433 -5.97425842 56.11329651 C-6.95341721 56.10813522 -7.93257599 56.10297394 -8.94140625 56.09765625 C-9.93881332 56.0962413 -10.9362204 56.09482635 -11.96385193 56.09336853 C-15.16343124 56.08775114 -18.36294169 56.07519571 -21.5625 56.0625 C-23.72591045 56.05748724 -25.88932199 56.05292395 -28.05273438 56.04882812 C-33.36851629 56.03777606 -38.68424646 56.02049979 -44 56 C-44 61.28 -44 66.56 -44 72 C-44.33 72 -44.66 72 -45 72 C-45.19430855 69.3753399 -45.38073238 66.75053235 -45.5625 64.125 C-45.61857422 63.37863281 -45.67464844 62.63226562 -45.73242188 61.86328125 C-46.11328125 56.2265625 -46.11328125 56.2265625 -45 54 C-30.48 54 -15.96 54 -1 54 C-0.67 36.18 -0.34 18.36 0 0 Z " fill="#BC2C24" transform="translate(342,624)"/>
<path d="M0 0 C0.33 0 0.66 0 1 0 C1 12.21 1 24.42 1 37 C16.18 37 31.36 37 47 37 C47 54.82 47 72.64 47 91 C46.34 91 45.68 91 45 91 C45 73.84 45 56.68 45 39 C30.15 39 15.3 39 0 39 C-1.26187857 35.2143643 -1.01657797 31.76317551 -0.87890625 27.83203125 C-0.85529526 27.03721848 -0.83168427 26.2424057 -0.80735779 25.42350769 C-0.73081899 22.88631901 -0.64675272 20.3494431 -0.5625 17.8125 C-0.50926951 16.09181215 -0.45652917 14.37110906 -0.40429688 12.65039062 C-0.27521711 8.43339589 -0.13938609 4.21666615 0 0 Z " fill="#B6261F" transform="translate(297,752)"/>
<path d="M0 0 C0.33 0 0.66 0 1 0 C1 15.84 1 31.68 1 48 C-0.98 48.99 -0.98 48.99 -3 50 C-3 49.34 -3 48.68 -3 48 C-29.4 48 -55.8 48 -83 48 C-83 46.02 -83 44.04 -83 42 C-82.67 43.32 -82.34 44.64 -82 46 C-54.94 46 -27.88 46 0 46 C0 30.82 0 15.64 0 0 Z " fill="#BA2820" transform="translate(811,566)"/>
<path d="M0 0 C28.05 0 56.1 0 85 0 C85 0.33 85 0.66 85 1 C83.35 1.33 81.7 1.66 80 2 C80 2.33 80 2.66 80 3 C69.86464856 3.06941159 59.72935336 3.12276615 49.59381294 3.15543652 C44.88781483 3.17111411 40.18197895 3.19239036 35.47607422 3.22631836 C30.9373502 3.25883745 26.39878252 3.27683723 21.85995102 3.28463173 C20.12552299 3.29018868 18.39110383 3.30103963 16.6567421 3.31719017 C14.23337342 3.33886587 11.81065653 3.34197113 9.38720703 3.34057617 C8.30395645 3.35675491 8.30395645 3.35675491 7.19882202 3.3732605 C5.20169067 3.36076355 5.20169067 3.36076355 2 3 C1.34 2.01 0.68 1.02 0 0 Z " fill="#CA382F" transform="translate(376,471)"/>
<path d="M0 0 C16.83 0 33.66 0 51 0 C51 0.33 51 0.66 51 1 C34.5 1 18 1 1 1 C1 20.8 1 40.6 1 61 C-25.69642857 61 -25.69642857 61 -35 60 C-35 59.67 -35 59.34 -35 59 C-23.10752164 57.9337778 -12.06696203 58.36489674 0 59 C0 39.53 0 20.06 0 0 Z " fill="#B11B16" transform="translate(395,567)"/>
<path d="M0 0 C1.31080284 0.00607269 1.31080284 0.00607269 2.64808655 0.01226807 C4.00305992 0.00939789 4.00305992 0.00939789 5.38540649 0.00646973 C7.30459368 0.00510619 9.22379003 0.00881433 11.14295959 0.01715088 C14.04657977 0.02773662 16.94956528 0.01731977 19.85316467 0.00445557 C37.86684366 -0.00720868 37.86684366 -0.00720868 46.6519928 2.27789307 C46.6519928 2.60789307 46.6519928 2.93789307 46.6519928 3.27789307 C29.1619928 3.27789307 11.6719928 3.27789307 -6.3480072 3.27789307 C-6.6780072 4.26789307 -7.0080072 5.25789307 -7.3480072 6.27789307 C-7.9730072 4.40289307 -7.9730072 4.40289307 -8.3480072 2.27789307 C-5.67309949 -0.39701464 -3.63699929 0.02847536 0 0 Z " fill="#C5382E" transform="translate(569.3480072021484,205.72210693359375)"/>
<path d="M0 0 C9.9 0 19.8 0 30 0 C30.33 15.84 30.66 31.68 31 48 C30.01 48 29.02 48 28 48 C28 32.49 28 16.98 28 1 C26.02 1.33 24.04 1.66 22 2 C20.20012643 2.01448099 18.39897722 1.9740635 16.6015625 1.87890625 C15.62832031 1.83056641 14.65507812 1.78222656 13.65234375 1.73242188 C12.15380859 1.64831055 12.15380859 1.64831055 10.625 1.5625 C9.60277344 1.51029297 8.58054687 1.45808594 7.52734375 1.40429688 C5.01786804 1.27530513 2.5088606 1.14037142 0 1 C0 0.67 0 0.34 0 0 Z " fill="#BA2A22" transform="translate(346,425)"/>
<path d="M0 0 C4.29 0 8.58 0 13 0 C13 0.66 13 1.32 13 2 C17.95 2 22.9 2 28 2 C28 2.33 28 2.66 28 3 C13.15 3 -1.7 3 -17 3 C-17 2.67 -17 2.34 -17 2 C-8.585 1.505 -8.585 1.505 0 1 C0 0.67 0 0.34 0 0 Z " fill="#C6342C" transform="translate(408,206)"/>
<path d="M0 0 C0 0.66 0 1.32 0 2 C-24.77626887 2.20638953 -24.77626887 2.20638953 -36 1 C-36 0.67 -36 0.34 -36 0 C-23.9762532 -1.50008357 -12.05731063 -0.6814397 0 0 Z " fill="#B8251E" transform="translate(396,626)"/>
<path d="M0 0 C0 0.33 0 0.66 0 1 C-10.47349744 1.76405986 -20.53680693 2.20160344 -31 1 C-31 0.67 -31 0.34 -31 0 C-20.50588146 -1.08101063 -10.48947132 -0.82544266 0 0 Z " fill="#B31E19" transform="translate(565,517)"/>
<path d="M0 0 C0.86931152 0.05236816 1.73862305 0.10473633 2.63427734 0.15869141 C4.04580078 0.23603516 4.04580078 0.23603516 5.48583984 0.31494141 C6.96310547 0.41162109 6.96310547 0.41162109 8.47021484 0.51025391 C9.46279297 0.56697266 10.45537109 0.62369141 11.47802734 0.68212891 C13.93446251 0.82384632 16.38991219 0.97527668 18.84521484 1.13525391 C18.84521484 1.46525391 18.84521484 1.79525391 18.84521484 2.13525391 C8.45021484 2.63025391 8.45021484 2.63025391 -2.15478516 3.13525391 C-2.48478516 4.12525391 -2.81478516 5.11525391 -3.15478516 6.13525391 C-3.77978516 4.26025391 -3.77978516 4.26025391 -4.15478516 2.13525391 C-2.15478516 0.13525391 -2.15478516 0.13525391 0 0 Z " fill="#B5261E" transform="translate(565.15478515625,205.86474609375)"/>
<path d="M0 0 C5.28 0 10.56 0 16 0 C16.33 0.66 16.66 1.32 17 2 C15.02 2.99 15.02 2.99 13 4 C13 3.34 13 2.68 13 2 C8.71 1.67 4.42 1.34 0 1 C0 0.67 0 0.34 0 0 Z " fill="#C43227" transform="translate(795,612)"/>
<path d="M0 0 C0.33 0 0.66 0 1 0 C1 2.97 1 5.94 1 9 C0.67 9 0.34 9 0 9 C0 6.03 0 3.06 0 0 Z " fill="#D5493B" transform="translate(684,334)"/>
<path d="M0 0 C0.33 0 0.66 0 1 0 C1 2.31 1 4.62 1 7 C0.67 7 0.34 7 0 7 C0 4.69 0 2.38 0 0 Z " fill="#D7493B" transform="translate(684,353)"/>
<path d="M0 0 C0.33 0 0.66 0 1 0 C1 1.65 1 3.3 1 5 C0.67 5 0.34 5 0 5 C0 3.35 0 1.7 0 0 Z " fill="#D14B3C" transform="translate(684,291)"/>
<path d="M0 0 C1 4 1 4 1 4 Z " fill="#D64A3D" transform="translate(684,378)"/>
<path d="M0 0 C3 1 3 1 3 1 Z " fill="#D9493D" transform="translate(581,564)"/>
<path d="" fill="#D54A3C" transform="translate(0,0)"/>
<path d="" fill="#D3493B" transform="translate(0,0)"/>
<path d="" fill="#D44B3C" transform="translate(0,0)"/>
<path d="M0 0 C2 1 2 1 2 1 Z " fill="#CD4F41" transform="translate(214,615)"/>
<path d="M0 0 C2 1 2 1 2 1 Z " fill="#D94A3D" transform="translate(443,564)"/>
<path d="M0 0 C2 1 2 1 2 1 Z " fill="#D94C3E" transform="translate(420,564)"/>
<path d="" fill="#D84C3F" transform="translate(0,0)"/>
<path d="" fill="#D6493C" transform="translate(0,0)"/>
<path d="" fill="#D24D3F" transform="translate(0,0)"/>
<path d="" fill="#D6493C" transform="translate(0,0)"/>
<path d="" fill="#D6483B" transform="translate(0,0)"/>
<path d="" fill="#D5483A" transform="translate(0,0)"/>
<path d="" fill="#D6493B" transform="translate(0,0)"/>
<path d="" fill="#D34C3C" transform="translate(0,0)"/>
<path d="" fill="#D14C3E" transform="translate(0,0)"/>
<path d="" fill="#CF4E3E" transform="translate(0,0)"/>
<path d="M0 0 C2 1 2 1 2 1 Z " fill="#D14C3F" transform="translate(489,281)"/>
<path d="" fill="#CC4E3F" transform="translate(0,0)"/>
<path d="" fill="#976B48" transform="translate(0,0)"/>
<path d="" fill="#CC4D3D" transform="translate(0,0)"/>
<path d="" fill="#CE4B3C" transform="translate(0,0)"/>
<path d="" fill="#CF4B3D" transform="translate(0,0)"/>
<path d="" fill="#CF4B3C" transform="translate(0,0)"/>
<path d="" fill="#D04B3C" transform="translate(0,0)"/>
<path d="" fill="#CD4B3B" transform="translate(0,0)"/>
<path d="" fill="#D1493B" transform="translate(0,0)"/>
<path d="" fill="#CF4A3A" transform="translate(0,0)"/>
<path d="" fill="#CF4A3A" transform="translate(0,0)"/>
<path d="" fill="#D4493C" transform="translate(0,0)"/>
<path d="" fill="#D4493C" transform="translate(0,0)"/>
<path d="" fill="#D2483D" transform="translate(0,0)"/>
<path d="" fill="#D54A3C" transform="translate(0,0)"/>
<path d="" fill="#D74A3C" transform="translate(0,0)"/>
<path d="" fill="#D64B3D" transform="translate(0,0)"/>
<path d="" fill="#D34D3E" transform="translate(0,0)"/>
<path d="" fill="#D64A3F" transform="translate(0,0)"/>
<path d="" fill="#D6483B" transform="translate(0,0)"/>
<path d="" fill="#D7493B" transform="translate(0,0)"/>
<path d="" fill="#D5483B" transform="translate(0,0)"/>
<path d="" fill="#D5483C" transform="translate(0,0)"/>
<path d="" fill="#D5473B" transform="translate(0,0)"/>
<path d="" fill="#D54A3D" transform="translate(0,0)"/>
<path d="" fill="#D44C3D" transform="translate(0,0)"/>
<path d="" fill="#D44A3D" transform="translate(0,0)"/>
<path d="" fill="#D24B3C" transform="translate(0,0)"/>
<path d="" fill="#D64C41" transform="translate(0,0)"/>
<path d="" fill="#DC4A3F" transform="translate(0,0)"/>
<path d="" fill="#D6483F" transform="translate(0,0)"/>
<path d="" fill="#D64C3F" transform="translate(0,0)"/>
<path d="" fill="#D34B3C" transform="translate(0,0)"/>
<path d="" fill="#D2483A" transform="translate(0,0)"/>
<path d="" fill="#D5483F" transform="translate(0,0)"/>
<path d="" fill="#D34A3B" transform="translate(0,0)"/>
<path d="" fill="#D4473A" transform="translate(0,0)"/>
<path d="" fill="#D54A3A" transform="translate(0,0)"/>
<path d="" fill="#D8473D" transform="translate(0,0)"/>
<path d="" fill="#D44C3F" transform="translate(0,0)"/>
<path d="" fill="#CF4F41" transform="translate(0,0)"/>
<path d="" fill="#D8493D" transform="translate(0,0)"/>
<path d="" fill="#D74F40" transform="translate(0,0)"/>
<path d="" fill="#D94C40" transform="translate(0,0)"/>
<path d="" fill="#D74B3F" transform="translate(0,0)"/>
<path d="" fill="#D84B3C" transform="translate(0,0)"/>
<path d="" fill="#D84C3F" transform="translate(0,0)"/>
<path d="" fill="#D74B3D" transform="translate(0,0)"/>
<path d="" fill="#D94C3F" transform="translate(0,0)"/>
<path d="" fill="#D94E42" transform="translate(0,0)"/>
<path d="" fill="#D9493D" transform="translate(0,0)"/>
<path d="" fill="#DA4B3E" transform="translate(0,0)"/>
<path d="" fill="#DB4A3E" transform="translate(0,0)"/>
<path d="" fill="#DA4A3F" transform="translate(0,0)"/>
<path d="" fill="#D84D3D" transform="translate(0,0)"/>
<path d="" fill="#D84E3F" transform="translate(0,0)"/>
<path d="" fill="#D54A3E" transform="translate(0,0)"/>
<path d="" fill="#D5493D" transform="translate(0,0)"/>
<path d="" fill="#D4493C" transform="translate(0,0)"/>
<path d="" fill="#D84B41" transform="translate(0,0)"/>
<path d="" fill="#D94C3E" transform="translate(0,0)"/>
<path d="" fill="#D7493D" transform="translate(0,0)"/>
<path d="" fill="#D6483C" transform="translate(0,0)"/>
<path d="" fill="#D5493D" transform="translate(0,0)"/>
<path d="" fill="#D6493D" transform="translate(0,0)"/>
<path d="" fill="#D94B3E" transform="translate(0,0)"/>
<path d="" fill="#D6483A" transform="translate(0,0)"/>
<path d="" fill="#D5493D" transform="translate(0,0)"/>
<path d="" fill="#D5493D" transform="translate(0,0)"/>
<path d="" fill="#CB5241" transform="translate(0,0)"/>
<path d="" fill="#D34D3E" transform="translate(0,0)"/>
<path d="" fill="#D1463B" transform="translate(0,0)"/>
<path d="" fill="#D54C3E" transform="translate(0,0)"/>
<path d="" fill="#D64A3E" transform="translate(0,0)"/>
<path d="" fill="#D64B3B" transform="translate(0,0)"/>
<path d="" fill="#D44A3D" transform="translate(0,0)"/>
<path d="" fill="#D6483D" transform="translate(0,0)"/>
<path d="" fill="#D74A3D" transform="translate(0,0)"/>
<path d="" fill="#D74A3D" transform="translate(0,0)"/>
<path d="" fill="#D54A3C" transform="translate(0,0)"/>
<path d="" fill="#D74A3C" transform="translate(0,0)"/>
<path d="" fill="#D5493C" transform="translate(0,0)"/>
<path d="" fill="#D5493C" transform="translate(0,0)"/>
<path d="" fill="#D74A3D" transform="translate(0,0)"/>
<path d="" fill="#D4493D" transform="translate(0,0)"/>
<path d="" fill="#D54A3C" transform="translate(0,0)"/>
<path d="" fill="#D6493C" transform="translate(0,0)"/>
<path d="" fill="#D8483C" transform="translate(0,0)"/>
<path d="" fill="#D5493D" transform="translate(0,0)"/>
<path d="" fill="#D7493C" transform="translate(0,0)"/>
<path d="" fill="#D64A3C" transform="translate(0,0)"/>
<path d="" fill="#D4493C" transform="translate(0,0)"/>
<path d="" fill="#D54A3D" transform="translate(0,0)"/>
<path d="" fill="#CB4F3E" transform="translate(0,0)"/>
<path d="" fill="#D5493C" transform="translate(0,0)"/>
<path d="" fill="#CB513E" transform="translate(0,0)"/>
<path d="" fill="#CA4D40" transform="translate(0,0)"/>
<path d="" fill="#CF4E3F" transform="translate(0,0)"/>
<path d="" fill="#D54A3C" transform="translate(0,0)"/>
<path d="" fill="#D44B3B" transform="translate(0,0)"/>
<path d="" fill="#D44A3D" transform="translate(0,0)"/>
<path d="" fill="#D64B3D" transform="translate(0,0)"/>
<path d="" fill="#D34A3E" transform="translate(0,0)"/>
<path d="" fill="#D34B3D" transform="translate(0,0)"/>
<path d="" fill="#D34A3C" transform="translate(0,0)"/>
<path d="" fill="#D64B3B" transform="translate(0,0)"/>
<path d="" fill="#D24B3E" transform="translate(0,0)"/>
<path d="" fill="#D34C3C" transform="translate(0,0)"/>
<path d="" fill="#D44A3C" transform="translate(0,0)"/>
<path d="" fill="#D34B3A" transform="translate(0,0)"/>
<path d="" fill="#D44C3C" transform="translate(0,0)"/>
<path d="" fill="#D34B3D" transform="translate(0,0)"/>
<path d="" fill="#D24D3D" transform="translate(0,0)"/>
<path d="" fill="#D24C3D" transform="translate(0,0)"/>
<path d="" fill="#D35142" transform="translate(0,0)"/>
<path d="" fill="#D0493D" transform="translate(0,0)"/>
<path d="" fill="#D14F42" transform="translate(0,0)"/>
<path d="" fill="#D04A3C" transform="translate(0,0)"/>
<path d="" fill="#D9493F" transform="translate(0,0)"/>
<path d="" fill="#D04A3D" transform="translate(0,0)"/>
<path d="" fill="#CF4C3D" transform="translate(0,0)"/>
<path d="" fill="#CB513F" transform="translate(0,0)"/>
<path d="" fill="#CC5141" transform="translate(0,0)"/>
<path d="" fill="#CA523E" transform="translate(0,0)"/>
</svg>
