<?xml version="1.0" encoding="UTF-8"?>
<svg version="1.1" xmlns="http://www.w3.org/2000/svg" width="1024" height="1024">
<path d="M0 0 C32.27249062 0.08211627 64.54493364 0.17422003 96.8173546 0.28005161 C100.63702523 0.29256882 104.45669612 0.30500185 108.27636719 0.31738281 C109.03671836 0.31984881 109.79706953 0.3223148 110.58046165 0.32485552 C122.85333884 0.36445908 135.1262251 0.39726096 147.39912853 0.42749982 C160.01471055 0.45873626 172.63025448 0.49739658 185.24579358 0.54279006 C193.01522744 0.57051696 200.78463381 0.59261747 208.55410352 0.60726251 C214.53580288 0.61916178 220.51742011 0.64144532 226.49907684 0.66738319 C228.93530277 0.67637543 231.3715434 0.68212939 233.80778503 0.68421364 C251.84639409 0.70239315 269.64746895 1.14037107 287.25 5.4140625 C290.1834089 6.13892695 290.1834089 6.13892695 294 6 C294 6.66 294 7.32 294 8 C295.32185303 8.18550415 295.32185303 8.18550415 296.67041016 8.37475586 C299.78990594 8.96054767 302.35259959 9.78900388 305.2734375 11.00390625 C306.74514404 11.61371338 306.74514404 11.61371338 308.24658203 12.23583984 C309.27895996 12.6736377 310.31133789 13.11143555 311.375 13.5625 C312.44991699 14.0157666 313.52483398 14.4690332 314.63232422 14.93603516 C323.28301172 18.62161953 331.70161451 22.58394455 340 27 C340.8161377 27.43006348 341.63227539 27.86012695 342.47314453 28.30322266 C373.70147195 44.81019845 403.91951702 64.2557953 431 87 C431.85207031 87.67933594 432.70414063 88.35867188 433.58203125 89.05859375 C451.22864917 103.1397164 467.78167064 117.18708272 470.69921875 140.6796875 C471.04430504 144.48908164 471.07208688 148.17939529 471 152 C472.31253503 155.93760508 474.16924373 156.74399157 477.5625 159.0625 C479.40949974 160.325989 481.23200917 161.62813232 483 163 C483 163.66 483 164.32 483 165 C483.58628174 165.27239502 484.17256348 165.54479004 484.77661133 165.82543945 C486.95643194 166.97698409 488.67816489 168.22509294 490.57421875 169.79296875 C491.23679687 170.33695313 491.899375 170.8809375 492.58203125 171.44140625 C493.27683594 172.01761719 493.97164062 172.59382812 494.6875 173.1875 C496.13875286 174.37960057 497.59057053 175.5710139 499.04296875 176.76171875 C499.73438965 177.32938965 500.42581055 177.89706055 501.13818359 178.48193359 C503.23268475 180.18972381 505.35564853 181.85530324 507.5 183.5 C512.33766611 187.22269925 517.04979037 191.09733329 521.77856445 194.95654297 C526.20887027 198.56496953 530.67867258 202.11538158 535.1875 205.625 C540.9733063 210.13377382 546.58958657 214.8186747 552.16015625 219.58984375 C557.1334795 224.05185802 557.1334795 224.05185802 563 227 C564.68816933 228.64488294 566.35353315 230.31337542 568 232 C569.97748444 233.58198755 571.73973609 234.86986804 574 236 C574.92823702 236.99146059 575.81919308 238.01815277 576.6875 239.0625 C578.38755761 241.09672127 580.09517099 243.1046683 581.87890625 245.06640625 C582.80509766 246.08541016 582.80509766 246.08541016 583.75 247.125 C584.32234375 247.74632812 584.8946875 248.36765625 585.484375 249.0078125 C590.20597589 255.21404047 590.4162139 263.00345145 589.63671875 270.48828125 C586.23060026 290.2772028 575.78559119 306.84867572 563 322 C562.47277344 322.67289062 561.94554687 323.34578125 561.40234375 324.0390625 C552.84274531 334.5966016 537.52724855 346.43880452 524.265625 350.00390625 C520.44865529 352.33700615 520.29050531 353.10117886 519.1015625 357.25 C518.58428292 359.49436413 518.09387152 361.74502594 517.625 364 C517.04389715 366.47571618 516.45513556 368.94964514 515.859375 371.421875 C515.55708984 372.68708984 515.25480469 373.95230469 514.94335938 375.25585938 C505.5828434 412.40722402 488.03877903 448.94991138 469 482 C468.53658203 482.80711426 468.07316406 483.61422852 467.59570312 484.44580078 C454.05663251 507.87916478 438.25948208 529.67912537 421.47265625 550.8671875 C418.82045877 554.22747562 416.21532077 557.62110736 413.6328125 561.03515625 C411.5697566 563.51773309 409.28772584 565.72200917 407 568 C405.83405375 569.2511396 404.67431054 570.50807743 403.51953125 571.76953125 C402.91302734 572.43017578 402.30652344 573.09082031 401.68164062 573.77148438 C400.42046991 575.14862481 399.16272958 576.52891354 397.90820312 577.91210938 C397.30556641 578.56630859 396.70292969 579.22050781 396.08203125 579.89453125 C395.53780518 580.49112549 394.9935791 581.08771973 394.43286133 581.70239258 C393 583 393 583 391 583 C390.76925781 583.57363281 390.53851562 584.14726563 390.30078125 584.73828125 C384.31463661 595.14662283 367.06717913 604.11164994 357 610 C356.34 610 355.68 610 355 610 C355.61296562 604.76970343 357.29087003 600.45130455 359.3515625 595.6640625 C359.68868256 594.86704926 360.02580261 594.07003601 360.37313843 593.24887085 C361.45102501 590.7049543 362.53794358 588.16500955 363.625 585.625 C364.33260778 583.95727575 365.03964403 582.28930888 365.74609375 580.62109375 C368.48529211 574.16655152 371.22635985 567.71429079 374.08496094 561.31152344 C374.41192963 560.57654633 374.73889832 559.84156921 375.07577515 559.08432007 C375.69122825 557.70530318 376.31142729 556.32839106 376.93716431 554.95401001 C378.20671223 552.10914761 379 550.15521005 379 547 C379.66 547 380.32 547 381 547 C381.38027344 545.79214844 381.76054688 544.58429687 382.15234375 543.33984375 C384.28634578 536.94282655 386.94695071 530.77417054 389.5625 524.5625 C414.59729175 464.55382453 433.30344618 403.12779474 438 338 C437.01 337.67 436.02 337.34 435 337 C435.66 336.67 436.32 336.34 437 336 C434.12761966 335.19769334 431.25259904 334.40819974 428.375 333.625 C427.58609375 333.40328125 426.7971875 333.1815625 425.984375 332.953125 C413.83129355 329.67372207 401.74498347 328.63069717 389.1875 328.6875 C387.87305908 328.69313965 386.55861816 328.6987793 385.2043457 328.70458984 C365.33946635 328.9523336 347.01737085 333.23782663 329.90771484 343.54760742 C325.5965756 346.05849738 325.5965756 346.05849738 322.61474609 345.76611328 C319.72774452 344.92022991 317.55542329 343.75698578 314.9921875 342.18359375 C314.01822021 341.59175293 313.04425293 340.99991211 312.04077148 340.39013672 C310.99606689 339.7457666 309.9513623 339.10139648 308.875 338.4375 C307.21039107 337.42391675 305.54576488 336.41036097 303.8802948 335.39819336 C302.71848934 334.69185405 301.55721206 333.98464531 300.3964386 333.27661133 C293.78160317 329.24499683 287.10975959 325.31056621 280.4375 321.375 C273.57424734 317.32651851 266.73396149 313.26076109 260 309 C259.86589261 317.99543916 260.24421247 326.85028974 261 335.8125 C261.09539062 336.99392578 261.19078125 338.17535156 261.2890625 339.39257812 C261.52141494 342.26213071 261.75844474 345.13121003 262 348 C262.73702148 348.27908203 263.47404297 348.55816406 264.23339844 348.84570312 C266.74691065 349.89440465 268.94454819 351.05462624 271.265625 352.46875 C272.06363525 352.95182617 272.86164551 353.43490234 273.68383789 353.93261719 C274.53067139 354.44985352 275.37750488 354.96708984 276.25 355.5 C278.06604269 356.59955902 279.88245423 357.69850905 281.69921875 358.796875 C282.60075684 359.34279297 283.50229492 359.88871094 284.43115234 360.45117188 C287.9590183 362.57821822 291.50761714 364.66851962 295.0625 366.75 C303.79663347 371.87008289 312.50364258 377.03568786 321.20922852 382.20410156 C322.84782837 383.17621582 322.84782837 383.17621582 324.51953125 384.16796875 C325.5863916 384.80395996 326.65325195 385.43995117 327.75244141 386.09521484 C329.9837933 387.40396597 332.2320757 388.6841421 334.49365234 389.93994141 C335.59273926 390.55401855 336.69182617 391.1680957 337.82421875 391.80078125 C339.31634888 392.61736206 339.31634888 392.61736206 340.83862305 393.45043945 C341.90850464 394.21747192 341.90850464 394.21747192 343 395 C343 395.99 343 396.98 343 398 C341.99582031 398.556875 340.99164062 399.11375 339.95703125 399.6875 C332.40507363 403.89387719 324.94751259 408.19688581 317.609375 412.76953125 C313.1060497 415.5679524 308.5503197 418.2789418 304 421 C297.40388335 424.94639981 290.84055987 428.93659355 284.30859375 432.98828125 C281.73113167 434.55545123 279.14301449 436.09021792 276.53515625 437.60546875 C275.76324951 438.0545459 274.99134277 438.50362305 274.19604492 438.96630859 C272.6817442 439.84459346 271.16507703 440.71881447 269.64575195 441.58837891 C268.95570068 441.98847168 268.26564941 442.38856445 267.5546875 442.80078125 C266.94093262 443.15309814 266.32717773 443.50541504 265.69482422 443.8684082 C263.7577936 445.16171517 262.40416956 446.12129831 261 448 C260.40036602 451.04355063 260.40036602 451.04355063 260.26953125 454.53125 C260.18896484 455.81644531 260.10839844 457.10164063 260.02539062 458.42578125 C259.95419799 459.78384218 259.88323695 461.14191526 259.8125 462.5 C259.73107582 463.85814893 259.64840726 465.21622386 259.56445312 466.57421875 C259.14863914 473.28273913 259.14863914 473.28273913 259 480 C276.94983647 477.43573765 294.74871185 464.28718319 310.24609375 455.44140625 C311.28757568 454.84803467 312.32905762 454.25466309 313.40209961 453.64331055 C315.43293548 452.48409042 317.46119675 451.32034555 319.48657227 450.15161133 C320.40881592 449.62462646 321.33105957 449.0976416 322.28125 448.5546875 C323.09658203 448.08530762 323.91191406 447.61592773 324.75195312 447.13232422 C326.88363576 446.05861179 328.63767691 445.32623751 331 445 C333.1640625 446.37890625 333.1640625 446.37890625 335.625 448.5625 C336.58535156 449.38492187 337.54570313 450.20734375 338.53515625 451.0546875 C339.34750732 451.75223145 339.34750732 451.75223145 340.17626953 452.46386719 C350.52482492 461.18048171 361.18925093 469.98106183 373.5625 475.625 C376 477 376 477 376.76538086 478.84179688 C377.05644272 481.51920259 376.51324142 482.58041354 375.19140625 484.90625 C374.77785889 485.64464111 374.36431152 486.38303223 373.93823242 487.14379883 C373.25724487 488.31011841 373.25724487 488.31011841 372.5625 489.5 C371.87667847 490.70015747 371.87667847 490.70015747 371.17700195 491.92456055 C366.18393004 500.57232834 361.2573319 509.04505693 354 516 C353.30519531 516.680625 352.61039063 517.36125 351.89453125 518.0625 C339.67640461 529.432464 324.63941335 533.35325763 308.171875 533.1484375 C289.42170083 532.2709663 275.61685228 523.80538009 260.75 513.3125 C242.84521966 500.74723276 224.39949848 495.32575078 202.4375 499.0625 C189.69327243 501.92562323 179.53568127 508.25192662 170 517 C169.08476562 517.82242188 168.16953125 518.64484375 167.2265625 519.4921875 C159.76334398 526.53729854 154.2756205 534.24854887 149 543 C148.62133789 543.60956543 148.24267578 544.21913086 147.85253906 544.84716797 C133.17491519 568.78582511 125.97175509 599.6301807 121.93579102 627.1418457 C121.68529005 628.77186313 121.3513965 630.3887185 121 632 C120.34 632.33 119.68 632.66 119 633 C118.67 632.34 118.34 631.68 118 631 C117.01 630.67 116.02 630.34 115 630 C115 629.34 115 628.68 115 628 C113.75734375 627.77957031 112.5146875 627.55914063 111.234375 627.33203125 C105.16821955 625.97413111 99.81426363 623.4042463 94.25 620.6875 C92.6100708 619.89061768 92.6100708 619.89061768 90.93701172 619.07763672 C75.22820298 611.29727677 60.78545136 601.9447976 46.86181641 591.31689453 C46.1197998 590.75212402 45.3777832 590.18735352 44.61328125 589.60546875 C43.96141846 589.10168701 43.30955566 588.59790527 42.63793945 588.07885742 C41.04851324 586.8166444 41.04851324 586.8166444 39 587 C37.65963292 585.33898476 36.32754333 583.67128222 35 582 C33.36934446 580.6026784 31.69957932 579.25012153 30 577.9375 C25.53319318 574.35682085 21.3722677 570.59856547 17.3125 566.5625 C16.51875977 565.78217407 16.51875977 565.78217407 15.70898438 564.98608398 C12 561.24816165 12 561.24816165 12 559 C11.4225 558.76667969 10.845 558.53335938 10.25 558.29296875 C7.45231004 556.68526844 5.99951428 554.84597548 4 552.3125 C3.21367187 551.32121094 2.42734375 550.32992187 1.6171875 549.30859375 C1.1953418 548.77218262 0.77349609 548.23577148 0.33886719 547.68310547 C-1.04130548 545.9480744 -2.45018668 544.24020781 -3.8671875 542.53515625 C-42.66429444 495.56287652 -67.92769842 431.38646942 -68.203125 370.1484375 C-68.20882507 369.13190094 -68.21452515 368.11536438 -68.22039795 367.06802368 C-68.22979337 364.92166158 -68.23636004 362.77528542 -68.24023438 360.62890625 C-68.24982889 357.43201543 -68.28085892 354.23579997 -68.3125 351.0390625 C-68.40816548 332.46822434 -66.71746736 314.10630776 -62.75 295.9375 C-62.54020508 294.96184082 -62.33041016 293.98618164 -62.11425781 292.98095703 C-49.4194492 235.96423006 -15.59721859 177.39020881 31 141 C32.31144008 140.29123548 33.63904002 139.6082846 35 139 C35 138.34 35 137.68 35 137 C37.21566824 135.13386231 39.43979503 133.3668212 41.75 131.625 C45.72979305 128.59971016 49.56677308 125.65864081 53 122 C52.34515625 121.55011719 51.6903125 121.10023438 51.015625 120.63671875 C29.37973143 105.38769207 11.89576523 85.73941308 2 61 C2 60.34 2 59.68 2 59 C0.02 58.505 0.02 58.505 -2 58 C-1.01 57.34 -0.02 56.68 1 56 C0.34 55.67 -0.32 55.34 -1 55 C-1.5625 53.28515625 -1.5625 53.28515625 -2 51.0625 C-2.16371094 50.24265625 -2.32742188 49.4228125 -2.49609375 48.578125 C-2.74552734 47.30195313 -2.74552734 47.30195313 -3 46 C-3.26490234 44.84757812 -3.26490234 44.84757812 -3.53515625 43.671875 C-7.00488986 28.1480298 -6.38732625 14.5774569 0 0 Z M168 55 C164.40317205 83.53534963 168.39367862 119.99738674 185.98828125 143.67578125 C187.76126962 145.72418529 189.34587642 147.22266205 191.5625 148.75 C192.14128906 149.15734375 192.72007812 149.5646875 193.31640625 149.984375 C199.33977736 153.61796314 207.63685205 152.67020715 214.25390625 151.3515625 C228.72497593 147.19667869 239.64698549 140.65379016 250 130 C250.61617187 129.36964844 251.23234375 128.73929687 251.8671875 128.08984375 C256.00065451 123.56016358 258.98463619 118.3143114 262 113 C258.71000106 109.51021112 255.56032112 106.9046102 251.4140625 104.50390625 C250.3302832 103.8701709 249.24650391 103.23643555 248.12988281 102.58349609 C247.55902954 102.25436218 246.98817627 101.92522827 246.40002441 101.58612061 C243.97042849 100.18502188 241.55096816 98.76682953 239.13085938 97.34942627 C237.88979903 96.62266048 236.64825991 95.89671166 235.40625 95.17156982 C229.64672786 91.80595366 223.94109986 88.35501558 218.25 84.875 C217.32469482 84.30958496 216.39938965 83.74416992 215.44604492 83.16162109 C213.58052178 82.02133531 211.71520548 80.88071106 209.85009766 79.73974609 C206.88687766 77.93094828 203.91872963 76.13048081 200.94921875 74.33203125 C191.35434014 68.51676574 181.79928062 62.67986048 172.44921875 56.4765625 C170.19117776 54.8278992 170.19117776 54.8278992 168 55 Z M372 161 C373.09369172 173.57745477 379.66844786 184.497994 388.66015625 193.14453125 C398.10869581 200.63711271 409.07933674 203.88683135 421 203 C422.7072193 201.2927807 422.13014326 199.08062795 422.1328125 196.75 C422.13410156 195.66589844 422.13539063 194.58179688 422.13671875 193.46484375 C422.13091797 191.74974609 422.13091797 191.74974609 422.125 190 C422.12886719 188.88753906 422.13273437 187.77507812 422.13671875 186.62890625 C422.12930499 180.33462366 421.8328223 174.23955758 421 168 C412.87685529 165.45964386 404.7393145 164.09395589 396.31005859 163.06469727 C394.23795226 162.81102509 392.16785941 162.54411188 390.09765625 162.27539062 C384.03089529 161.50832525 378.12850839 160.9035998 372 161 Z M212 306 C195.46088142 342.67070359 181.20370426 380.48110825 166.56616211 417.93945312 C163.60395932 425.50518479 160.5691578 433.03954949 157.5 440.5625 C157.05261475 441.65941162 156.60522949 442.75632324 156.14428711 443.88647461 C154.00241125 449.12830194 151.85072975 454.3658693 149.68096924 459.59620667 C148.90703908 461.46362027 148.13571259 463.33208754 147.36523438 465.20092773 C146.39528386 467.55159582 145.42028219 469.9001881 144.43945312 472.24633789 C144.00310547 473.3058667 143.56675781 474.36539551 143.1171875 475.45703125 C142.73159668 476.38491455 142.34600586 477.31279785 141.94873047 478.26879883 C140.94067005 481.17079882 140.4209927 483.96164035 140 487 C148.26353342 487.23647631 155.93173423 486.84532957 164 485 C164.63808594 484.87496094 165.27617187 484.74992188 165.93359375 484.62109375 C166.61550781 484.41613281 167.29742187 484.21117187 168 484 C168.969375 483.73316406 169.93875 483.46632813 170.9375 483.19140625 C175.88244648 479.65299429 177.00545061 474.53070303 179 468.9375 C179.71959418 467.00356912 180.4476288 465.07294371 181.17604065 463.14231873 C181.68603953 461.78948164 182.19367653 460.43575207 182.69908142 459.08119202 C185.06726978 452.74868765 187.63726429 446.50711589 190.24508667 440.2696228 C197.38062855 423.18508159 204.21901302 405.98159622 211.07648087 388.78425598 C220.09705238 366.16254851 229.21408954 343.59163772 238.68261719 321.15283203 C240.50614595 316.78866404 242.26732679 312.40093865 244 308 C240.48575476 306.94044752 237.14344126 306.80001859 233.484375 306.68359375 C232.23398437 306.64169922 230.98359375 306.59980469 229.6953125 306.55664062 C228.39335937 306.51732422 227.09140625 306.47800781 225.75 306.4375 C223.77386719 306.37272461 223.77386719 306.37272461 221.7578125 306.30664062 C218.50531212 306.20058083 215.25273608 306.09851976 212 306 Z M125.734375 312.61328125 C125.10396301 312.98349899 124.47355103 313.35371674 123.82403564 313.7351532 C121.79815518 314.92557147 119.77408162 316.11902622 117.75 317.3125 C116.39985354 318.10631364 115.0495945 318.89993584 113.69921875 319.69335938 C108.45478599 322.77674868 103.21268246 325.86308216 98 329 C84.9140625 336.8515625 84.9140625 336.8515625 71.828125 344.703125 C70.78857666 345.32687012 69.74902832 345.95061523 68.67797852 346.59326172 C66.54831583 347.87102661 64.41859518 349.1486949 62.28881836 350.42626953 C57.43730616 353.33665594 52.58637538 356.24798526 47.73828125 359.1640625 C38.90660119 364.47432109 30.05830345 369.75530998 21.1875 375 C20.27395752 375.54027832 19.36041504 376.08055664 18.41918945 376.63720703 C13.63344147 379.46229764 8.83326767 382.25697223 4 385 C4.38625273 391.87123271 4.84905736 398.73743457 5.75 405.5625 C5.86859375 406.49191406 5.9871875 407.42132812 6.109375 408.37890625 C8.50995415 415.44376857 16.11076522 418.71065983 22.1875 422.25 C23.10208984 422.79140625 24.01667969 423.3328125 24.95898438 423.890625 C29.42134734 426.55117258 29.42134734 426.55117258 34 429 C35.41433533 429.86611236 36.82219779 430.74281247 38.2265625 431.625 C50.51154892 439.31749148 50.51154892 439.31749148 63.0625 446.5625 C68.88399742 449.78276188 74.61555524 453.12650002 80.3125 456.5625 C81.12775146 457.05379395 81.94300293 457.54508789 82.78295898 458.05126953 C83.63188721 458.56286621 84.48081543 459.07446289 85.35546875 459.6015625 C91.34239519 463.20949903 97.33839702 466.80196423 103.34506226 470.37692261 C105.07704751 471.40892747 106.80674634 472.44476652 108.53637695 473.48071289 C118.2360574 480.29703326 118.2360574 480.29703326 129 484 C129.34944514 478.9065691 129.34944514 478.9065691 129.57861328 473.80688477 C129.72784567 469.37553549 130.10048251 465.27764027 131.0859375 460.94921875 C132.07560055 455.58780405 132.64112086 450.95297731 130 446 C122.84248274 439.33007891 113.53237333 435.25321684 104.83886719 430.95214844 C99.37541814 428.22093214 94.23150695 424.99575035 89.0625 421.75 C87.2217726 420.61958941 85.37933366 419.49196089 83.53515625 418.3671875 C82.63297363 417.81643555 81.73079102 417.26568359 80.80126953 416.69824219 C75.88929536 413.72040601 70.94643602 410.7951303 66 407.875 C65.09773682 407.34229492 64.19547363 406.80958984 63.26586914 406.26074219 C62.41500732 405.75961914 61.56414551 405.25849609 60.6875 404.7421875 C59.88828125 404.27135742 59.0890625 403.80052734 58.265625 403.31542969 C56.17146965 402.09955587 54.05797986 400.92687787 51.9375 399.7578125 C49 398 49 398 48 396 C48.87350098 395.73227783 49.74700195 395.46455566 50.64697266 395.1887207 C53.89088918 394.03868214 56.65657035 392.67138022 59.6484375 390.98046875 C60.72440186 390.3767041 61.80036621 389.77293945 62.90893555 389.15087891 C64.05273682 388.50296387 65.19653809 387.85504883 66.375 387.1875 C68.80457169 385.82168628 71.23627703 384.45969103 73.66796875 383.09765625 C74.28184952 382.75321472 74.89573029 382.40877319 75.5282135 382.05389404 C81.54738681 378.68129644 87.61286702 375.39652157 93.6875 372.125 C102.84883302 367.18051523 111.9664977 362.1744249 121 357 C121.89589844 356.51015625 122.79179687 356.0203125 123.71484375 355.515625 C127.56279557 353.4974733 127.56279557 353.4974733 129.64428711 349.90942383 C130.12083687 346.01165891 130.45997937 342.11466163 130.75390625 338.19921875 C130.81907944 337.36284378 130.88425262 336.52646881 130.95140076 335.66474915 C131.1579367 333.0058765 131.36027644 330.34670376 131.5625 327.6875 C131.70219676 325.87953585 131.84216766 324.07159286 131.98242188 322.26367188 C132.32479069 317.84268673 132.66339771 313.42142778 133 309 C130.56920931 309 127.83253547 311.37371747 125.734375 312.61328125 Z " fill="#4AA35A" transform="translate(277,189)"/>
<path d="M0 0 C6.28901979 0.51269183 11.30662635 2.60730199 17 5.25 C17.95841797 5.69110107 18.91683594 6.13220215 19.90429688 6.58666992 C29.95664763 11.30627149 39.57379923 16.72723453 49.15185547 22.33544922 C51.94804634 23.96963655 54.75580341 25.58216142 57.56640625 27.19140625 C70.82293139 34.8358771 83.49481047 43.18574887 96 52 C96.83644043 52.5887793 97.67288086 53.17755859 98.53466797 53.78417969 C107.6375286 60.2163141 116.46360841 66.83050314 125 74 C125.85207031 74.67933594 126.70414063 75.35867188 127.58203125 76.05859375 C145.22864917 90.1397164 161.78167064 104.18708272 164.69921875 127.6796875 C165.04430504 131.48908164 165.07208688 135.17939529 165 139 C166.31253503 142.93760508 168.16924373 143.74399157 171.5625 146.0625 C173.40949974 147.325989 175.23200917 148.62813232 177 150 C177 150.66 177 151.32 177 152 C177.58628174 152.27239502 178.17256348 152.54479004 178.77661133 152.82543945 C180.95643194 153.97698409 182.67816489 155.22509294 184.57421875 156.79296875 C185.56808594 157.60894531 185.56808594 157.60894531 186.58203125 158.44140625 C187.62423828 159.30572266 187.62423828 159.30572266 188.6875 160.1875 C190.13875286 161.37960057 191.59057053 162.5710139 193.04296875 163.76171875 C193.73438965 164.32938965 194.42581055 164.89706055 195.13818359 165.48193359 C197.23268475 167.18972381 199.35564853 168.85530324 201.5 170.5 C206.33766611 174.22269925 211.04979037 178.09733329 215.77856445 181.95654297 C220.20887027 185.56496953 224.67867258 189.11538158 229.1875 192.625 C234.9733063 197.13377382 240.58958657 201.8186747 246.16015625 206.58984375 C251.1334795 211.05185802 251.1334795 211.05185802 257 214 C258.68816933 215.64488294 260.35353315 217.31337542 262 219 C263.97748444 220.58198755 265.73973609 221.86986804 268 223 C268.92823702 223.99146059 269.81919308 225.01815277 270.6875 226.0625 C272.38755761 228.09672127 274.09517099 230.1046683 275.87890625 232.06640625 C276.49636719 232.74574219 277.11382813 233.42507813 277.75 234.125 C278.32234375 234.74632812 278.8946875 235.36765625 279.484375 236.0078125 C284.20597589 242.21404047 284.4162139 250.00345145 283.63671875 257.48828125 C279.83902077 279.55220753 267.08778276 299.71660638 251 315 C250.34 314.67 249.68 314.34 249 314 C249.66644531 313.33097656 250.33289063 312.66195313 251.01953125 311.97265625 C266.97637005 295.51908378 279.97662449 274.61618245 280.4375 251.1875 C280.45989746 250.48206055 280.48229492 249.77662109 280.50537109 249.04980469 C280.47040144 241.24973223 276.39635697 235.877851 271.296875 230.22265625 C267.37406428 226.42660302 263.02864012 223.18603024 258.69921875 219.87109375 C255.09923511 217.10572472 251.63337032 214.20396724 248.1875 211.25 C243.95410246 207.63029373 239.66020734 204.12546047 235.23828125 200.73828125 C231.67992731 197.97481266 228.21492922 195.09868147 224.734375 192.23828125 C222.27399978 190.22428839 219.79894443 188.23164615 217.3125 186.25 C213.6260957 183.31139245 209.96350839 180.34520894 206.30957031 177.36645508 C200.05100232 172.26449063 193.75665304 167.21920692 187.38671875 162.25708008 C181.67038901 157.78304061 176.08356982 153.15388239 170.50805664 148.50610352 C169.47539673 147.64843384 169.47539673 147.64843384 168.421875 146.7734375 C167.80924805 146.26216309 167.19662109 145.75088867 166.56542969 145.22412109 C165.00266066 143.91855016 165.00266066 143.91855016 163 143 C162.09453188 140.28359563 161.77838262 138.25301293 161.5703125 135.4296875 C161.49683594 134.5325 161.42335938 133.6353125 161.34765625 132.7109375 C161.20109473 130.84420659 161.06031437 128.97701131 160.92578125 127.109375 C159.4415499 109.44953757 149.56786833 98.01099487 136.375 86.76171875 C134.5577718 85.27465556 132.73060884 83.79966369 130.89453125 82.3359375 C128.36748007 80.29656286 125.90963931 78.19643713 123.46166992 76.06347656 C116.09881925 69.67833633 108.26457265 64.11142749 100.25 58.57983398 C97.69035783 56.78258524 95.16997541 54.93624095 92.6484375 53.0859375 C76.22640461 41.10899813 58.85764515 30.67414334 41 21 C40.0193457 20.46713379 39.03869141 19.93426758 38.02832031 19.38525391 C27.55406163 13.72381614 17.10530083 8.28593349 5.96142578 4.05322266 C1.09415337 2.18830673 1.09415337 2.18830673 0 0 Z " fill="#307C39" transform="translate(583,202)"/>
<path d="M0 0 C32.56186151 0.08186643 65.12367439 0.17385998 97.68546521 0.28005161 C101.52704492 0.29257094 105.36862491 0.30500364 109.21020508 0.31738281 C109.97501553 0.31984881 110.73982598 0.3223148 111.5278125 0.32485552 C123.92210509 0.36461198 136.31640682 0.39734652 148.71072606 0.42749982 C161.42227761 0.45858067 174.13379021 0.49717555 186.84529799 0.54279006 C194.69309054 0.57071323 202.5408545 0.5927296 210.38868346 0.60726251 C216.39980112 0.61902092 222.41083328 0.64121825 228.42190742 0.66738319 C230.89268725 0.67648564 233.36348237 0.68215537 235.83427811 0.68421364 C239.19645654 0.68751738 242.55836297 0.70294346 245.92048645 0.7215271 C247.40150281 0.718625 247.40150281 0.718625 248.91243869 0.71566427 C249.8101611 0.72312976 250.70788352 0.73059525 251.63280964 0.73828697 C252.40933771 0.74056529 253.18586579 0.74284362 253.98592502 0.74519098 C256 1 256 1 259 3 C173.86 3 88.72 3 1 3 C-0.98249656 11.59081845 -2.47060707 18.72973676 -2.6875 27.3125 C-2.72166016 28.25544922 -2.75582031 29.19839844 -2.79101562 30.16992188 C-2.87190909 32.4464951 -2.94154298 34.72276006 -3 37 C-3.66 36.67 -4.32 36.34 -5 36 C-7.47415319 23.46181015 -5.06207443 11.55290477 0 0 Z " fill="#2E7937" transform="translate(277,189)"/>
<path d="M0 0 C1.6289324 3.01097699 2.62960437 5.92353829 3.515625 9.2265625 C3.7935791 10.2484668 4.0715332 11.27037109 4.35791016 12.32324219 C4.6522998 13.41282227 4.94668945 14.50240234 5.25 15.625 C13.01979808 43.63139084 23.35237311 70.36611742 39 95 C39.4832373 95.76344727 39.96647461 96.52689453 40.46435547 97.31347656 C46.72179072 107.11604516 53.41350464 116.46616977 60.76660156 125.47412109 C61.88458315 126.85721391 62.97155154 128.26523346 64.0546875 129.67578125 C74.33068235 142.85064624 86.7201445 154.88106819 100 165 C100.96421875 165.76957031 101.9284375 166.53914062 102.921875 167.33203125 C111.21297902 173.91472081 119.94893658 179.77068117 128.80859375 185.55639648 C130.30841623 186.54441457 131.80029895 187.5445624 133.28515625 188.55493164 C137.89066758 191.68493364 142.49772358 194.49182731 147.5 196.9375 C148.17216553 197.26959473 148.84433105 197.60168945 149.53686523 197.94384766 C154.64071476 200.42597367 159.82017866 202.70204396 165.0625 204.875 C165.75214844 205.16109131 166.44179688 205.44718262 167.15234375 205.74194336 C171.37871198 207.45273857 175.59552623 208.82012796 180 210 C180.66 206.7 181.32 203.4 182 200 C182.33 200 182.66 200 183 200 C183.08970351 205.11310018 183.0283474 209.96109772 182 215 C181.34 215.33 180.68 215.66 180 216 C179.67 215.34 179.34 214.68 179 214 C178.01 213.67 177.02 213.34 176 213 C176 212.34 176 211.68 176 211 C174.75734375 210.77957031 173.5146875 210.55914063 172.234375 210.33203125 C166.16821955 208.97413111 160.81426363 206.4042463 155.25 203.6875 C153.6100708 202.89061768 153.6100708 202.89061768 151.93701172 202.07763672 C136.22820298 194.29727677 121.78545136 184.9447976 107.86181641 174.31689453 C107.1197998 173.75212402 106.3777832 173.18735352 105.61328125 172.60546875 C104.96141846 172.10168701 104.30955566 171.59790527 103.63793945 171.07885742 C102.04851324 169.8166444 102.04851324 169.8166444 100 170 C98.65963292 168.33898476 97.32754333 166.67128222 96 165 C94.36934446 163.6026784 92.69957932 162.25012153 91 160.9375 C86.53319318 157.35682085 82.3722677 153.59856547 78.3125 149.5625 C77.78333984 149.04228271 77.25417969 148.52206543 76.70898438 147.98608398 C73 144.24816165 73 144.24816165 73 142 C72.4225 141.76667969 71.845 141.53335938 71.25 141.29296875 C68.45231004 139.68526844 66.99951428 137.84597548 65 135.3125 C64.21367187 134.32121094 63.42734375 133.32992187 62.6171875 132.30859375 C61.98441895 131.50397705 61.98441895 131.50397705 61.33886719 130.68310547 C59.95869452 128.9480744 58.54981332 127.24020781 57.1328125 125.53515625 C32.17298917 95.31589775 -2.87214842 41.16746071 0 0 Z " fill="#2D7734" transform="translate(216,606)"/>
<path d="M0 0 C6.33379217 0.32030597 10.58296918 3.65350279 15.6875 7.0625 C24.19277146 12.61342241 32.80318503 17.92182606 41.5625 23.0625 C50.71872445 28.44344752 59.80311949 33.92023431 68.81665039 39.53686523 C77.06865335 44.67781678 85.3760457 49.72989174 93.78125 54.6171875 C96 56 96 56 98 58 C97.68031589 61.94277072 96.28521123 64.80070428 94 68 C93.34 68 92.68 68 92 68 C91.87818359 68.84111328 91.87818359 68.84111328 91.75390625 69.69921875 C90.12532937 74.6693316 85.57121418 78.31450697 82 82 C81.39027344 82.63550781 80.78054688 83.27101563 80.15234375 83.92578125 C74.4818999 89.34697482 64.04578794 97 56 97 C56 96.34 56 95.68 56 95 C57.01578125 94.55011719 58.0315625 94.10023438 59.078125 93.63671875 C75.40276232 86.12232954 87.13016543 75.34638544 95 59 C77.88697264 48.18477929 60.55968415 37.70553217 43.1875 27.3125 C36.85989378 23.52479639 30.55235637 19.70456553 24.25 15.875 C23.30278076 15.30048096 22.35556152 14.72596191 21.37963867 14.1340332 C14.86631413 10.17154792 8.41751582 6.11575019 2 2 C1.61987319 30.74051068 2.57861564 63.22875919 19 88 C19.99771429 89.00228049 20.9969743 90.00303488 22 91 C22 91.66 22 92.32 22 93 C22.804375 93.4021875 22.804375 93.4021875 23.625 93.8125 C25.31365701 94.65682851 26.96795161 95.57144131 28.59375 96.53125 C32.79517052 98.34287169 36.35182327 98.55333798 40.875 98.6875 C41.65875 98.72166016 42.4425 98.75582031 43.25 98.79101562 C45.16618748 98.87280412 47.08306715 98.9380946 49 99 C43.57382724 102.34434906 37.12189805 101.64658249 31 101 C27.71614622 99.90538207 25.53245379 98.33382996 23 96 C22.00419922 95.10474609 22.00419922 95.10474609 20.98828125 94.19140625 C12.87000818 86.01127967 8.37908537 74.77041602 5.5078125 63.7578125 C5.15021472 61.98918894 5.15021472 61.98918894 4 61 C3.64228522 59.31757571 3.34031384 57.62322958 3.0625 55.92578125 C2.89008789 54.87253662 2.71767578 53.81929199 2.54003906 52.73413086 C2.36182617 51.60499268 2.18361328 50.47585449 2 49.3125 C1.81920898 48.16724854 1.63841797 47.02199707 1.45214844 45.84204102 C-0.82980217 31.02302015 -2.88937195 14.85962716 0 0 Z " fill="#2E7B36" transform="translate(443,242)"/>
<path d="M0 0 C11.22 0 22.44 0 34 0 C34.495 0.99 34.495 0.99 35 2 C27.713573 3.03435084 20.77627572 2.94735442 13.4375 2.5625 C11.78137695 2.48418945 11.78137695 2.48418945 10.09179688 2.40429688 C7.39415864 2.27583791 4.6970101 2.14093867 2 2 C-13.02556752 38.89294335 -27.93602275 75.83784053 -42.43457031 112.94140625 C-47.16112004 125.01311408 -52.08343466 137.00473461 -57 149 C-58.53002587 152.73307927 -60.05942134 156.46641169 -61.5859375 160.20092773 C-62.54638981 162.55012929 -63.50853869 164.89863818 -64.47265625 167.24633789 C-64.90578125 168.3058667 -65.33890625 169.36539551 -65.78515625 170.45703125 C-66.35568726 171.8488562 -66.35568726 171.8488562 -66.93774414 173.26879883 C-68.0585905 176.15064398 -69.04522721 179.0593864 -70 182 C-66.76963557 181.72073847 -63.54105565 181.42439547 -60.3125 181.125 C-59.40048828 181.04636719 -58.48847656 180.96773437 -57.54882812 180.88671875 C-52.9843426 180.45516739 -49.22004443 179.88957213 -45 178 C-42.6679198 177.92353835 -40.33154122 177.90856701 -38 178 C-39 180 -39 180 -42.03515625 181.03515625 C-43.37417605 181.39077256 -44.71699327 181.73227488 -46.0625 182.0625 C-46.76898682 182.2380542 -47.47547363 182.4136084 -48.20336914 182.59448242 C-55.71032517 184.34292751 -63.29592603 185.04957577 -71 185 C-72 184 -72 184 -72.24780273 181.41577148 C-71.95112382 177.32627915 -70.65952363 174.05408734 -69.03515625 170.34765625 C-68.57190948 169.2543676 -68.57190948 169.2543676 -68.0993042 168.13899231 C-67.43830126 166.58180326 -66.77254353 165.0266254 -66.10244751 163.47332764 C-64.35485196 159.42201582 -62.64110534 155.35637753 -60.921875 151.29296875 C-60.58126541 150.49082947 -60.24065582 149.68869019 -59.88972473 148.86224365 C-56.03379067 139.76457906 -52.45759092 130.56475396 -48.90893555 121.34350586 C-47.30767207 117.21497292 -45.65178039 113.10852198 -44 109 C-42.28104177 104.71448806 -40.56312192 100.42856082 -38.84594727 96.14233398 C-38.32575154 94.8443573 -37.80524623 93.54650465 -37.28442383 92.2487793 C-34.16107012 84.46549604 -31.0858025 76.66635537 -28.08764648 68.83374023 C-24.66119199 59.90649953 -21.04611133 51.05362058 -17.3515625 42.234375 C-13.80305254 33.74256504 -10.27647566 25.2393882 -6.875 16.6875 C-4.64068633 11.10171583 -2.31387449 5.55329877 0 0 Z " fill="#2D7A34" transform="translate(487,494)"/>
<path d="M0 0 C0 3 0 3 -1.66015625 4.7265625 C-6.80146588 8.78945108 -12.0835026 12.42903337 -17.6875 15.8125 C-18.30439697 16.1852002 -18.92129395 16.55790039 -19.55688477 16.94189453 C-20.16072998 17.29751465 -20.7645752 17.65313477 -21.38671875 18.01953125 C-21.98194336 18.37096191 -22.57716797 18.72239258 -23.19042969 19.08447266 C-25 20 -25 20 -28.74609375 21.01171875 C-32.55415797 23.33861514 -32.71107184 24.10961133 -33.8984375 28.25 C-34.41571708 30.49436413 -34.90612848 32.74502594 -35.375 35 C-35.95610285 37.47571618 -36.54486444 39.94964514 -37.140625 42.421875 C-37.44291016 43.68708984 -37.74519531 44.95230469 -38.05664062 46.25585938 C-47.4171566 83.40722402 -64.96122097 119.94991138 -84 153 C-84.46341797 153.80711426 -84.92683594 154.61422852 -85.40429688 155.44580078 C-97.86618354 177.01477952 -111.91236566 197.95038245 -128 217 C-128.66 216.67 -129.32 216.34 -130 216 C-128.80117188 214.45505859 -128.80117188 214.45505859 -127.578125 212.87890625 C-115.99961966 197.89297157 -105.15301 182.69993036 -95.46264648 166.42041016 C-94.39559326 164.65463389 -93.30903372 162.90060258 -92.21118164 161.15380859 C-87.13216461 153.05478453 -82.53723488 144.77583883 -78.09057617 136.31689453 C-76.94075892 134.13119492 -75.78241716 131.95017576 -74.62304688 129.76953125 C-67.9520864 117.16775422 -61.70817969 104.45585782 -56.76904297 91.06103516 C-55.85467557 88.61053052 -54.91359913 86.17089133 -53.97265625 83.73046875 C-43.32522963 56.10520506 -43.32522963 56.10520506 -36.3659668 27.39111328 C-35.79625114 24.34606874 -35.36909422 22.37776951 -33.171875 20.12890625 C-30.97506965 18.9870416 -28.84241133 18.11282387 -26.5 17.3125 C-16.60806532 13.49558264 -8.18400952 6.61334102 0 0 Z " fill="#2F7A36" transform="translate(830,518)"/>
<path d="M0 0 C0.94230469 0.04253906 1.88460937 0.08507812 2.85546875 0.12890625 C18.03949784 1.23533938 30.8909781 9.31076162 42.9375 18 C53.01955807 25.26461931 62.93064183 30.75702924 75 34 C75 34.33 75 34.66 75 35 C62.2206143 34.18861043 51.10491115 27.83795336 41.0625 20.0625 C23.90537193 6.85927799 5.92942363 1.0017309 -15.8203125 3.42578125 C-30.12426825 5.85954408 -41.39369001 12.26972741 -52 22 C-52.91523438 22.82242188 -53.83046875 23.64484375 -54.7734375 24.4921875 C-62.23665602 31.53729854 -67.7243795 39.24854887 -73 48 C-73.37866211 48.60956543 -73.75732422 49.21913086 -74.14746094 49.84716797 C-85.2759686 67.99734895 -91.5674166 90.29255817 -96 111 C-96.66 111 -97.32 111 -98 111 C-97.44343168 104.92562534 -96.49419768 99.29528262 -94.8125 93.4375 C-94.59400391 92.66591553 -94.37550781 91.89433105 -94.15039062 91.09936523 C-84.12511733 56.56512277 -66.57237244 24.48815146 -34.5625 6.125 C-23.30638679 0.35640928 -12.49890577 -0.57002796 0 0 Z " fill="#2E7A35" transform="translate(499,684)"/>
<path d="M0 0 C2.52585114 1.5121872 4.39909716 3.10973421 6.5 5.171875 C17.11972926 14.98202849 28.97089288 23.87336161 42.1015625 29.9921875 C44.375 31.421875 44.375 31.421875 45.13012695 33.26708984 C45.43457238 35.94608822 44.88949802 37.00007749 43.56640625 39.328125 C42.94608521 40.43571167 42.94608521 40.43571167 42.31323242 41.56567383 C41.63224487 42.73199341 41.63224487 42.73199341 40.9375 43.921875 C40.48028564 44.72197998 40.02307129 45.52208496 39.55200195 46.34643555 C34.55893004 54.99420334 29.6323319 63.46693193 22.375 70.421875 C21.68019531 71.1025 20.98539063 71.783125 20.26953125 72.484375 C7.91847393 83.97804185 -7.12811277 87.69415444 -23.734375 87.58984375 C-27.33505571 87.38061501 -30.24700387 86.65023723 -33.625 85.421875 C-33.625 85.091875 -33.625 84.761875 -33.625 84.421875 C-32.83440186 84.4125293 -32.04380371 84.40318359 -31.22924805 84.39355469 C-27.58973821 84.3393249 -23.95144193 84.25578043 -20.3125 84.171875 C-19.06919922 84.15769531 -17.82589844 84.14351562 -16.54492188 84.12890625 C-9.31575445 83.93916432 -3.39560478 83.08685461 3.28979492 80.27050781 C5.375 79.421875 5.375 79.421875 7.375 79.421875 C7.375 78.761875 7.375 78.101875 7.375 77.421875 C8.32375 77.1125 9.2725 76.803125 10.25 76.484375 C26.96401227 69.08581826 34.99321238 48.9277529 42.375 33.421875 C38.91 31.936875 38.91 31.936875 35.375 30.421875 C35.375 29.761875 35.375 29.101875 35.375 28.421875 C34.66601562 28.16535156 33.95703125 27.90882813 33.2265625 27.64453125 C22.96754159 23.24580037 13.34441614 15.21606366 5.37890625 7.484375 C4.80011719 6.9275 4.22132813 6.370625 3.625 5.796875 C3.15578125 5.30960938 2.6865625 4.82234375 2.203125 4.3203125 C-0.91753127 2.78665664 -3.46517412 3.3594774 -6.625 4.421875 C-10.77878986 6.51854277 -14.72418604 8.92542261 -18.6875 11.359375 C-20.80026868 12.6444611 -22.91606416 13.92458685 -25.03515625 15.19921875 C-25.96465088 15.76890381 -26.89414551 16.33858887 -27.85180664 16.92553711 C-30.71521591 18.47055299 -33.51488071 19.48485739 -36.625 20.421875 C-36.625 19.761875 -36.625 19.101875 -36.625 18.421875 C-34.82421875 17.125 -34.82421875 17.125 -32.3125 15.671875 C-31.3946875 15.13949219 -30.476875 14.60710938 -29.53125 14.05859375 C-25.89438089 12.01041075 -22.24923335 9.98405495 -18.56640625 8.01953125 C-16.42766171 6.85784929 -14.31323725 5.65104534 -12.21484375 4.41796875 C-11.07144531 3.75925781 -9.92804687 3.10054687 -8.75 2.421875 C-7.70070313 1.803125 -6.65140625 1.184375 -5.5703125 0.546875 C-2.625 -0.578125 -2.625 -0.578125 0 0 Z " fill="#2E7A35" transform="translate(608.625,634.578125)"/>
<path d="M0 0 C4.28278648 0.92215899 7.66131564 3.00590196 11.375 5.25 C12.91661626 6.16935537 14.45828548 7.08862193 16 8.0078125 C16.81597656 8.49668945 17.63195312 8.98556641 18.47265625 9.48925781 C21.86928904 11.51962525 25.27784907 13.52948583 28.68652344 15.53955078 C35.79184501 19.72970319 42.88928101 23.93318313 49.984375 28.140625 C50.87493088 28.66866226 50.87493088 28.66866226 51.78347778 29.20736694 C54.67680866 30.9229652 57.56984992 32.63904625 60.46240234 34.35595703 C61.5292627 34.98872559 62.59612305 35.62149414 63.6953125 36.2734375 C64.73075195 36.89057617 65.76619141 37.50771484 66.83300781 38.14355469 C69.03031446 39.43158427 71.24467497 40.69078586 73.47167969 41.92675781 C75.12151855 42.84859863 75.12151855 42.84859863 76.8046875 43.7890625 C77.80226074 44.3351416 78.79983398 44.8812207 79.82763672 45.44384766 C80.5445166 45.95737793 81.26139648 46.4709082 82 47 C82 47.99 82 48.98 82 50 C80.99582031 50.556875 79.99164062 51.11375 78.95703125 51.6875 C71.40507363 55.89387719 63.94751259 60.19688581 56.609375 64.76953125 C52.1060497 67.5679524 47.5503197 70.2789418 43 73 C37.41572471 76.34102384 31.84363346 79.69666885 26.3125 83.125 C24.20948102 84.41853443 22.10520831 85.71003174 20 87 C19.29117676 87.43683105 18.58235352 87.87366211 17.85205078 88.32373047 C15.53280404 89.74753779 13.20493079 91.15625798 10.875 92.5625 C9.77152222 93.2443335 9.77152222 93.2443335 8.64575195 93.93994141 C6.80899699 95.03920655 4.90783079 96.02931246 3 97 C2.01 96.67 1.02 96.34 0 96 C9.47110485 90.10644966 19.03768395 84.37698059 28.61157227 78.65234375 C34.74199688 74.97895622 40.83514724 71.257826 46.875 67.4375 C51.94496833 64.23077079 57.08707736 61.25367046 62.390625 58.44921875 C66.31611759 56.26904248 70.04385455 53.80019971 73.78515625 51.3203125 C76 50 76 50 78 50 C78 49.01 78 48.02 78 47 C77.27417725 46.72687988 76.54835449 46.45375977 75.80053711 46.17236328 C73.09716719 45.04067622 70.7028875 43.74721942 68.19140625 42.2421875 C66.83535278 41.43418701 66.83535278 41.43418701 65.4519043 40.60986328 C64.49840088 40.0373584 63.54489746 39.46485352 62.5625 38.875 C60.56037342 37.68149015 58.55777063 36.48877876 56.5546875 35.296875 C55.59014648 34.72259766 54.62560547 34.14832031 53.63183594 33.55664062 C50.50437959 31.70685754 47.35291132 29.9089974 44.1875 28.125 C37.50252765 24.32929536 30.90667385 20.38852079 24.3125 16.4375 C22.74375122 15.49898193 22.74375122 15.49898193 21.14331055 14.54150391 C16.00261038 11.45310663 10.88105709 8.33456488 5.79296875 5.16015625 C4.89473389 4.60078369 3.99649902 4.04141113 3.07104492 3.46508789 C1 2 1 2 0 0 Z " fill="#2E7B36" transform="translate(538,537)"/>
<path d="M0 0 C2.79186653 2.79186653 3.48963601 6.14090758 4.6875 9.8125 C10.41504841 26.60551609 19.85620233 40.18264749 32 53 C32.82113281 53.88558594 33.64226562 54.77117187 34.48828125 55.68359375 C41.64690762 63.16038129 49.53238377 69.09209502 58 75 C54.76008207 78.32716886 51.44188894 81.35506643 47.8125 84.25 C42.37069712 88.65873335 37.16069409 93.26745238 32 98 C30.90241011 99.00397881 29.80475045 100.00788134 28.70703125 101.01171875 C25.80138423 103.6708952 22.89976358 106.33440977 20 109 C19.67 108.01 19.34 107.02 19 106 C21.45078762 103.65863048 23.91182546 101.32832922 26.375 99 C27.07367188 98.33226562 27.77234375 97.66453125 28.4921875 96.9765625 C29.49765625 96.02910156 29.49765625 96.02910156 30.5234375 95.0625 C31.14138184 94.47597656 31.75932617 93.88945312 32.39599609 93.28515625 C34 92 34 92 36 92 C36 91.34 36 90.68 36 90 C38.21566824 88.13386231 40.43979503 86.3668212 42.75 84.625 C46.72979305 81.59971016 50.56677308 78.65864081 54 75 C53.34515625 74.55011719 52.6903125 74.10023438 52.015625 73.63671875 C30.37973143 58.38769207 12.89576523 38.73941308 3 14 C3 13.34 3 12.68 3 12 C1.68 11.67 0.36 11.34 -1 11 C-0.01 10.34 0.98 9.68 2 9 C1.34 8.67 0.68 8.34 0 8 C0 5.36 0 2.72 0 0 Z " fill="#2F7B37" transform="translate(276,236)"/>
<path d="M0 0 C0.33 0 0.66 0 1 0 C1.05459773 1.56210161 1.09306101 3.12477089 1.125 4.6875 C1.14820313 5.55761719 1.17140625 6.42773438 1.1953125 7.32421875 C0.97123228 10.3941178 0.43048642 12.2663795 -1 15 C-3.42895508 16.7824707 -3.42895508 16.7824707 -6.51953125 18.42578125 C-8.24949341 19.36139893 -8.24949341 19.36139893 -10.0144043 20.31591797 C-11.28036391 20.98158281 -12.54639778 21.64710644 -13.8125 22.3125 C-15.11780027 23.01289101 -16.42223172 23.71490341 -17.72583008 24.41845703 C-20.44442996 25.88407319 -23.16667345 27.34257257 -25.89160156 28.79638672 C-31.74316577 31.92566244 -37.54632153 35.14219465 -43.35079956 38.35769653 C-46.35614512 40.02228396 -49.36358831 41.68306906 -52.37109375 43.34375 C-54.05501221 44.27380859 -54.05501221 44.27380859 -55.77294922 45.22265625 C-58.77287721 46.87490892 -61.77782775 48.51751663 -64.78515625 50.15625 C-65.63634033 50.62240723 -66.48752441 51.08856445 -67.36450195 51.56884766 C-68.90356205 52.41154252 -70.44491195 53.25007515 -71.98901367 54.08349609 C-75.6119158 55.89364665 -75.6119158 55.89364665 -78 59 C-77.39115967 59.35715088 -76.78231934 59.71430176 -76.1550293 60.08227539 C-53.82818825 73.19198141 -53.82818825 73.19198141 -45 79 C-48 80 -48 80 -50.15380859 79.04711914 C-50.97703613 78.54817139 -51.80026367 78.04922363 -52.6484375 77.53515625 C-53.56608887 76.98577393 -54.48374023 76.4363916 -55.42919922 75.87036133 C-56.40131348 75.27376709 -57.37342773 74.67717285 -58.375 74.0625 C-59.85444092 73.16857544 -59.85444092 73.16857544 -61.36376953 72.2565918 C-63.33631939 71.06281613 -65.30625697 69.8647124 -67.2734375 68.66210938 C-69.62053421 67.23132191 -71.97736038 65.8204022 -74.34375 64.421875 C-75.52111591 63.71922327 -76.69822633 63.01614314 -77.875 62.3125 C-78.88304687 61.71050781 -79.89109375 61.10851562 -80.9296875 60.48828125 C-81.61289062 59.99714844 -82.29609375 59.50601563 -83 59 C-83 58.34 -83 57.68 -83 57 C-82.33282959 56.64397705 -81.66565918 56.2879541 -80.97827148 55.92114258 C-68.14311407 49.06322245 -55.37079165 42.12889916 -42.72875977 34.91967773 C-34.06598796 29.99732384 -25.30212116 25.27303855 -16.51367188 20.58007812 C-15.47533203 20.02513672 -14.43699219 19.47019531 -13.3671875 18.8984375 C-12.45050293 18.41036621 -11.53381836 17.92229492 -10.58935547 17.41943359 C-9.73486816 16.95102051 -8.88038086 16.48260742 -8 16 C-7.08790771 15.50991455 -6.17581543 15.0198291 -5.23608398 14.51489258 C-2.69357641 13.11075153 -2.69357641 13.11075153 -1.85546875 9.86328125 C-1.52482422 8.10564453 -1.52482422 8.10564453 -1.1875 6.3125 C-0.95417969 5.13300781 -0.72085938 3.95351563 -0.48046875 2.73828125 C-0.32191406 1.83464844 -0.16335938 0.93101562 0 0 Z " fill="#2E7C37" transform="translate(408,528)"/>
<path d="M0 0 C5.12877386 1.45514049 9.21455744 3.76193359 13.6875 6.5625 C18.63489885 9.69681319 18.63489885 9.69681319 24 12 C24.70253906 12.57234375 25.40507812 13.1446875 26.12890625 13.734375 C29.84557939 16.66725992 33.82746884 18.91492252 37.9375 21.25 C38.77200684 21.72945068 39.60651367 22.20890137 40.46630859 22.70288086 C44.40751358 24.9644195 48.35953955 27.20567213 52.32421875 29.42578125 C52.97076416 29.78961914 53.61730957 30.15345703 54.28344727 30.52832031 C56.02194819 31.50462814 57.76475177 32.47326282 59.5078125 33.44140625 C62 35 62 35 63 37 C64.65799023 37.6879612 66.32683828 38.34980613 68 39 C70.14373121 40.1774596 72.26705285 41.3924281 74.375 42.6328125 C74.98077881 42.98834198 75.58655762 43.34387146 76.21069336 43.71017456 C77.49249627 44.46335508 78.77332151 45.21820165 80.05322266 45.97460938 C81.96433966 47.10392757 83.87833538 48.22821855 85.79296875 49.3515625 C92.97837985 53.57596531 100.10941186 57.87979631 107.1953125 62.26904297 C109.04616164 63.41132364 110.91611199 64.52328751 112.8046875 65.60205078 C115 67 115 67 116 69 C111.63599028 67.6817054 107.93346671 65.98366119 104 63.6875 C103.41532959 63.34775146 102.83065918 63.00800293 102.22827148 62.65795898 C100.14808333 61.44550797 98.07388072 60.22320766 96 59 C95.15711426 58.50467773 94.31422852 58.00935547 93.44580078 57.49902344 C83.85477642 51.86169551 74.28480017 46.18983554 64.75537109 40.44897461 C60.19809582 37.70755637 55.61972031 35.00295179 51.03735352 32.30371094 C42.43728634 27.23782711 33.86724141 22.13129727 25.36743164 16.89868164 C21.82646374 14.71996429 18.2761302 12.56314837 14.69140625 10.45703125 C14.00554443 10.05258789 13.31968262 9.64814453 12.61303711 9.23144531 C11.33430514 8.4795641 10.0527713 7.73241724 8.76782227 6.99121094 C5.38329464 4.9971071 2.64301635 2.90992194 0 0 Z " fill="#2E7C37" transform="translate(288,605)"/>
<path d="M0 0 C0.495 0.99 0.495 0.99 1 2 C-0.55790321 4.06611241 -2.12109677 6.12784639 -3.6875 8.1875 C-4.12255859 8.76564453 -4.55761719 9.34378906 -5.00585938 9.93945312 C-7.78108409 13.57808109 -10.72344929 16.79191453 -14 20 C-15.16666334 21.25047095 -16.32629236 22.50752577 -17.48046875 23.76953125 C-18.08697266 24.43017578 -18.69347656 25.09082031 -19.31835938 25.77148438 C-20.57953009 27.14862481 -21.83727042 28.52891354 -23.09179688 29.91210938 C-23.69443359 30.56630859 -24.29707031 31.22050781 -24.91796875 31.89453125 C-25.46219482 32.49112549 -26.0064209 33.08771973 -26.56713867 33.70239258 C-28 35 -28 35 -30 35 C-30.23074219 35.57363281 -30.46148438 36.14726563 -30.69921875 36.73828125 C-36.68536339 47.14662283 -53.93282087 56.11164994 -64 62 C-64.66 62 -65.32 62 -66 62 C-65.40813678 57.60705965 -64.32151842 53.84220807 -62.625 49.75 C-62.20476563 48.71359375 -61.78453125 47.6771875 -61.3515625 46.609375 C-60 44 -60 44 -57 42 C-58.66666667 47 -60.33333333 52 -62 57 C-49.87289417 50.77175799 -39.77097431 42.41844367 -30 33 C-29.42282227 32.44473633 -28.84564453 31.88947266 -28.25097656 31.31738281 C-21.39637926 24.68521701 -14.89883541 17.97430038 -8.9765625 10.48828125 C-6.11071739 6.8804881 -3.06462288 3.43907841 0 0 Z " fill="#347F3C" transform="translate(698,737)"/>
<path d="M0 0 C1.32 0.33 2.64 0.66 4 1 C3.34 10.24 2.68 19.48 2 29 C1.67 29 1.34 29 1 29 C1 20.42 1 11.84 1 3 C-3.03863471 5.36588797 -7.0771748 7.73193597 -11.11547852 10.09838867 C-12.48781951 10.90251873 -13.86021463 11.70655642 -15.23266602 12.51049805 C-17.21124456 13.66951304 -19.18962491 14.8288657 -21.16796875 15.98828125 C-21.77650192 16.34465164 -22.3850351 16.70102203 -23.01200867 17.06819153 C-26.35290103 19.02661568 -29.68298671 21.00141555 -33 23 C-33.70415039 23.4235376 -34.40830078 23.8470752 -35.13378906 24.28344727 C-35.83729492 24.70682373 -36.54080078 25.1302002 -37.265625 25.56640625 C-41.61440117 28.18180316 -45.96670474 30.79125819 -50.32128906 33.39697266 C-52.06858085 34.44260863 -53.81535081 35.48911723 -55.56152344 36.53662109 C-57.91328595 37.94571958 -60.26854153 39.34877258 -62.625 40.75 C-63.34075195 41.17998291 -64.05650391 41.60996582 -64.79394531 42.05297852 C-69.77081235 45 -69.77081235 45 -72 45 C-72 44.34 -72 43.68 -72 43 C-71.31711914 42.60844727 -70.63423828 42.21689453 -69.93066406 41.81347656 C-56.11558415 33.88542568 -42.35426444 25.88455595 -28.72363281 17.64208984 C-25.56773327 15.73938454 -22.40540174 13.84753711 -19.2421875 11.95703125 C-17.50379597 10.91730164 -15.76546167 9.87747639 -14.02713013 8.83764648 C-12.33813637 7.82782752 -10.64844355 6.8191781 -8.95874023 5.81054688 C-7.42648804 4.89305664 -7.42648804 4.89305664 -5.86328125 3.95703125 C-4.94844971 3.41022705 -4.03361816 2.86342285 -3.09106445 2.30004883 C-1.09000903 1.16573007 -1.09000903 1.16573007 0 0 Z " fill="#2F7C37" transform="translate(408,496)"/>
<path d="M0 0 C0.66 0 1.32 0 2 0 C0.47403545 6.52566953 -1.4812557 12.22848299 -4.61328125 18.14453125 C-6.63695874 22.31159674 -8.17780019 26.62876787 -9.76879883 30.9753418 C-11.25459473 35.02738267 -12.81105568 39.02665022 -14.5 43 C-16.47075754 47.64264997 -18.2577016 52.33119191 -20 57.0625 C-22.0590345 62.64042051 -24.30624438 68.06250823 -26.83203125 73.44921875 C-28.71755628 77.56710452 -30.36107588 81.77908368 -32 86 C-32.33 86 -32.66 86 -33 86 C-32.48976416 79.01677226 -29.83240951 73.05299009 -27.1875 66.625 C-26.67414601 65.36143277 -26.16147458 64.09758806 -25.64941406 62.83349609 C-24.47422725 59.93771962 -23.29336534 57.04433178 -22.10888672 54.15234375 C-19.64911923 48.14653133 -17.20213862 42.13552158 -14.75390625 36.125 C-9.84549279 24.07942314 -4.92565157 12.03853702 0 0 Z " fill="#2F7D36" transform="translate(490,571)"/>
<path d="M0 0 C0.33 0 0.66 0 1 0 C1.33986581 4.1244885 1.67068458 8.24965678 2 12.375 C2.09539063 13.53128906 2.19078125 14.68757813 2.2890625 15.87890625 C2.82098108 22.60387693 3.13881345 29.25405187 3 36 C-3.38039076 39.19019538 -13.42473984 36.97987231 -20 35 C-28.14465317 31.96646721 -36.92723893 26.46164544 -41.28125 18.72265625 C-41.5184375 18.15417969 -41.755625 17.58570313 -42 17 C-38.95504429 18.33873053 -37.16423179 19.747607 -35 22.25 C-29.10365831 28.33695618 -20.29940634 32.49101703 -12 34 C-8.37 34 -4.74 34 -1 34 C-0.67 22.78 -0.34 11.56 0 0 Z " fill="#2E7C37" transform="translate(699,357)"/>
<path d="M0 0 C0 0.33 0 0.66 0 1 C-0.82685303 1.01401855 -0.82685303 1.01401855 -1.67041016 1.02832031 C-26.05681466 1.5410833 -49.89071721 4.77732014 -71.09350586 17.54785156 C-73.84154305 19.14910054 -75.55978504 20.02848086 -78.77734375 19.8203125 C-81.25396215 18.90627056 -82.9969994 17.70625977 -85 16 C-84.67 15.34 -84.34 14.68 -84 14 C-83.2575 14.515625 -82.515 15.03125 -81.75 15.5625 C-79.24809205 17.19947721 -79.24809205 17.19947721 -77.21484375 16.7890625 C-74.25281001 15.73380533 -71.58969395 14.28737557 -68.8125 12.8125 C-46.24977838 1.27253638 -25.10052493 -0.54101938 0 0 Z " fill="#307D38" transform="translate(678,515)"/>
<path d="M0 0 C0.33 0 0.66 0 1 0 C1.33 20.79 1.66 41.58 2 63 C1.34 62.67 0.68 62.34 0 62 C-1.52052647 55.02603704 -1.14703334 47.51127377 -1.1328125 40.41015625 C-1.13376923 39.34381454 -1.13472595 38.27747284 -1.13571167 37.17881775 C-1.1363876 34.94432516 -1.1345746 32.70983054 -1.13037109 30.4753418 C-1.12497713 27.04797011 -1.130355 23.62072724 -1.13671875 20.19335938 C-1.13605859 18.01562471 -1.13477872 15.83789013 -1.1328125 13.66015625 C-1.13483673 12.63519547 -1.13686096 11.61023468 -1.13894653 10.55421448 C-1.13579437 9.60570114 -1.13264221 8.65718781 -1.12939453 7.67993164 C-1.12820114 6.42944786 -1.12820114 6.42944786 -1.12698364 5.15370178 C-1 3 -1 3 0 0 Z " fill="#277230" transform="translate(210,518)"/>
<path d="M0 0 C0.66 0.33 1.32 0.66 2 1 C1.33355469 1.87398438 0.66710937 2.74796875 -0.01953125 3.6484375 C-10.22595315 17.19779443 -19.0003651 31.34866055 -26.34375 46.64453125 C-27.77016425 49.53436577 -29.29374592 52.26895308 -31 55 C-31.85760774 52.59863056 -32.12506826 51.36862909 -31.29418945 48.91967773 C-30.90448975 48.18177002 -30.51479004 47.4438623 -30.11328125 46.68359375 C-29.6754834 45.84618652 -29.23768555 45.0087793 -28.78662109 44.14599609 C-28.30016113 43.25219238 -27.81370117 42.35838867 -27.3125 41.4375 C-26.81572754 40.51018066 -26.31895508 39.58286133 -25.80712891 38.62744141 C-18.37481373 24.94612305 -10.3795937 11.66393736 0 0 Z " fill="#2B7633" transform="translate(265,377)"/>
<path d="M0 0 C0 0.66 0 1.32 0 2 C-1.94580078 3.39770508 -1.94580078 3.39770508 -4.6953125 5.01953125 C-5.71141602 5.6237793 -6.72751953 6.22802734 -7.77441406 6.85058594 C-8.88010742 7.49801758 -9.98580078 8.14544922 -11.125 8.8125 C-12.83293294 9.82429931 -14.54086568 10.83609897 -16.2487793 11.84793091 C-18.58997436 13.23241125 -20.93513967 14.61009569 -23.28015137 15.98809814 C-25.98424587 17.57909761 -28.68340925 19.17840145 -31.3828125 20.77734375 C-40.4192557 26.12815966 -40.4192557 26.12815966 -44.93945312 28.77148438 C-46.62720603 29.77773705 -48.28021065 30.84206369 -49.921875 31.921875 C-50.95054687 32.45554687 -50.95054687 32.45554687 -52 33 C-52.99 32.67 -53.98 32.34 -55 32 C-46.16891192 26.48473556 -37.2313909 21.1616621 -28.26196289 15.875 C-22.60156711 12.53830461 -16.94774106 9.19152877 -11.3125 5.8125 C-10.70744629 5.450354 -10.10239258 5.08820801 -9.47900391 4.71508789 C-1.62927899 0 -1.62927899 0 0 0 Z " fill="#317D39" transform="translate(335,541)"/>
<path d="M0 0 C0.66 0 1.32 0 2 0 C1.48724857 4.10201148 -0.02611403 7.17130259 -1.8984375 10.78125 C-4.36499031 15.74934219 -6.24659672 20.98514188 -8.1875 26.17578125 C-10.46083629 32.22143495 -12.89223965 38.02973396 -15.86328125 43.765625 C-17.39965448 46.78557513 -18.70686824 49.86925995 -20 53 C-21.24627501 50.07697666 -20.9596724 48.87669692 -19.9519043 45.79541016 C-19.42085092 44.53837003 -18.8774866 43.28648474 -18.32421875 42.0390625 C-18.03899857 41.37087494 -17.75377838 40.70268738 -17.45991516 40.01425171 C-16.54641952 37.87973686 -15.61760265 35.75232404 -14.6875 33.625 C-13.77125989 31.50358699 -12.85825626 29.38082423 -11.94721985 27.25717163 C-11.37995941 25.93771827 -10.80917889 24.61977073 -10.23429871 23.30361938 C-8.98810646 20.42988802 -7.87433322 17.60089081 -6.93286133 14.61083984 C-6 12 -6 12 -4 11 C-3.12757089 8.95383439 -3.12757089 8.95383439 -2.4375 6.5625 C-1.06329114 2.12658228 -1.06329114 2.12658228 0 0 Z " fill="#2E7A35" transform="translate(662,725)"/>
<path d="M0 0 C7.70970043 4.15108594 15.31831259 8.45197393 22.875 12.875 C23.92131592 13.48706299 24.96763184 14.09912598 26.0456543 14.72973633 C47.80804873 27.48991405 47.80804873 27.48991405 51 31 C46.36572773 30.43389399 42.88586102 28.41051454 38.96875 26.02734375 C38.29638306 25.62600723 37.62401611 25.22467072 36.93127441 24.81117249 C34.78336396 23.52673309 32.64171494 22.23223769 30.5 20.9375 C29.09153559 20.09375009 27.68268459 19.25064515 26.2734375 18.40820312 C22.83478861 16.34990699 19.40672295 14.2746539 15.98095703 12.19500732 C14.02942337 11.01774957 12.06884217 9.85708697 10.10546875 8.69970703 C8.91397311 7.98875656 7.72256221 7.27766405 6.53125 6.56640625 C5.48517578 5.94838135 4.43910156 5.33035645 3.36132812 4.69360352 C1 3 1 3 0 0 Z " fill="#2F7C37" transform="translate(536,495)"/>
<path d="M0 0 C4.62 0 9.24 0 14 0 C13.67 0.66 13.34 1.32 13 2 C9.04 2 5.08 2 1 2 C0.690625 3.5675 0.38125 5.135 0.0625 6.75 C-0.90904375 11.67248833 -0.90904375 11.67248833 -1.51367188 13.84960938 C-2.0581666 16.25719449 -2.21115685 18.5185319 -2.31640625 20.984375 C-2.35830078 21.91894531 -2.40019531 22.85351562 -2.44335938 23.81640625 C-2.48267578 24.78449219 -2.52199219 25.75257813 -2.5625 26.75 C-2.60568359 27.73355469 -2.64886719 28.71710938 -2.69335938 29.73046875 C-2.79922052 32.15351275 -2.90130171 34.5766554 -3 37 C-3.66 36.67 -4.32 36.34 -5 36 C-7.45299333 23.56904132 -5.19317516 11.42206783 0 0 Z " fill="#378440" transform="translate(277,189)"/>
<path d="M0 0 C0.33 0 0.66 0 1 0 C1.35635139 13.38297446 0.69236042 25.87474294 -2 39 C-2.33 39 -2.66 39 -3 39 C-3.13425509 30.68737219 -2.75613601 22.52662393 -2 14.25 C-1.90460937 13.15945313 -1.80921875 12.06890625 -1.7109375 10.9453125 C-1.47857932 8.29642926 -1.24155018 5.64805804 -1 3 C-1.99 2.67 -2.98 2.34 -4 2 C-2.68 2 -1.36 2 0 2 C0 1.34 0 0.68 0 0 Z " fill="#307D38" transform="translate(716,524)"/>
<path d="M0 0 C0.33 0 0.66 0 1 0 C2.82671967 13.0348108 4.57040108 25.81739716 4 39 C3.34 39 2.68 39 2 39 C1.65799056 34.93818315 1.32805181 30.87546604 1 26.8125 C0.90460937 25.68134766 0.80921875 24.55019531 0.7109375 23.38476562 C0.08771504 15.57222697 -0.11682328 7.8360839 0 0 Z " fill="#2B7833" transform="translate(534,497)"/>
<path d="M0 0 C6.06935811 2.85616852 11.69991576 6.21504433 17.390625 9.76171875 C21.33729559 12.22013814 25.32262509 14.61253408 29.3125 17 C29.97709229 17.39791748 30.64168457 17.79583496 31.32641602 18.20581055 C32.88390187 19.13783476 34.44189284 20.06901481 36 21 C33 22 33 22 30.59912109 20.92358398 C29.66664551 20.37001221 28.73416992 19.81644043 27.7734375 19.24609375 C26.74089844 18.63830078 25.70835937 18.03050781 24.64453125 17.40429688 C23.56558594 16.75525391 22.48664063 16.10621094 21.375 15.4375 C20.31925781 14.81552734 19.26351563 14.19355469 18.17578125 13.55273438 C3.53043232 4.868968 3.53043232 4.868968 0 2 C0 1.34 0 0.68 0 0 Z " fill="#2C7834" transform="translate(364,608)"/>
<path d="M0 0 C0.99 0.33 1.98 0.66 3 1 C2.60321045 1.41660889 2.2064209 1.83321777 1.79760742 2.26245117 C-6.76713678 11.27452439 -15.09513291 20.4024067 -23 30 C-23.33 29.34 -23.66 28.68 -24 28 C-18.40528748 20.98243466 -12.6033032 14.28232464 -6.48046875 7.7265625 C-4.2055679 5.22596282 -2.07846983 2.66470492 0 0 Z " fill="#2F7A36" transform="translate(291,346)"/>
<path d="M0 0 C1.19882812 0.00322266 2.39765625 0.00644531 3.6328125 0.00976562 C5.4890625 0.02233398 5.4890625 0.02233398 7.3828125 0.03515625 C8.64351562 0.03966797 9.90421875 0.04417969 11.203125 0.04882812 C14.30473636 0.06057665 17.40624975 0.07700458 20.5078125 0.09765625 C20.5078125 0.42765625 20.5078125 0.75765625 20.5078125 1.09765625 C19.68095947 1.1116748 19.68095947 1.1116748 18.83740234 1.12597656 C5.07236261 1.41540844 -8.00803958 2.91055412 -21.48120117 5.74633789 C-23.4921875 6.09765625 -23.4921875 6.09765625 -26.4921875 6.09765625 C-26.4921875 5.43765625 -26.4921875 4.77765625 -26.4921875 4.09765625 C-24.28423328 3.61674567 -22.0758065 3.13800446 -19.8671875 2.66015625 C-18.02253906 2.25990234 -18.02253906 2.25990234 -16.140625 1.8515625 C-10.67551162 0.72226177 -5.59200756 -0.02662861 0 0 Z " fill="#297330" transform="translate(657.4921875,514.90234375)"/>
<path d="M0 0 C0.33 0 0.66 0 1 0 C0.73410014 10.98166413 -0.4325202 20.52986162 -4 31 C-4.33 31 -4.66 31 -5 31 C-5.2202861 24.06454086 -4.43470743 17.7898153 -3.0625 11 C-2.88009766 10.04738281 -2.69769531 9.09476563 -2.50976562 8.11328125 C-1.14244815 1.14244815 -1.14244815 1.14244815 0 0 Z " fill="#2F7D37" transform="translate(712,564)"/>
<path d="M0 0 C1 3 1 3 -0.37109375 5.78515625 C-6.39296438 15.33591137 -12.7779497 24.18905221 -21 32 C-21.66 31.67 -22.32 31.34 -23 31 C-22.01773438 30.03126953 -22.01773438 30.03126953 -21.015625 29.04296875 C-12.50584294 20.25673897 -6.25166721 10.47816964 0 0 Z " fill="#2B7532" transform="translate(855,485)"/>
<path d="M0 0 C2.33944736 0.28730055 4.6739143 0.61936779 7 1 C7 1.33 7 1.66 7 2 C5.35 2.33 3.7 2.66 2 3 C2.76510908 5.37697919 3.53687436 7.75145221 4.3125 10.125 C4.63250977 11.12273437 4.63250977 11.12273437 4.95898438 12.140625 C6.02833287 15.39655175 7.15551849 18.3026116 8.73046875 21.3671875 C9.14941406 22.23601562 9.56835938 23.10484375 10 24 C9.67 24.66 9.34 25.32 9 26 C-1.80981348 9.93970569 -1.80981348 9.93970569 -1 1 C-0.67 0.67 -0.34 0.34 0 0 Z " fill="#297631" transform="translate(647,347)"/>
<path d="M0 0 C0.66 0 1.32 0 2 0 C-5.31006494 22.31493506 -5.31006494 22.31493506 -10 31 C-11.5994868 27.01188969 -10.30093746 24.53706452 -8.69140625 20.703125 C-8.19189453 19.49785156 -7.69238281 18.29257812 -7.17773438 17.05078125 C-6.63956594 15.78375091 -6.10115132 14.51682512 -5.5625 13.25 C-5.02696125 11.96787913 -4.49244391 10.68533112 -3.95898438 9.40234375 C-2.64932328 6.26387662 -1.32934142 3.13017027 0 0 Z " fill="#2D7B35" transform="translate(503,539)"/>
<path d="M0 0 C0.66 0 1.32 0 2 0 C1.51128443 5.57135754 0.43088827 9.95406526 -2 15 C-3.06371097 17.31194323 -4.12611738 19.62448694 -5.1875 21.9375 C-6.12407197 23.9587636 -7.06126309 25.97974095 -8 28 C-9.40898627 24.23749927 -8.5539836 22.02943721 -7.12890625 18.359375 C-6.51499023 16.75449219 -6.51499023 16.75449219 -5.88867188 15.1171875 C-5.45103516 14.00601563 -5.01339844 12.89484375 -4.5625 11.75 C-3.9118457 10.06003906 -3.9118457 10.06003906 -3.24804688 8.3359375 C-2.17509988 5.5533497 -1.09212022 2.7751063 0 0 Z " fill="#31803A" transform="translate(684,669)"/>
<path d="M0 0 C0.66 0 1.32 0 2 0 C2.30473766 6.63756722 1.14592515 12.91424367 0 19.4375 C-0.19078125 20.55060547 -0.3815625 21.66371094 -0.578125 22.81054688 C-1.04692365 25.54129903 -1.52101904 28.27101871 -2 31 C-2.33 31 -2.66 31 -3 31 C-3.45986864 20.25269955 -2.13405739 10.49244885 0 0 Z " fill="#297331" transform="translate(214,486)"/>
<path d="M0 0 C3.77076889 -0.05799124 7.54142334 -0.09359306 11.3125 -0.125 C12.38435547 -0.14175781 13.45621094 -0.15851562 14.56054688 -0.17578125 C15.58857422 -0.18222656 16.61660156 -0.18867187 17.67578125 -0.1953125 C18.62364502 -0.20578613 19.57150879 -0.21625977 20.5480957 -0.22705078 C23 0 23 0 26 2 C17.30030104 3.58176345 8.39692529 4.05342738 0 1 C0 0.67 0 0.34 0 0 Z " fill="#38833F" transform="translate(575,719)"/>
<path d="M0 0 C0.66 0.33 1.32 0.66 2 1 C-5.42935639 7.66146426 -14.52219744 13.27600957 -24.8125 13.3125 C-25.864375 13.209375 -26.91625 13.10625 -28 13 C-28 12.67 -28 12.34 -28 12 C-25.75023648 11.35334337 -23.50018033 10.70770477 -21.25 10.0625 C-19.99703125 9.70285156 -18.7440625 9.34320312 -17.453125 8.97265625 C-14.97438281 8.27445851 -12.50339838 7.60056274 -10 7 C-10 6.34 -10 5.68 -10 5 C-7.41210938 3.92578125 -7.41210938 3.92578125 -4.82421875 2.8515625 C-2.73466068 1.93193308 -2.73466068 1.93193308 0 0 Z " fill="#317C38" transform="translate(626,707)"/>
<path d="M0 0 C-3.39371636 1.79569776 -6.79033291 3.58584024 -10.1875 5.375 C-11.14720703 5.88289062 -12.10691406 6.39078125 -13.09570312 6.9140625 C-14.49272461 7.64882813 -14.49272461 7.64882813 -15.91796875 8.3984375 C-16.77156982 8.84880371 -17.6251709 9.29916992 -18.50463867 9.76318359 C-25.0351362 13 -25.0351362 13 -29 13 C-29 12.34 -29 11.68 -29 11 C-27.845 10.505 -26.69 10.01 -25.5 9.5 C-22.26402336 8.080712 -19.11059704 6.55442179 -15.98046875 4.91796875 C-14.92085937 4.36882813 -14.92085937 4.36882813 -13.83984375 3.80859375 C-12.416627 3.06728121 -10.99849982 2.31610585 -9.5859375 1.5546875 C-5.91044469 -0.35085926 -3.95323202 -1.32281434 0 0 Z " fill="#2F7D37" transform="translate(571,657)"/>
<path d="M0 0 C0.33 0.66 0.66 1.32 1 2 C-0.55790321 4.06611241 -2.12109677 6.12784639 -3.6875 8.1875 C-4.12255859 8.76564453 -4.55761719 9.34378906 -5.00585938 9.93945312 C-7.77718967 13.57297507 -10.69669842 16.82539848 -14 20 C-14.66644531 20.66644531 -15.33289063 21.33289063 -16.01953125 22.01953125 C-17.6796875 23.6796875 -19.33984375 25.33984375 -21 27 C-21.66 26.67 -22.32 26.34 -23 26 C-22.59910156 25.62230469 -22.19820312 25.24460937 -21.78515625 24.85546875 C-17.21630882 20.43166409 -13.20908603 15.68493274 -9.22265625 10.734375 C-6.2442126 7.07020882 -3.14108353 3.52488152 0 0 Z " fill="#2A7430" transform="translate(698,737)"/>
<path d="M0 0 C0.33 0 0.66 0 1 0 C1.05826088 4.3749437 1.09368457 8.74978698 1.125 13.125 C1.14175781 14.3625 1.15851562 15.6 1.17578125 16.875 C1.18222656 18.07382812 1.18867187 19.27265625 1.1953125 20.5078125 C1.20578613 21.60754395 1.21625977 22.70727539 1.22705078 23.84033203 C0.98673701 27.18456942 0.18909337 29.87708695 -1 33 C-1.33 33 -1.66 33 -2 33 C-2.36520833 21.88143519 -1.23223906 11.03514084 0 0 Z " fill="#2F7D39" transform="translate(535,639)"/>
<path d="M0 0 C1.21236328 0.02707031 1.21236328 0.02707031 2.44921875 0.0546875 C3.37154297 0.08949219 3.37154297 0.08949219 4.3125 0.125 C3.3125 2.125 3.3125 2.125 0.2421875 3.1953125 C-1.10562388 3.56099252 -2.45758565 3.91158534 -3.8125 4.25 C-4.52083984 4.42885742 -5.22917969 4.60771484 -5.95898438 4.79199219 C-13.25491995 6.48834568 -20.22780202 6.51084645 -27.6875 6.125 C-27.6875 5.795 -27.6875 5.465 -27.6875 5.125 C-27.09735107 5.04459473 -26.50720215 4.96418945 -25.89916992 4.88134766 C-23.22327627 4.5122044 -20.5491955 4.1312424 -17.875 3.75 C-16.94623047 3.62367188 -16.01746094 3.49734375 -15.06054688 3.3671875 C-14.16787109 3.23828125 -13.27519531 3.109375 -12.35546875 2.9765625 C-11.12219849 2.80374756 -11.12219849 2.80374756 -9.86401367 2.62744141 C-5.97193885 1.72896805 -4.21109318 -0.12206067 0 0 Z " fill="#297531" transform="translate(444.6875,671.875)"/>
<path d="M0 0 C0.66 0 1.32 0 2 0 C2.125 3.375 2.125 3.375 2 7 C1.34 7.66 0.68 8.32 0 9 C-0.60609623 11.02912522 -0.60609623 11.02912522 -1 13.3125 C-1.6939047 16.72695169 -2.55916643 19.80958281 -4 23 C-4.33 23 -4.66 23 -5 23 C-5.29785422 17.3333235 -4.31081409 12.91174271 -2.5 7.5625 C-2.26152344 6.83095703 -2.02304688 6.09941406 -1.77734375 5.34570312 C-1.19403828 3.5607884 -0.59830065 1.77994443 0 0 Z " fill="#317E3B" transform="translate(223,453)"/>
<path d="M0 0 C5.46137814 -0.09752461 10.59255982 0.22750855 16 1 C16 1.66 16 2.32 16 3 C16.886875 3.12375 17.77375 3.2475 18.6875 3.375 C21.70387502 3.94412736 24.20326054 4.76614436 27 6 C27 6.66 27 7.32 27 8 C22.7154801 7.37597833 18.74560964 6.38448735 14.625 5.0625 C9.77596295 3.53502556 4.94772037 2.1641695 0 1 C0 0.67 0 0.34 0 0 Z " fill="#34803C" transform="translate(555,194)"/>
<path d="M0 0 C0.33 0.66 0.66 1.32 1 2 C-5.80824106 2.94267953 -12.21098511 2.97730988 -19.0625 2.5625 C-20.02349609 2.51029297 -20.98449219 2.45808594 -21.97460938 2.40429688 C-24.31685793 2.27611412 -26.65850875 2.14123891 -29 2 C-29 1.67 -29 1.34 -29 1 C-19.31337984 -0.04518445 -9.72654773 -0.10371911 0 0 Z " fill="#32803A" transform="translate(521,494)"/>
<path d="M0 0 C1.15957207 3.47871621 0.77456651 4.34219645 -0.4375 7.6875 C-0.86869141 8.89986328 -0.86869141 8.89986328 -1.30859375 10.13671875 C-1.53675781 10.75160156 -1.76492188 11.36648438 -2 12 C0.97 12 3.94 12 7 12 C6.01 13.485 6.01 13.485 5 15 C2.2572492 15.47114738 -0.19558897 15.17805784 -3 15 C-4 14 -4 14 -4.3125 11.4375 C-3.90811269 6.98923964 -2.18195863 3.83790938 0 0 Z " fill="#388A43" transform="translate(419,664)"/>
<path d="M0 0 C0.99 0.33 1.98 0.66 3 1 C2.67 8.59 2.34 16.18 2 24 C1.67 24 1.34 24 1 24 C-0.32915021 16.02509872 -0.08801359 8.05813281 0 0 Z " fill="#287430" transform="translate(442,248)"/>
<path d="M0 0 C5.43683334 1.49212776 9.69063815 4.1009183 14.375 7.125 C15.47908203 7.82689453 15.47908203 7.82689453 16.60546875 8.54296875 C18.40730078 9.68958913 20.20416431 10.84401076 22 12 C19 13 19 13 17.02294922 12.13549805 C16.29092285 11.68215088 15.55889648 11.22880371 14.8046875 10.76171875 C13.60779297 10.02598633 13.60779297 10.02598633 12.38671875 9.27539062 C11.55785156 8.75138672 10.72898437 8.22738281 9.875 7.6875 C9.03839844 7.17509766 8.20179688 6.66269531 7.33984375 6.13476562 C1.1408822 2.2817644 1.1408822 2.2817644 0 0 Z " fill="#2B7633" transform="translate(341,595)"/>
<path d="M0 0 C0.33 0 0.66 0 1 0 C1.33 9.24 1.66 18.48 2 28 C1.34 28.33 0.68 28.66 0 29 C-0.98945341 19.12068829 -0.8984165 9.86875973 0 0 Z " fill="#3A8943" transform="translate(444,257)"/>
<path d="M0 0 C4.19360449 0.67097672 7.40334352 2.8558394 11 5 C11 7.31 11 9.62 11 12 C10.67 12 10.34 12 10 12 C9.67 13.98 9.34 15.96 9 18 C8.67 18 8.34 18 8 18 C8 13.71 8 9.42 8 5 C5.525 4.01 5.525 4.01 3 3 C1.1875 1.375 1.1875 1.375 0 0 Z " fill="#3E8E48" transform="translate(399,630)"/>
<path d="M0 0 C0.33 0 0.66 0 1 0 C1.08970351 5.11310018 1.0283474 9.96109772 0 15 C-0.99 15.495 -0.99 15.495 -2 16 C-2.33 15.34 -2.66 14.68 -3 14 C-3.99 13.67 -4.98 13.34 -6 13 C-6 12.01 -6 11.02 -6 10 C-4.68 10 -3.36 10 -2 10 C-1.34 6.7 -0.68 3.4 0 0 Z " fill="#367F3C" transform="translate(398,806)"/>
<path d="M0 0 C0.66 0 1.32 0 2 0 C0.64474464 4.21775732 -0.90200114 8.29421322 -2.625 12.375 C-3.07101563 13.43460937 -3.51703125 14.49421875 -3.9765625 15.5859375 C-4.31429687 16.38257813 -4.65203125 17.17921875 -5 18 C-6.66201898 13.94507418 -5.20927166 11.22066185 -3.625 7.3125 C-3.16351563 6.15363281 -2.70203125 4.99476563 -2.2265625 3.80078125 C-1 1 -1 1 0 0 Z " fill="#2A7632" transform="translate(231,434)"/>
<path d="M0 0 C1.77174819 0.08723378 3.54247377 0.19541655 5.3125 0.3125 C6.29863281 0.37050781 7.28476562 0.42851562 8.30078125 0.48828125 C11 1 11 1 12.875 2.25 C14.39739799 4.61817466 14.1254483 5.94036975 13.6875 8.6875 C13.50767578 9.89986328 13.50767578 9.89986328 13.32421875 11.13671875 C13.21722656 11.75160156 13.11023438 12.36648438 13 13 C12.67 13 12.34 13 12 13 C12 10.03 12 7.06 12 4 C11.21753906 3.87882812 10.43507813 3.75765625 9.62890625 3.6328125 C8.61699219 3.46523438 7.60507812 3.29765625 6.5625 3.125 C5.04849609 2.88136719 5.04849609 2.88136719 3.50390625 2.6328125 C2.67761719 2.42398437 1.85132813 2.21515625 1 2 C0.67 1.34 0.34 0.68 0 0 Z " fill="#3A8A44" transform="translate(686,353)"/>
<path d="M0 0 C4.58716587 4.44381694 8.78762713 9.20228499 13 14 C12.01 14.33 11.02 14.66 10 15 C8.32416834 13.06980103 6.65942545 11.13171873 5 9.1875 C4.52304687 8.64029297 4.04609375 8.09308594 3.5546875 7.52929688 C0 3.33984375 0 3.33984375 0 0 Z " fill="#2A7330" transform="translate(276,732)"/>
<path d="M0 0 C1.4216868 4.26506039 -0.34613318 7.20037743 -1.9375 11.1875 C-2.22818359 11.93708984 -2.51886719 12.68667969 -2.81835938 13.45898438 C-3.53725036 15.30924477 -4.26754653 17.15506648 -5 19 C-6.33388468 14.74540793 -5.17618366 11.84310223 -3.625 7.8125 C-3.39039063 7.17119141 -3.15578125 6.52988281 -2.9140625 5.86914062 C-1.16584821 1.16584821 -1.16584821 1.16584821 0 0 Z " fill="#2B7833" transform="translate(692,649)"/>
<path d="M0 0 C0.66 0.33 1.32 0.66 2 1 C-2.29 5.95 -6.58 10.9 -11 16 C-11.33 15.34 -11.66 14.68 -12 14 C-10.5645497 12.22750476 -9.12656197 10.45706424 -7.6875 8.6875 C-6.88699219 7.70136719 -6.08648437 6.71523438 -5.26171875 5.69921875 C-3.57311644 3.68397834 -1.90369301 1.80511991 0 0 Z " fill="#28732F" transform="translate(279,360)"/>
<path d="M0 0 C1.4650113 4.50371428 -0.13630407 7.58005406 -1.9375 11.75 C-2.22818359 12.44738281 -2.51886719 13.14476562 -2.81835938 13.86328125 C-3.53551703 15.57975695 -4.26643402 17.29047232 -5 19 C-5.66 19 -6.32 19 -7 19 C-4.94235079 12.54646385 -2.57616518 6.2638737 0 0 Z " fill="#29732F" transform="translate(775,605)"/>
<path d="M0 0 C0 0.99 0 1.98 0 3 C-2.08503535 4.58236634 -4.07627728 5.91919795 -6.3125 7.25 C-7.20485352 7.81460938 -7.20485352 7.81460938 -8.11523438 8.390625 C-9.69270568 9.34944555 -11.34436749 10.18352369 -13 11 C-13.99 10.67 -14.98 10.34 -16 10 C-15.09636719 9.44570313 -14.19273437 8.89140625 -13.26171875 8.3203125 C-12.07029421 7.58857144 -10.87888897 6.85679896 -9.6875 6.125 C-9.09259766 5.76019531 -8.49769531 5.39539063 -7.88476562 5.01953125 C-5.22637701 3.38588461 -2.59656263 1.73104176 0 0 Z " fill="#2A7631" transform="translate(554,623)"/>
<path d="M0 0 C2.475 0.99 2.475 0.99 5 2 C5 2.99 5 3.98 5 5 C-1.75 9 -1.75 9 -4 9 C-3.67 8.01 -3.34 7.02 -3 6 C-0.9375 5.3125 -0.9375 5.3125 1 5 C1 4.01 1 3.02 1 2 C0.34 1.67 -0.32 1.34 -1 1 C-0.67 0.67 -0.34 0.34 0 0 Z " fill="#388640" transform="translate(615,582)"/>
<path d="M0 0 C4.18238834 0.54769371 6.59868545 2.89888889 9.75 5.5625 C11.22726562 6.80193359 11.22726562 6.80193359 12.734375 8.06640625 C13.48203125 8.70449219 14.2296875 9.34257812 15 10 C14.67 10.66 14.34 11.32 14 12 C11.66372963 10.19117843 9.33092238 8.37818954 7 6.5625 C6.33226562 6.04623047 5.66453125 5.52996094 4.9765625 4.99804688 C3.29922866 3.68869954 1.64735006 2.34687677 0 1 C0 0.67 0 0.34 0 0 Z " fill="#2B7532" transform="translate(765,359)"/>
<path d="M0 0 C4.54109672 4.26587874 8.24735246 9.03612328 12 14 C9 14 9 14 7.24609375 12.35546875 C6.64925781 11.64003906 6.05242187 10.92460937 5.4375 10.1875 C4.83808594 9.47980469 4.23867188 8.77210938 3.62109375 8.04296875 C0 3.47951807 0 3.47951807 0 0 Z " fill="#28722F" transform="translate(291,270)"/>
<path d="M0 0 C-1.40844718 3.21524305 -3.10344786 5.32183868 -5.625 7.75 C-6.57246094 8.67039062 -6.57246094 8.67039062 -7.5390625 9.609375 C-8.02117187 10.06828125 -8.50328125 10.5271875 -9 11 C-9.66 10.34 -10.32 9.68 -11 9 C-9.54782324 7.49403892 -8.08807139 5.99537896 -6.625 4.5 C-5.40683594 3.24703125 -5.40683594 3.24703125 -4.1640625 1.96875 C-2 0 -2 0 0 0 Z " fill="#34813C" transform="translate(448,703)"/>
<path d="M0 0 C0.93045933 2.55144824 1.08564091 3.74006478 0.22265625 6.359375 C-0.16019531 7.14828125 -0.54304688 7.9371875 -0.9375 8.75 C-1.50791016 9.94882812 -1.50791016 9.94882812 -2.08984375 11.171875 C-2.39019531 11.77515625 -2.69054687 12.3784375 -3 13 C-3.66 13 -4.32 13 -5 13 C-4.54803755 11.39402675 -4.08817673 9.79027492 -3.625 8.1875 C-3.36976563 7.29417969 -3.11453125 6.40085937 -2.8515625 5.48046875 C-2 3 -2 3 0 0 Z " fill="#2C7A34" transform="translate(455,659)"/>
<path d="M0 0 C3.51769206 5.27653809 3.10579441 10.86392402 3 17 C0.19499035 12.79248553 -0.12829139 9.75014586 -0.0625 4.75 C-0.05347656 3.85796875 -0.04445313 2.9659375 -0.03515625 2.046875 C-0.02355469 1.37140625 -0.01195312 0.6959375 0 0 Z " fill="#2C7832" transform="translate(281,585)"/>
<path d="M0 0 C3.62613199 0.56959153 5.25517741 1.92374534 7.75 4.5625 C8.36359375 5.20316406 8.9771875 5.84382813 9.609375 6.50390625 C10.06828125 6.99761719 10.5271875 7.49132812 11 8 C10.34 8.66 9.68 9.32 9 10 C7.49702124 8.52386015 5.99768715 7.04400843 4.5 5.5625 C3.6646875 4.73878906 2.829375 3.91507812 1.96875 3.06640625 C0 1 0 1 0 0 Z " fill="#34803C" transform="translate(301,285)"/>
<path d="M0 0 C0 0.66 0 1.32 0 2 C-6.27 2 -12.54 2 -19 2 C-19 1.67 -19 1.34 -19 1 C-18.15695312 0.93941406 -17.31390625 0.87882813 -16.4453125 0.81640625 C-15.34960938 0.73261719 -14.25390625 0.64882812 -13.125 0.5625 C-12.03445313 0.48128906 -10.94390625 0.40007812 -9.8203125 0.31640625 C-2.25 -0.53289474 -2.25 -0.53289474 0 0 Z " fill="#266F2D" transform="translate(297,190)"/>
<path d="M0 0 C0.33 0 0.66 0 1 0 C2.51708428 12.66970387 2.51708428 12.66970387 0 18 C-0.33 18 -0.66 18 -1 18 C-1.02717692 15.93757383 -1.0464758 13.87504297 -1.0625 11.8125 C-1.07410156 10.66394531 -1.08570313 9.51539063 -1.09765625 8.33203125 C-1.01192832 5.40699414 -0.67849023 2.83683709 0 0 Z " fill="#256F2C" transform="translate(534,654)"/>
<path d="M0 0 C1.32830615 3.98491845 0.23204404 5.40048548 -1.4375 9.1875 C-1.91058594 10.27417969 -2.38367188 11.36085938 -2.87109375 12.48046875 C-3.42990234 13.72763672 -3.42990234 13.72763672 -4 15 C-5.3480932 11.339671 -4.6336844 9.33449773 -3.125 5.8125 C-2.75632812 4.93207031 -2.38765625 4.05164063 -2.0078125 3.14453125 C-1 1 -1 1 0 0 Z " fill="#297631" transform="translate(482,592)"/>
<path d="M0 0 C4.99213851 0.46801299 9.12963993 2.91715737 13 6 C13 6.66 13 7.32 13 8 C8.27626146 6.37621488 4.05818166 3.89006982 0 1 C0 0.67 0 0.34 0 0 Z " fill="#2A7733" transform="translate(564,553)"/>
<path d="M0 0 C1.0169313 2.65498232 1.13022151 3.69155375 0.00390625 6.359375 C-0.47175781 7.14828125 -0.94742188 7.9371875 -1.4375 8.75 C-1.91058594 9.54921875 -2.38367188 10.3484375 -2.87109375 11.171875 C-3.24363281 11.77515625 -3.61617187 12.3784375 -4 13 C-4.66 13 -5.32 13 -6 13 C-4.58707905 8.1725201 -2.57025846 4.2837641 0 0 Z " fill="#287330" transform="translate(755,649)"/>
<path d="M0 0 C0.66 0.33 1.32 0.66 2 1 C-0.9901021 4.33511388 -3.89498574 6.21521119 -8 8 C-8.66 8 -9.32 8 -10 8 C-10 7.34 -10 6.68 -10 6 C-7.8828125 4.45703125 -7.8828125 4.45703125 -5.125 2.8125 C-4.22007812 2.26207031 -3.31515625 1.71164062 -2.3828125 1.14453125 C-1.20332031 0.57798828 -1.20332031 0.57798828 0 0 Z " fill="#33813B" transform="translate(582,647)"/>
<path d="M0 0 C0.33 0 0.66 0 1 0 C0.88512252 1.58409994 0.75765492 3.16728963 0.625 4.75 C0.52058594 6.07257812 0.52058594 6.07257812 0.4140625 7.421875 C0.00149945 9.99066382 -0.71160957 11.75841015 -2 14 C-2.33 14 -2.66 14 -3 14 C-2.48594831 9.03083364 -1.76615118 4.70973649 0 0 Z " fill="#2A7533" transform="translate(795,544)"/>
<path d="M0 0 C-2.38573379 1.89213369 -4.07175348 3.02391783 -7 4 C-8.20882096 6.00016466 -8.20882096 6.00016466 -9 8 C-9.33 6.35 -9.66 4.7 -10 3 C-6.68152292 -0.06320961 -4.44849969 -0.3033068 0 0 Z " fill="#388742" transform="translate(805,537)"/>
<path d="M0 0 C2.33944736 0.28730055 4.6739143 0.61936779 7 1 C7 1.33 7 1.66 7 2 C5.35 2.33 3.7 2.66 2 3 C1.67 4.65 1.34 6.3 1 8 C-1 6 -1 6 -1.1875 3.4375 C-1 1 -1 1 0 0 Z " fill="#31803B" transform="translate(647,347)"/>
<path d="M0 0 C5.21979128 -0.1799928 9.07262981 0.02905192 14 2 C14 2.66 14 3.32 14 4 C12.22773547 3.71715982 10.457212 3.42339502 8.6875 3.125 C7.20830078 2.88136719 7.20830078 2.88136719 5.69921875 2.6328125 C3 2 3 2 0 0 Z " fill="#297531" transform="translate(555,194)"/>
<path d="M0 0 C0.66 0.33 1.32 0.66 2 1 C-0.79196011 4.28465896 -4.23196817 6.01321958 -8 8 C-8.66 8 -9.32 8 -10 8 C-10 7.34 -10 6.68 -10 6 C-7.8828125 4.45703125 -7.8828125 4.45703125 -5.125 2.8125 C-4.22007812 2.26207031 -3.31515625 1.71164062 -2.3828125 1.14453125 C-1.20332031 0.57798828 -1.20332031 0.57798828 0 0 Z " fill="#2C7833" transform="translate(346,533)"/>
<path d="M0 0 C0.66 0 1.32 0 2 0 C1.45660208 4.56454251 0.20536179 7.9728176 -2 12 C-3.12377697 8.69564916 -2.89554742 6.9493138 -1.5625 3.75 C-1.27503906 3.04359375 -0.98757813 2.3371875 -0.69140625 1.609375 C-0.46324219 1.07828125 -0.23507812 0.5471875 0 0 Z " fill="#2A7531" transform="translate(678,685)"/>
<path d="M0 0 C0.66 0 1.32 0 2 0 C2.08159574 4.16138263 1.98248524 7.9472484 1 12 C0.34 11.34 -0.32 10.68 -1 10 C-0.9765625 7.6171875 -0.9765625 7.6171875 -0.625 4.875 C-0.51414063 3.96492188 -0.40328125 3.05484375 -0.2890625 2.1171875 C-0.19367188 1.41851562 -0.09828125 0.71984375 0 0 Z " fill="#2F7B38" transform="translate(214,486)"/>
<path d="M0 0 C1 4 1 4 0.00390625 6.140625 C-0.47175781 6.83671875 -0.94742188 7.5328125 -1.4375 8.25 C-1.91058594 8.95640625 -2.38367188 9.6628125 -2.87109375 10.390625 C-3.24363281 10.92171875 -3.61617187 11.4528125 -4 12 C-4.66 11.34 -5.32 10.68 -6 10 C-4.02 6.7 -2.04 3.4 0 0 Z " fill="#307E38" transform="translate(254,391)"/>
<path d="M0 0 C0.66 0 1.32 0 2 0 C2.3227506 4.62609198 1.84450614 7.28026121 -1 11 C-1.66 11 -2.32 11 -3 11 C-2.690625 10.113125 -2.38125 9.22625 -2.0625 8.3125 C-1.1709329 5.53290845 -0.50622993 2.86863625 0 0 Z " fill="#36843E" transform="translate(656,736)"/>
<path d="M0 0 C1.34173403 0.92543709 2.67320159 1.86577405 4 2.8125 C5.11375 3.59560547 5.11375 3.59560547 6.25 4.39453125 C6.8275 4.92433594 7.405 5.45414062 8 6 C8 6.99 8 7.98 8 9 C6.65826597 8.07456291 5.32679841 7.13422595 4 6.1875 C3.2575 5.66542969 2.515 5.14335937 1.75 4.60546875 C1.1725 4.07566406 0.595 3.54585938 0 3 C0 2.01 0 1.02 0 0 Z " fill="#34813E" transform="translate(827,407)"/>
<path d="M0 0 C0 3 0 3 -1.4609375 4.60546875 C-2.09257813 5.12753906 -2.72421875 5.64960937 -3.375 6.1875 C-4.00148438 6.71730469 -4.62796875 7.24710938 -5.2734375 7.79296875 C-7 9 -7 9 -9 9 C-7.83709195 5.51127585 -6.86032391 4.90023136 -3.9375 2.8125 C-3.20402344 2.28269531 -2.47054687 1.75289062 -1.71484375 1.20703125 C-1.14894531 0.80871094 -0.58304688 0.41039062 0 0 Z " fill="#2A7332" transform="translate(657,780)"/>
<path d="M0 0 C2.9375 0.375 2.9375 0.375 6 1 C6.33 1.66 6.66 2.32 7 3 C5.35 2.67 3.7 2.34 2 2 C2 3.32 2 4.64 2 6 C1.34 6 0.68 6 0 6 C0 4.02 0 2.04 0 0 Z " fill="#388541" transform="translate(443,242)"/>
<path d="M0 0 C0.33 0.66 0.66 1.32 1 2 C0.22265625 4.1640625 0.22265625 4.1640625 -0.9375 6.625 C-1.31777344 7.44226563 -1.69804688 8.25953125 -2.08984375 9.1015625 C-2.39019531 9.72804688 -2.69054687 10.35453125 -3 11 C-4.06192476 7.73635123 -4.07454186 7.17280159 -2.625 3.8125 C-1 1 -1 1 0 0 Z " fill="#28702E" transform="translate(640,779)"/>
<path d="M0 0 C-4.95 2.475 -4.95 2.475 -10 5 C-9 2 -9 2 -6.6875 0.25 C-4 -1 -4 -1 0 0 Z " fill="#34823D" transform="translate(565,620)"/>
<path d="M0 0 C3.45925163 1.2491742 6.14693203 2.67527795 9 5 C6 6 6 6 4.17578125 5.22265625 C2.45052083 4.1484375 0.72526042 3.07421875 -1 2 C-0.67 1.34 -0.34 0.68 0 0 Z " fill="#35843F" transform="translate(591,568)"/>
<path d="M0 0 C2.12046792 3.53411321 2.53199289 6.94393835 3 11 C2.34 11 1.68 11 1 11 C-1.03684712 6.92630576 -1.0257259 4.41062136 0 0 Z " fill="#37863F" transform="translate(448,297)"/>
<path d="M0 0 C2.46800047 1.15173355 4.04783565 2.04783565 6 4 C6 4.99 6 5.98 6 7 C5.01 7.33 4.02 7.66 3 8 C2.814375 7.071875 2.814375 7.071875 2.625 6.125 C2.12802644 3.80879168 2.12802644 3.80879168 0 2 C0 1.34 0 0.68 0 0 Z " fill="#398A42" transform="translate(535,296)"/>
<path d="M0 0 C4.40114397 0.50298788 6.71195019 2.08772731 10 5 C9.01 5.495 9.01 5.495 8 6 C6.0546875 5.0390625 6.0546875 5.0390625 3.875 3.625 C3.15054688 3.16351562 2.42609375 2.70203125 1.6796875 2.2265625 C1.12539063 1.82179688 0.57109375 1.41703125 0 1 C0 0.67 0 0.34 0 0 Z " fill="#32803B" transform="translate(528,695)"/>
<path d="M0 0 C0.66 0.33 1.32 0.66 2 1 C-0.25 3.5625 -0.25 3.5625 -3 6 C-4.32 5.67 -5.64 5.34 -7 5 C-4.69 3.35 -2.38 1.7 0 0 Z " fill="#34823C" transform="translate(517,327)"/>
<path d="M0 0 C4.40114397 0.50298788 6.71195019 2.08772731 10 5 C9.01 5.495 9.01 5.495 8 6 C6.0546875 5.0390625 6.0546875 5.0390625 3.875 3.625 C3.15054688 3.16351563 2.42609375 2.70203125 1.6796875 2.2265625 C1.12539063 1.82179687 0.57109375 1.41703125 0 1 C0 0.67 0 0.34 0 0 Z " fill="#297432" transform="translate(637,229)"/>
<path d="M0 0 C5.75 0.75 5.75 0.75 8 3 C7.67 3.99 7.34 4.98 7 6 C7 5.34 7 4.68 7 4 C6.030625 3.71125 5.06125 3.4225 4.0625 3.125 C1 2 1 2 0 0 Z " fill="#35843E" transform="translate(646,664)"/>
<path d="M0 0 C3.93673644 1.31224548 6.22719294 2.91910327 9 6 C4.75177626 5.52797514 2.80010291 3.03344482 0 0 Z " fill="#297530" transform="translate(537,700)"/>
<path d="M0 0 C-1.39332574 3.36720387 -2.9789286 4.9859524 -6 7 C-5.37162381 3.35541809 -4.14650034 0 0 0 Z " fill="#34813D" transform="translate(301,338)"/>
<path d="M0 0 C2.31 1.65 4.62 3.3 7 5 C6.34 5.66 5.68 6.32 5 7 C2.5 5.1875 2.5 5.1875 0 3 C0 2.01 0 1.02 0 0 Z " fill="#368440" transform="translate(691,263)"/>
<path d="M0 0 C1 4 1 4 1 4 Z " fill="#57A960" transform="translate(404,665)"/>
<path d="M0 0 C0.66 0.66 1.32 1.32 2 2 C1.34 2 0.68 2 0 2 C0 1.34 0 0.68 0 0 Z " fill="#51A25D" transform="translate(514,690)"/>
<path d="" fill="#55A661" transform="translate(0,0)"/>
<path d="M0 0 C0.33 0.66 0.66 1.32 1 2 C0.34 1.67 -0.32 1.34 -1 1 C-0.67 0.67 -0.34 0.34 0 0 Z " fill="#53A55E" transform="translate(282,259)"/>
<path d="" fill="#54A55E" transform="translate(0,0)"/>
<path d="" fill="#55AA60" transform="translate(0,0)"/>
<path d="M0 0 C2 1 2 1 2 1 Z " fill="#52A65E" transform="translate(605,632)"/>
<path d="" fill="#54A45E" transform="translate(0,0)"/>
<path d="" fill="#53A35E" transform="translate(0,0)"/>
<path d="" fill="#52A55E" transform="translate(0,0)"/>
<path d="" fill="#56A661" transform="translate(0,0)"/>
<path d="M0 0 C2 1 2 1 2 1 Z " fill="#54A45E" transform="translate(352,568)"/>
<path d="M0 0 C2 1 2 1 2 1 Z " fill="#52A65F" transform="translate(581,560)"/>
<path d="M0 0 C2 1 2 1 2 1 Z " fill="#52A75F" transform="translate(362,560)"/>
<path d="M0 0 C2 1 2 1 2 1 Z " fill="#52A75E" transform="translate(656,518)"/>
<path d="" fill="#54A561" transform="translate(0,0)"/>
<path d="" fill="#52A95F" transform="translate(0,0)"/>
<path d="M0 0 C2 1 2 1 2 1 Z " fill="#52A05D" transform="translate(781,368)"/>
<path d="" fill="#55A962" transform="translate(0,0)"/>
<path d="M0 0 C2 1 2 1 2 1 Z " fill="#54A75F" transform="translate(497,336)"/>
<path d="M0 0 C2 1 2 1 2 1 Z " fill="#51A35D" transform="translate(499,278)"/>
<path d="M0 0 C2 1 2 1 2 1 Z " fill="#50A05B" transform="translate(694,264)"/>
<path d="M0 0 C2 1 2 1 2 1 Z " fill="#55A460" transform="translate(448,247)"/>
<path d="M0 0 C2 1 2 1 2 1 Z " fill="#53A460" transform="translate(274,243)"/>
<path d="M0 0 C2 1 2 1 2 1 Z " fill="#53A35E" transform="translate(585,200)"/>
<path d="M0 0 C2 1 2 1 2 1 Z " fill="#52A65F" transform="translate(444,188)"/>
<path d="" fill="#60795E" transform="translate(0,0)"/>
<path d="" fill="#608060" transform="translate(0,0)"/>
<path d="" fill="#549D5F" transform="translate(0,0)"/>
<path d="" fill="#57A160" transform="translate(0,0)"/>
<path d="" fill="#53A25B" transform="translate(0,0)"/>
<path d="" fill="#53A05B" transform="translate(0,0)"/>
<path d="" fill="#53A05E" transform="translate(0,0)"/>
<path d="" fill="#55A35E" transform="translate(0,0)"/>
<path d="" fill="#53A15C" transform="translate(0,0)"/>
<path d="" fill="#54A25C" transform="translate(0,0)"/>
<path d="" fill="#53A05C" transform="translate(0,0)"/>
<path d="" fill="#52A15D" transform="translate(0,0)"/>
<path d="" fill="#53A15C" transform="translate(0,0)"/>
<path d="" fill="#54A15F" transform="translate(0,0)"/>
<path d="" fill="#52A25B" transform="translate(0,0)"/>
<path d="" fill="#51A25D" transform="translate(0,0)"/>
<path d="" fill="#53A25B" transform="translate(0,0)"/>
<path d="" fill="#53A35B" transform="translate(0,0)"/>
<path d="" fill="#53A25C" transform="translate(0,0)"/>
<path d="" fill="#52A05C" transform="translate(0,0)"/>
<path d="" fill="#57A45E" transform="translate(0,0)"/>
<path d="" fill="#55A45C" transform="translate(0,0)"/>
<path d="" fill="#4F9B57" transform="translate(0,0)"/>
<path d="" fill="#50A25C" transform="translate(0,0)"/>
<path d="" fill="#51A25C" transform="translate(0,0)"/>
<path d="" fill="#55A55E" transform="translate(0,0)"/>
<path d="" fill="#55A75F" transform="translate(0,0)"/>
<path d="" fill="#57A461" transform="translate(0,0)"/>
<path d="" fill="#55A85E" transform="translate(0,0)"/>
<path d="" fill="#53A45C" transform="translate(0,0)"/>
<path d="" fill="#52A15D" transform="translate(0,0)"/>
<path d="" fill="#52A05C" transform="translate(0,0)"/>
<path d="" fill="#519E5B" transform="translate(0,0)"/>
<path d="" fill="#53A45F" transform="translate(0,0)"/>
<path d="" fill="#54A55E" transform="translate(0,0)"/>
<path d="" fill="#50A35B" transform="translate(0,0)"/>
<path d="" fill="#55A65F" transform="translate(0,0)"/>
<path d="" fill="#4FA15A" transform="translate(0,0)"/>
<path d="" fill="#637F63" transform="translate(0,0)"/>
<path d="" fill="#56A661" transform="translate(0,0)"/>
<path d="" fill="#53A05F" transform="translate(0,0)"/>
<path d="" fill="#53A960" transform="translate(0,0)"/>
<path d="" fill="#53A45D" transform="translate(0,0)"/>
<path d="" fill="#56AA61" transform="translate(0,0)"/>
<path d="" fill="#55A960" transform="translate(0,0)"/>
<path d="" fill="#56A35E" transform="translate(0,0)"/>
<path d="" fill="#51A25D" transform="translate(0,0)"/>
<path d="" fill="#52A25C" transform="translate(0,0)"/>
<path d="" fill="#52A65F" transform="translate(0,0)"/>
<path d="" fill="#53A860" transform="translate(0,0)"/>
<path d="" fill="#57A860" transform="translate(0,0)"/>
<path d="" fill="#5DAF69" transform="translate(0,0)"/>
<path d="" fill="#51A35C" transform="translate(0,0)"/>
<path d="" fill="#51A35D" transform="translate(0,0)"/>
<path d="" fill="#54A960" transform="translate(0,0)"/>
<path d="" fill="#50A15D" transform="translate(0,0)"/>
<path d="" fill="#53A860" transform="translate(0,0)"/>
<path d="" fill="#52A65F" transform="translate(0,0)"/>
<path d="" fill="#51A65B" transform="translate(0,0)"/>
<path d="" fill="#52A85F" transform="translate(0,0)"/>
<path d="" fill="#55A75F" transform="translate(0,0)"/>
<path d="" fill="#56A960" transform="translate(0,0)"/>
<path d="" fill="#53A75F" transform="translate(0,0)"/>
<path d="" fill="#53A45C" transform="translate(0,0)"/>
<path d="" fill="#57AB61" transform="translate(0,0)"/>
<path d="" fill="#56AA62" transform="translate(0,0)"/>
<path d="" fill="#51A65F" transform="translate(0,0)"/>
<path d="" fill="#54A75E" transform="translate(0,0)"/>
<path d="" fill="#57AC63" transform="translate(0,0)"/>
<path d="" fill="#52A55F" transform="translate(0,0)"/>
<path d="" fill="#53A761" transform="translate(0,0)"/>
<path d="" fill="#53A65E" transform="translate(0,0)"/>
<path d="" fill="#51A45B" transform="translate(0,0)"/>
<path d="" fill="#54A55D" transform="translate(0,0)"/>
<path d="" fill="#55A861" transform="translate(0,0)"/>
<path d="" fill="#56A55F" transform="translate(0,0)"/>
<path d="" fill="#53A75F" transform="translate(0,0)"/>
<path d="" fill="#55A55E" transform="translate(0,0)"/>
<path d="" fill="#52A65E" transform="translate(0,0)"/>
<path d="" fill="#52A75F" transform="translate(0,0)"/>
<path d="" fill="#54A65D" transform="translate(0,0)"/>
<path d="" fill="#54A35F" transform="translate(0,0)"/>
<path d="" fill="#52A55D" transform="translate(0,0)"/>
<path d="" fill="#55A15E" transform="translate(0,0)"/>
<path d="" fill="#53A860" transform="translate(0,0)"/>
<path d="" fill="#53A75E" transform="translate(0,0)"/>
<path d="" fill="#55A860" transform="translate(0,0)"/>
<path d="" fill="#51A45A" transform="translate(0,0)"/>
<path d="" fill="#50A15E" transform="translate(0,0)"/>
<path d="" fill="#54A65F" transform="translate(0,0)"/>
<path d="" fill="#56A65F" transform="translate(0,0)"/>
<path d="" fill="#56AA60" transform="translate(0,0)"/>
<path d="" fill="#53A55D" transform="translate(0,0)"/>
<path d="" fill="#53A561" transform="translate(0,0)"/>
<path d="" fill="#54A75D" transform="translate(0,0)"/>
<path d="" fill="#51A45E" transform="translate(0,0)"/>
<path d="" fill="#56A85F" transform="translate(0,0)"/>
<path d="" fill="#55A660" transform="translate(0,0)"/>
<path d="" fill="#56A85F" transform="translate(0,0)"/>
<path d="" fill="#54A65E" transform="translate(0,0)"/>
<path d="" fill="#54A65E" transform="translate(0,0)"/>
<path d="" fill="#56A760" transform="translate(0,0)"/>
<path d="" fill="#53A460" transform="translate(0,0)"/>
<path d="" fill="#57A662" transform="translate(0,0)"/>
<path d="" fill="#56A75F" transform="translate(0,0)"/>
<path d="" fill="#56A560" transform="translate(0,0)"/>
<path d="" fill="#54A560" transform="translate(0,0)"/>
<path d="" fill="#53A660" transform="translate(0,0)"/>
<path d="" fill="#54A45D" transform="translate(0,0)"/>
<path d="" fill="#53A95F" transform="translate(0,0)"/>
<path d="" fill="#53A65F" transform="translate(0,0)"/>
<path d="" fill="#51A65E" transform="translate(0,0)"/>
<path d="" fill="#4EA55D" transform="translate(0,0)"/>
<path d="" fill="#55A760" transform="translate(0,0)"/>
<path d="" fill="#53A45F" transform="translate(0,0)"/>
<path d="" fill="#53A860" transform="translate(0,0)"/>
<path d="" fill="#52A55C" transform="translate(0,0)"/>
<path d="" fill="#4DA35C" transform="translate(0,0)"/>
<path d="" fill="#51A45D" transform="translate(0,0)"/>
<path d="" fill="#5BAA65" transform="translate(0,0)"/>
<path d="" fill="#55A55E" transform="translate(0,0)"/>
<path d="" fill="#52A45E" transform="translate(0,0)"/>
<path d="" fill="#55A862" transform="translate(0,0)"/>
<path d="" fill="#53A75E" transform="translate(0,0)"/>
<path d="" fill="#53A760" transform="translate(0,0)"/>
<path d="" fill="#55A761" transform="translate(0,0)"/>
<path d="" fill="#51A15C" transform="translate(0,0)"/>
<path d="" fill="#53A65F" transform="translate(0,0)"/>
<path d="" fill="#55A660" transform="translate(0,0)"/>
<path d="" fill="#54A65C" transform="translate(0,0)"/>
<path d="" fill="#53A35C" transform="translate(0,0)"/>
<path d="" fill="#54A25E" transform="translate(0,0)"/>
<path d="" fill="#51A75D" transform="translate(0,0)"/>
<path d="" fill="#4FA65B" transform="translate(0,0)"/>
<path d="" fill="#52A45D" transform="translate(0,0)"/>
<path d="" fill="#54A861" transform="translate(0,0)"/>
<path d="" fill="#53A85F" transform="translate(0,0)"/>
<path d="" fill="#53A760" transform="translate(0,0)"/>
<path d="" fill="#53A660" transform="translate(0,0)"/>
<path d="" fill="#55A560" transform="translate(0,0)"/>
<path d="" fill="#51A860" transform="translate(0,0)"/>
<path d="" fill="#51A55E" transform="translate(0,0)"/>
<path d="" fill="#52A45F" transform="translate(0,0)"/>
<path d="" fill="#55A460" transform="translate(0,0)"/>
<path d="" fill="#55AB61" transform="translate(0,0)"/>
<path d="" fill="#54A65F" transform="translate(0,0)"/>
<path d="" fill="#51A45E" transform="translate(0,0)"/>
<path d="" fill="#54A760" transform="translate(0,0)"/>
<path d="" fill="#57AA61" transform="translate(0,0)"/>
<path d="" fill="#50A05C" transform="translate(0,0)"/>
<path d="" fill="#53A35E" transform="translate(0,0)"/>
<path d="" fill="#52A35F" transform="translate(0,0)"/>
<path d="" fill="#50A05D" transform="translate(0,0)"/>
<path d="" fill="#50A05D" transform="translate(0,0)"/>
<path d="" fill="#54A560" transform="translate(0,0)"/>
<path d="" fill="#53A55E" transform="translate(0,0)"/>
<path d="" fill="#53A55D" transform="translate(0,0)"/>
<path d="" fill="#53A55E" transform="translate(0,0)"/>
<path d="" fill="#53A65F" transform="translate(0,0)"/>
<path d="" fill="#54A960" transform="translate(0,0)"/>
<path d="" fill="#608F66" transform="translate(0,0)"/>
<path d="" fill="#5AAB66" transform="translate(0,0)"/>
<path d="" fill="#54A85F" transform="translate(0,0)"/>
<path d="" fill="#54A85F" transform="translate(0,0)"/>
<path d="" fill="#53A85F" transform="translate(0,0)"/>
<path d="" fill="#53A85F" transform="translate(0,0)"/>
<path d="" fill="#58AB62" transform="translate(0,0)"/>
<path d="" fill="#57A161" transform="translate(0,0)"/>
<path d="" fill="#53A65E" transform="translate(0,0)"/>
<path d="" fill="#56A65E" transform="translate(0,0)"/>
<path d="" fill="#54A65D" transform="translate(0,0)"/>
<path d="" fill="#56AA61" transform="translate(0,0)"/>
<path d="" fill="#51A65E" transform="translate(0,0)"/>
<path d="" fill="#54A85F" transform="translate(0,0)"/>
<path d="" fill="#55A860" transform="translate(0,0)"/>
<path d="" fill="#4F9F59" transform="translate(0,0)"/>
<path d="" fill="#52A55F" transform="translate(0,0)"/>
<path d="" fill="#52A560" transform="translate(0,0)"/>
<path d="" fill="#54A661" transform="translate(0,0)"/>
<path d="" fill="#56A95F" transform="translate(0,0)"/>
<path d="" fill="#50A45C" transform="translate(0,0)"/>
<path d="" fill="#55A45E" transform="translate(0,0)"/>
<path d="" fill="#52A65E" transform="translate(0,0)"/>
<path d="" fill="#55A660" transform="translate(0,0)"/>
<path d="" fill="#53A65D" transform="translate(0,0)"/>
<path d="" fill="#53A75F" transform="translate(0,0)"/>
<path d="" fill="#54A661" transform="translate(0,0)"/>
<path d="" fill="#54A660" transform="translate(0,0)"/>
<path d="" fill="#51A55E" transform="translate(0,0)"/>
<path d="" fill="#55A660" transform="translate(0,0)"/>
<path d="" fill="#54A662" transform="translate(0,0)"/>
<path d="" fill="#52A35D" transform="translate(0,0)"/>
<path d="" fill="#54A55E" transform="translate(0,0)"/>
<path d="" fill="#55A761" transform="translate(0,0)"/>
<path d="" fill="#56A362" transform="translate(0,0)"/>
<path d="" fill="#52A661" transform="translate(0,0)"/>
<path d="" fill="#50A45D" transform="translate(0,0)"/>
<path d="" fill="#53A85E" transform="translate(0,0)"/>
<path d="" fill="#56A65E" transform="translate(0,0)"/>
<path d="" fill="#53A460" transform="translate(0,0)"/>
<path d="" fill="#51A15D" transform="translate(0,0)"/>
<path d="" fill="#50A25D" transform="translate(0,0)"/>
<path d="" fill="#56A661" transform="translate(0,0)"/>
<path d="" fill="#52A25D" transform="translate(0,0)"/>
<path d="" fill="#56A361" transform="translate(0,0)"/>
<path d="" fill="#53A560" transform="translate(0,0)"/>
<path d="" fill="#55A561" transform="translate(0,0)"/>
<path d="" fill="#52A65E" transform="translate(0,0)"/>
<path d="" fill="#53A55E" transform="translate(0,0)"/>
<path d="" fill="#54A760" transform="translate(0,0)"/>
<path d="" fill="#4FA35D" transform="translate(0,0)"/>
<path d="" fill="#53A45E" transform="translate(0,0)"/>
<path d="" fill="#53A45E" transform="translate(0,0)"/>
<path d="" fill="#52A65F" transform="translate(0,0)"/>
<path d="" fill="#55A65F" transform="translate(0,0)"/>
<path d="" fill="#56A360" transform="translate(0,0)"/>
<path d="" fill="#54A35E" transform="translate(0,0)"/>
<path d="" fill="#53A75F" transform="translate(0,0)"/>
<path d="" fill="#55A55E" transform="translate(0,0)"/>
<path d="" fill="#52A75E" transform="translate(0,0)"/>
<path d="" fill="#53A75E" transform="translate(0,0)"/>
<path d="" fill="#52A55E" transform="translate(0,0)"/>
<path d="" fill="#53A55C" transform="translate(0,0)"/>
<path d="" fill="#53A55F" transform="translate(0,0)"/>
<path d="" fill="#56A762" transform="translate(0,0)"/>
</svg>
